<svg width="150" height="43" fill="none" xmlns="http://www.w3.org/2000/svg"><path d="M149.169 37.256c0 2.239-1.909 4.052-4.271 4.052H5.113c-2.36 0-4.277-1.813-4.277-4.052V4.95C.836 2.712 2.752.893 5.113.893h139.784c2.363 0 4.271 1.819 4.271 4.056l.001 32.307z" fill="#212121"/><path d="M144.444.94c2.573 0 4.666 1.979 4.666 4.41v31.5c0 2.43-2.093 4.408-4.666 4.408H5.556C2.983 41.258.89 39.28.89 36.85V5.35C.89 2.919 2.983.94 5.556.94h138.888zm0-.84H5.556C2.5.1 0 2.463 0 5.35v31.5c0 2.886 2.501 5.25 5.556 5.25h138.888c3.055 0 5.556-2.364 5.556-5.25V5.35c0-2.887-2.501-5.25-5.556-5.25z" fill="#212121"/><g fill="#FAF9F6"><path d="M33.481 20.872c-.032-3.384 2.932-5.03 3.068-5.107-1.679-2.313-4.281-2.63-5.196-2.654-2.185-.218-4.305 1.236-5.419 1.236-1.135 0-2.85-1.215-4.697-1.18-2.378.035-4.603 1.336-5.823 3.356-2.517 4.12-.64 10.173 1.773 13.502 1.206 1.63 2.616 3.452 4.462 3.387 1.805-.07 2.48-1.087 4.659-1.087 2.159 0 2.792 1.087 4.674 1.046 1.938-.029 3.158-1.638 4.322-3.283 1.395-1.869 1.955-3.71 1.977-3.804-.045-.015-3.763-1.355-3.8-5.412zM29.925 10.92c.972-1.147 1.636-2.709 1.452-4.293-1.406.059-3.164.919-4.176 2.041-.896.99-1.695 2.61-1.489 4.135 1.58.111 3.2-.753 4.213-1.883z"/></g><g fill="#FAF9F6"><path d="M59.608 33.178h-2.523l-1.382-4.104h-4.805l-1.316 4.104h-2.457l4.76-13.973h2.94l4.783 13.974zm-4.322-5.826-1.25-3.649c-.132-.372-.38-1.25-.745-2.632h-.045c-.145.594-.38 1.472-.702 2.632l-1.228 3.649h3.97zM71.85 28.017c0 1.714-.49 3.068-1.47 4.063-.878.885-1.968 1.327-3.27 1.327-1.403 0-2.412-.477-3.027-1.43h-.044v5.308h-2.37V26.42c0-1.077-.03-2.183-.087-3.317h2.083l.133 1.597h.044c.79-1.203 1.989-1.803 3.598-1.803 1.258 0 2.308.469 3.148 1.409.842.94 1.262 2.177 1.262 3.711zm-2.413.082c0-.98-.234-1.789-.703-2.425-.512-.664-1.2-.996-2.062-.996-.584 0-1.115.185-1.59.55a2.53 2.53 0 0 0-.932 1.441c-.074.277-.11.504-.11.683v1.68c0 .733.238 1.351.713 1.856.476.505 1.094.757 1.853.757.893 0 1.587-.325 2.084-.974.498-.65.746-1.507.746-2.572zM84.11 28.017c0 1.714-.49 3.068-1.47 4.063-.877.885-1.967 1.327-3.269 1.327-1.404 0-2.413-.477-3.026-1.43H76.3v5.308h-2.368V26.42c0-1.077-.03-2.183-.088-3.317h2.083l.132 1.597h.045c.789-1.203 1.987-1.803 3.597-1.803 1.257 0 2.307.469 3.15 1.409.838.94 1.26 2.177 1.26 3.711zm-2.413.082c0-.98-.234-1.789-.703-2.425-.513-.664-1.198-.996-2.061-.996-.586 0-1.116.185-1.592.55a2.528 2.528 0 0 0-.93 1.441c-.073.277-.11.504-.11.683v1.68c0 .733.237 1.351.71 1.856.476.504 1.094.757 1.856.757.892 0 1.587-.325 2.083-.974.498-.65.747-1.507.747-2.572zM97.826 29.26c0 1.188-.437 2.155-1.314 2.902-.963.816-2.304 1.223-4.027 1.223-1.591 0-2.867-.29-3.833-.87l.55-1.866a6.781 6.781 0 0 0 3.424.892c.892 0 1.586-.19 2.085-.571.497-.38.745-.89.745-1.527 0-.567-.205-1.044-.615-1.432-.407-.387-1.089-.747-2.04-1.08-2.589-.913-3.882-2.25-3.882-4.007 0-1.149.453-2.09 1.361-2.824.905-.734 2.111-1.1 3.62-1.1 1.346 0 2.463.222 3.356.664l-.593 1.824c-.833-.428-1.775-.642-2.83-.642-.833 0-1.484.194-1.95.58-.395.346-.593.767-.593 1.266 0 .552.226 1.009.679 1.368.395.332 1.111.69 2.151 1.078 1.272.484 2.207 1.05 2.808 1.7.599.646.898 1.456.898 2.422zM105.653 24.782h-2.611v4.892c0 1.245.46 1.866 1.383 1.866a4.45 4.45 0 0 0 1.052-.104l.065 1.7c-.466.165-1.081.248-1.842.248-.935 0-1.667-.27-2.194-.809-.526-.54-.79-1.444-.79-2.716V24.78H99.16V23.1h1.556v-1.845l2.326-.663V23.1h2.611v1.682zM117.439 28.057c0 1.549-.468 2.82-1.404 3.815-.981 1.024-2.283 1.534-3.907 1.534-1.564 0-2.81-.49-3.739-1.471-.928-.98-1.393-2.219-1.393-3.71 0-1.562.478-2.841 1.437-3.835.956-.996 2.248-1.494 3.871-1.494 1.564 0 2.823.49 3.773 1.473.909.952 1.362 2.181 1.362 3.688zm-2.457.073c0-.93-.21-1.726-.636-2.391-.497-.805-1.207-1.206-2.127-1.206-.952 0-1.675.403-2.172 1.206-.425.665-.635 1.475-.635 2.433 0 .929.21 1.726.635 2.39.512.804 1.228 1.205 2.151 1.205.905 0 1.615-.41 2.127-1.226.437-.678.657-1.483.657-2.411zM125.134 25.072a4.335 4.335 0 0 0-.747-.062c-.833 0-1.477.297-1.931.893-.394.525-.592 1.188-.592 1.99v5.286h-2.368l.023-6.903c0-1.16-.03-2.218-.089-3.172h2.063l.087 1.928h.065a3.455 3.455 0 0 1 1.185-1.596 2.972 2.972 0 0 1 1.712-.54c.219 0 .417.015.592.041v2.135zM135.733 27.664c0 .401-.027.74-.086 1.015h-7.107c.028.996.371 1.757 1.031 2.282.599.47 1.373.705 2.325.705 1.052 0 2.012-.16 2.875-.477l.371 1.554c-1.009.416-2.2.622-3.574.622-1.654 0-2.951-.46-3.896-1.378-.942-.919-1.414-2.153-1.414-3.7 0-1.52.439-2.785 1.318-3.794.92-1.077 2.163-1.616 3.727-1.616 1.537 0 2.7.539 3.49 1.616.626.856.94 1.914.94 3.17zm-2.259-.58c.016-.664-.138-1.238-.46-1.722-.41-.622-1.04-.933-1.887-.933-.775 0-1.405.303-1.886.912-.394.484-.629 1.065-.701 1.741h4.934v.001z"/></g><g fill="#FAF9F6"><path d="M54.502 10.61c0 1.236-.392 2.166-1.175 2.791-.726.577-1.757.865-3.092.865-.663 0-1.23-.027-1.704-.082V7.432a13.287 13.287 0 0 1 2.006-.143c1.272 0 2.23.262 2.878.784.724.592 1.087 1.437 1.087 2.537zm-1.227.03c0-.8-.225-1.415-.674-1.843-.449-.427-1.104-.642-1.968-.642-.366 0-.678.023-.937.072v5.133c.143.021.405.03.786.03.892 0 1.58-.234 2.064-.702.484-.468.729-1.15.729-2.047zM61.013 11.689c0 .761-.23 1.385-.69 1.874-.482.503-1.121.754-1.92.754-.768 0-1.38-.24-1.837-.723-.455-.482-.683-1.09-.683-1.823 0-.767.234-1.396.705-1.884s1.105-.733 1.903-.733c.769 0 1.386.24 1.854.723.444.468.668 1.073.668 1.812zm-1.208.036c0-.457-.104-.849-.312-1.175-.245-.395-.592-.592-1.045-.592-.467 0-.823.197-1.067.592-.21.326-.313.724-.313 1.195 0 .456.105.848.313 1.175.252.394.603.592 1.056.592.445 0 .794-.2 1.045-.603.215-.333.323-.728.323-1.184zM69.741 9.256l-1.639 4.95h-1.066l-.68-2.15a15.366 15.366 0 0 1-.42-1.599h-.021a11.18 11.18 0 0 1-.422 1.6l-.72 2.149h-1.08l-1.54-4.95h1.196l.592 2.353c.144.556.261 1.087.356 1.589h.02c.088-.414.23-.941.433-1.579l.743-2.362h.95l.712 2.312c.172.564.312 1.107.42 1.63h.032c.079-.51.198-1.053.355-1.63l.636-2.312h1.143v-.001zM75.779 14.206h-1.165v-2.835c0-.874-.351-1.31-1.055-1.31-.346 0-.625.12-.841.36-.215.24-.324.524-.324.848v2.936H71.23V10.67c0-.435-.015-.907-.043-1.417h1.024l.054.774h.032c.136-.24.338-.439.604-.597a2.055 2.055 0 0 1 1.055-.279c.49 0 .896.15 1.22.449.401.366.603.913.603 1.64v2.965zM78.987 14.205h-1.163v-7.22h1.163v7.22zM85.845 11.689c0 .761-.23 1.385-.69 1.874-.482.503-1.122.754-1.919.754-.77 0-1.382-.24-1.838-.723-.455-.482-.683-1.09-.683-1.823 0-.767.234-1.396.705-1.884s1.105-.733 1.901-.733c.77 0 1.387.24 1.856.723.444.468.668 1.073.668 1.812zm-1.209.036c0-.457-.105-.849-.312-1.175-.244-.395-.593-.592-1.044-.592-.469 0-.824.197-1.067.592-.21.326-.313.724-.313 1.195 0 .456.105.848.313 1.175.252.394.603.592 1.056.592.445 0 .792-.2 1.044-.603.216-.333.323-.728.323-1.184zM91.479 14.205h-1.046l-.086-.57h-.032c-.358.454-.868.682-1.53.682-.495 0-.894-.15-1.195-.448a1.364 1.364 0 0 1-.41-1.008c0-.605.266-1.066.803-1.385.535-.32 1.288-.476 2.258-.469v-.092c0-.652-.362-.977-1.087-.977a2.54 2.54 0 0 0-1.366.366l-.236-.722c.486-.285 1.087-.428 1.796-.428 1.369 0 2.055.683 2.055 2.048v1.823c0 .494.026.888.076 1.18zm-1.209-1.701v-.764c-1.284-.02-1.926.312-1.926.998 0 .258.073.451.223.58.15.13.341.194.569.194.255 0 .494-.077.712-.23a.935.935 0 0 0 .422-.778zM98.094 14.205H97.06l-.054-.795h-.032c-.33.605-.892.908-1.683.908a2.018 2.018 0 0 1-1.573-.703c-.416-.468-.624-1.076-.624-1.823 0-.8.225-1.45.679-1.945a2.141 2.141 0 0 1 1.616-.693c.704 0 1.196.223 1.476.672h.022V6.984h1.166v5.888c0 .482.013.926.04 1.333zm-1.207-2.087v-.825c0-.143-.011-.259-.032-.347a1.242 1.242 0 0 0-.421-.667 1.184 1.184 0 0 0-.78-.27c-.434 0-.774.163-1.024.49-.247.326-.373.743-.373 1.252 0 .49.119.887.358 1.192.252.326.592.488 1.018.488.382 0 .687-.135.92-.407a1.31 1.31 0 0 0 .334-.906zM108.052 11.689c0 .761-.23 1.385-.69 1.874-.482.503-1.12.754-1.919.754-.768 0-1.38-.24-1.838-.723-.455-.482-.683-1.09-.683-1.823 0-.767.234-1.396.705-1.884.472-.488 1.105-.733 1.904-.733.768 0 1.386.24 1.853.723.445.468.668 1.073.668 1.812zm-1.207.036c0-.457-.104-.849-.312-1.175-.246-.395-.592-.592-1.046-.592-.466 0-.822.197-1.067.592-.209.326-.313.724-.313 1.195 0 .456.105.848.313 1.175.252.394.603.592 1.056.592.445 0 .795-.2 1.046-.603.214-.333.323-.728.323-1.184zM114.317 14.206h-1.164v-2.835c0-.874-.351-1.31-1.056-1.31-.346 0-.625.12-.84.36a1.23 1.23 0 0 0-.324.848v2.936h-1.165V10.67c0-.435-.014-.907-.041-1.417h1.022l.054.774h.032a1.65 1.65 0 0 1 .604-.597 2.056 2.056 0 0 1 1.056-.279c.488 0 .895.15 1.218.449.404.366.604.913.604 1.64v2.965zM122.15 10.08h-1.282v2.405c0 .611.228.917.679.917.209 0 .382-.017.519-.052l.03.835c-.23.082-.532.123-.904.123-.46 0-.818-.133-1.077-.397-.26-.265-.389-.71-.389-1.335V10.08h-.765v-.824h.765V8.35l1.141-.326v1.232h1.282v.825h.001zM128.318 14.205h-1.165v-2.814c0-.887-.351-1.331-1.055-1.331-.54 0-.908.257-1.111.772-.034.108-.054.24-.054.395v2.977h-1.163v-7.22h1.163v2.983h.022c.367-.542.892-.813 1.573-.813.483 0 .882.149 1.198.448.395.373.592.927.592 1.66v2.943zM134.68 11.495a2.5 2.5 0 0 1-.043.5h-3.492c.015.489.182.861.505 1.12.296.23.677.346 1.143.346.517 0 .988-.078 1.413-.234l.182.764c-.497.204-1.081.306-1.758.306-.811 0-1.45-.226-1.912-.677-.465-.452-.695-1.058-.695-1.818 0-.746.215-1.368.647-1.864.451-.529 1.061-.793 1.831-.793.754 0 1.326.264 1.712.793.313.42.467.94.467 1.557zm-1.111-.284a1.417 1.417 0 0 0-.226-.845c-.202-.306-.51-.46-.926-.46-.38 0-.69.15-.927.45a1.61 1.61 0 0 0-.345.855h2.424z"/></g></svg>