<svg viewBox="0 0 56 18" fill="none" xmlns="http://www.w3.org/2000/svg"><path d="M0 9.846c0-3.36 0-5.04.654-6.324A6 6 0 0 1 3.276.9C4.56.246 6.24.246 9.6.246h7.842c3.36 0 5.04 0 6.324.654a6 6 0 0 1 2.622 2.622c.654 1.284.654 2.964.654 6.324v7.842c0 3.36 0 5.04-.654 6.324a6 6 0 0 1-2.622 2.622c-1.284.654-2.964.654-6.324.654H9.6c-3.36 0-5.04 0-6.324-.654a6 6 0 0 1-2.622-2.622C0 22.728 0 21.048 0 17.688V9.846z" fill="url(#a)"/><path d="M13.443 23.513c-.86 0-1.5-.225-1.92-.676-.409-.451-.613-1.065-.613-1.841v-3.461H9.855v-1.637h1.055v-1.605l2.124-.629v2.234h1.888l-.126 1.637h-1.762v3.32c0 .408.094.692.283.849.189.147.482.22.88.22.295 0 .599-.052.913-.157v1.463c-.23.094-.482.162-.755.204a4.854 4.854 0 0 1-.912.08zM19.93 23.513c-1.396 0-2.418-.336-3.069-1.007-.65-.682-.975-1.641-.975-2.879s.325-2.192.975-2.863c.661-.682 1.684-1.023 3.068-1.023 1.395 0 2.418.34 3.068 1.023.661.67.991 1.625.991 2.863s-.325 2.197-.975 2.88c-.65.67-1.678 1.006-3.084 1.006zm0-1.81c.681 0 1.169-.151 1.462-.456.294-.314.441-.854.441-1.62 0-.766-.147-1.3-.44-1.605-.294-.314-.782-.472-1.464-.472-.671 0-1.154.157-1.447.472-.294.304-.44.84-.44 1.605 0 .766.146 1.306.44 1.62.293.305.776.457 1.447.457zM32.268 23.371l-1.75-6.636h1.89l1.008 4.312 1.106-3.458v-.854h1.442l1.26 4.312.98-4.312h1.876l-1.736 6.636h-1.736l-1.274-3.878-1.302 3.878h-1.764zm11.955.14c-1.148 0-2.058-.285-2.73-.854-.672-.579-1.008-1.451-1.008-2.618 0-1.055.28-1.89.84-2.506.57-.625 1.414-.938 2.534-.938 1.026 0 1.81.27 2.352.812.55.532.826 1.232.826 2.1v1.204h-4.802c.102.532.345.896.728 1.092.392.196.943.294 1.652.294.354 0 .714-.033 1.078-.098.373-.065.69-.15.952-.252v1.344c-.308.14-.668.243-1.078.308-.41.075-.859.112-1.344.112zm-1.988-3.962h3.15v-.364c0-.383-.112-.681-.336-.896-.224-.224-.602-.336-1.134-.336-.626 0-1.064.126-1.316.378-.243.252-.364.658-.364 1.218zm10.024 3.962c-.467 0-.873-.06-1.218-.182a3.127 3.127 0 0 1-.952-.574l-.098.616h-1.638v-9.436h1.89V17.1c.27-.168.574-.294.91-.378a4.314 4.314 0 0 1 1.05-.126c.952 0 1.703.27 2.254.812.56.532.84 1.395.84 2.59 0 1.195-.276 2.081-.826 2.66-.542.57-1.279.854-2.212.854zm-.532-1.386c.606 0 1.031-.177 1.274-.532.252-.355.378-.887.378-1.596 0-.737-.136-1.255-.406-1.554-.262-.308-.682-.462-1.26-.462-.29 0-.565.042-.826.126a1.81 1.81 0 0 0-.644.364v3.052c.186.196.406.345.658.448.261.103.536.154.826.154z" fill="#FAF9F6"/><defs><linearGradient id="a" x1="24.5" y1="1.746" x2="2" y2="25.746" gradientUnits="userSpaceOnUse"><stop stop-color="#8066FF"/><stop offset="1" stop-color="#690DFF"/></linearGradient></defs></svg>