<svg width="151" height="51" fill="none" xmlns="http://www.w3.org/2000/svg"><path d="M95.883 8.444c0 1.225.574 2.055 1.623 2.352 1.088.276 4.076.138 4.67-.237.574-.356 1.029-1.344 1.029-2.234v-.711h-1.247c-1.187 0-1.247.02-1.464.593-.178.494-.337.593-.89.593-.753 0-1.149-.297-1.149-.83 0-.297-.178-.356-1.286-.356h-1.286v.83zM79.46 12.198c-1.543.79-1.662 1.206-1.741 5.87-.04 2.233-.02 4.506.06 5.079.158 1.245.732 2.174 1.681 2.727.634.376 1.01.415 4.849.415 4.531 0 4.927-.079 5.818-1.206.732-.928.85-1.877.771-6.58-.079-5.139-.158-5.495-1.741-6.305-.811-.415-1.128-.435-4.848-.435-3.72 0-4.037.02-4.849.435zm7.283 2.648c.415.297.435.396.435 4.23 0 3.695-.02 3.952-.376 4.15-.218.099-1.365.197-2.572.197-1.702 0-2.237-.059-2.474-.316-.257-.257-.317-.909-.317-4.13 0-4.664-.138-4.447 2.87-4.447 1.484 0 2.097.08 2.434.316zM9.406 15.817v3.854l4.71.04 4.69.059.099 3.656.099 3.656.257-1.66c1.049-6.561 3.8-10.83 8.37-12.965l1.07-.494H9.405v3.854z" fill="#FAF9F6"/><path d="M32.657 12.26c-5.264 1.146-9.38 5.08-10.845 10.356-.376 1.423-.415 2.055-.495 11.127l-.079 9.644H25.83V33.84c0-7.925.06-9.743.297-10.711.97-3.735 3.621-6.561 7.243-7.708 1.524-.474 1.8-.494 6.53-.494h4.928v-2.964l-5.482.02c-3.78 0-5.877.098-6.688.276zM49.184 13.346v1.383H53.339v11.462h3.76V14.73h4.156v-2.767H49.184v1.384zM63.23 19.096v7.134l5.106-.079c4.71-.059 5.145-.098 5.778-.474 1.207-.711 1.584-1.482 1.584-3.34 0-1.818-.357-2.589-1.524-3.38-.574-.375-.594-.414-.238-.651.792-.475 1.168-1.423 1.168-2.906 0-1.126-.08-1.541-.455-2.075-.851-1.284-1.247-1.363-6.61-1.363H63.23v7.134zm7.916-3.972c.435.434.514 1.383.198 1.996-.198.336-.435.375-2.375.375h-2.176V16.25c0-.691.059-1.324.138-1.383.06-.08.95-.139 1.979-.139 1.583 0 1.9.06 2.236.396zm.633 5.672c.455.395.475 1.58.02 2.075-.277.296-.633.356-2.671.356h-2.335V20.46h2.315c1.86 0 2.374.059 2.671.336zM93.508 19.077v7.134l1.92-.06 1.9-.059 2.255-4.051c1.247-2.233 2.335-4.13 2.454-4.249.099-.099.178 1.423.178 4.11v4.29h3.562v-14.23h-3.898l-2.098 3.814c-1.168 2.115-2.256 3.992-2.414 4.21-.258.336-.277-.119-.297-3.834v-4.19h-3.562v7.115z" fill="#FAF9F6"/><path d="M34.282 16.924c-1.227.297-2.71 1.146-3.859 2.214-1.246 1.205-1.92 2.272-2.434 3.913-.356 1.107-.376 1.956-.376 10.77v9.566h4.334l.06-9.743c.059-9.427.079-9.743.474-10.633.535-1.166 1.682-2.292 2.83-2.826.812-.356 1.366-.415 5.224-.474l4.295-.08v-2.924l-4.888.02c-2.711.02-5.244.099-5.66.197zM56.703 29.137c-.91.296-1.405.691-1.84 1.502-.376.691-.416 1.205-.495 4.308-.138 5.948.119 7.174 1.742 8.122.633.376 1.009.415 4.848.415 3.84 0 4.215-.04 4.947-.415 1.504-.79 1.583-1.106 1.643-6.6.06-4.724.04-4.862-.396-5.732-.792-1.56-1.207-1.68-5.897-1.719-2.236-.02-4.275.04-4.552.119zm6.748 2.964c.456.376.475.474.535 3.913.06 4.743.217 4.486-2.93 4.565-2.156.04-2.492 0-2.71-.296-.356-.474-.356-7.57 0-8.004.356-.455.653-.514 2.73-.534 1.604-.02 2 .04 2.375.356zM86.68 29.255c-.435.158-.99.514-1.227.79-.771.87-.89 1.839-.81 6.7.058 4.348.078 4.605.514 5.277.81 1.324 1.365 1.462 6.075 1.462 3.839 0 4.215-.04 4.848-.415.95-.553 1.524-1.482 1.682-2.727.08-.573.1-2.806.06-4.98-.06-3.538-.1-4.012-.475-4.724-.772-1.462-1.188-1.58-5.818-1.62-3.147-.04-4.235 0-4.849.237zm7.085 2.846c.297.237.336.79.336 4.15 0 2.767-.06 3.953-.237 4.13-.337.337-4.928.337-5.264 0-.178-.177-.238-1.363-.238-4.13 0-4.822-.158-4.585 2.989-4.486 1.404.04 2.196.158 2.414.336zM116.66 29.393c-1.662.87-1.682.89-1.741 6.542-.059 4.862-.04 5 .396 5.87.811 1.58 1.187 1.68 6.095 1.68 3.898 0 4.314-.04 4.927-.396.376-.217.851-.652 1.089-.948.395-.534.415-.85.474-5.435.08-5.297-.019-5.969-.89-6.799-.91-.83-1.623-.948-5.679-.948-3.543 0-3.859.02-4.671.434zm7.441 2.807c.435.593.396 7.668-.04 8.103-.237.257-.791.316-2.651.316-3.107 0-2.969.197-2.969-4.289 0-3.518.119-4.308.733-4.466.197-.06 1.325-.099 2.493-.08 1.88.04 2.177.08 2.434.416z" fill="#FAF9F6"/><path d="M39.484 36.272v7.115h3.76V31.924h4.947v11.462h3.76V29.159H39.484v7.114zM70.16 36.272v7.134l5.106-.059c4.67-.06 5.145-.099 5.758-.455 1.188-.691 1.504-1.324 1.564-3.122.079-1.897-.258-2.727-1.405-3.478l-.713-.475.495-.375c.752-.613 1.069-1.403 1.069-2.767 0-1.502-.436-2.45-1.406-3.024-.613-.355-1.088-.395-5.56-.454l-4.908-.06v7.135zm8.035-3.874c.356.494.356 1.522 0 2.016-.258.336-.535.376-2.336.376h-2.038l-.06-1.166c-.098-1.779-.138-1.74 2.158-1.66 1.702.04 2.038.118 2.276.434zm.474 5.652c.475.475.515 1.522.06 2.016-.277.297-.633.356-2.672.356h-2.335v-1.245c0-.692.06-1.324.139-1.383.06-.08 1.088-.139 2.275-.139 1.88 0 2.177.04 2.533.395zM100.434 36.252v7.135h3.562v-4.15h3.166c3.404 0 4.096-.139 4.868-1.008.673-.771.871-1.68.871-4.111 0-1.996-.06-2.43-.436-3.182-.831-1.6-1.088-1.68-6.926-1.739l-5.105-.06v7.115zm8.449-3.814c.456.455.495.613.416 1.996-.099 1.976-.178 2.036-3.067 2.036h-2.236v-4.546h2.176c2.098 0 2.217.02 2.711.514zM129.523 30.54v1.364l2.138.06 2.117.06.059 5.671.04 5.692h3.562l.04-5.692.059-5.672 2.137-.06 2.118-.059v-2.747h-12.27v1.384z" fill="#FAF9F6"/></svg>