<svg xmlns="http://www.w3.org/2000/svg" fill="none" viewBox="0 0 165 55"><path fill="#FAF9F6" d="M107.781 6.926c0 1.527.716 2.562 2.023 2.931 1.356.345 5.08.173 5.82-.295.716-.444 1.283-1.675 1.283-2.784v-.886h-1.554c-1.48 0-1.554.024-1.825.739-.222.615-.419.739-1.11.739-.937 0-1.43-.37-1.43-1.035 0-.37-.222-.443-1.604-.443h-1.603v1.034ZM87.312 11.606c-1.924.985-2.072 1.502-2.17 7.315-.05 2.784-.025 5.616.074 6.33.197 1.552.912 2.71 2.096 3.4.79.468 1.258.517 6.043.517 5.648 0 6.141-.099 7.251-1.503.913-1.157 1.061-2.34.962-8.202-.099-6.404-.197-6.847-2.17-7.857-1.012-.518-1.406-.542-6.043-.542-4.637 0-5.032.024-6.043.542Zm9.077 3.3c.518.37.542.493.542 5.271 0 4.607-.024 4.927-.468 5.173-.272.123-1.702.246-3.207.246-2.12 0-2.787-.073-3.083-.394-.32-.32-.394-1.133-.394-5.148 0-5.813-.173-5.542 3.576-5.542 1.85 0 2.614.099 3.034.394ZM0 16.116v4.803l5.87.05 5.845.074.124 4.556.123 4.557.32-2.069C13.59 19.91 17.019 14.59 22.716 11.93l1.332-.616H0v4.803Z"/><path fill="#FAF9F6" d="M28.977 11.684c-6.56 1.429-11.69 6.33-13.516 12.907-.468 1.773-.518 2.561-.616 13.867l-.099 12.02h5.722V38.581c0-9.877.074-12.143.37-13.35 1.209-4.655 4.514-8.177 9.027-9.606 1.9-.591 2.244-.616 8.14-.616h6.14V11.314l-6.831.025c-4.711 0-7.326.123-8.337.345ZM49.578 13.036v1.725h5.18v14.286h4.686V14.76h5.18v-3.449H49.577v1.724ZM67.082 20.204v8.892l6.363-.099c5.87-.074 6.413-.123 7.202-.591 1.505-.887 1.973-1.847 1.973-4.163 0-2.266-.444-3.226-1.899-4.212-.715-.468-.74-.517-.296-.813.987-.59 1.455-1.773 1.455-3.62 0-1.404-.098-1.922-.567-2.587-1.06-1.6-1.554-1.7-8.238-1.7h-5.993v8.893Zm9.866-4.951c.542.542.64 1.724.246 2.488-.246.418-.542.468-2.96.468h-2.712v-1.552c0-.862.073-1.65.172-1.724.074-.099 1.184-.173 2.467-.173 1.973 0 2.367.074 2.787.493Zm.789 7.069c.567.493.592 1.97.025 2.586-.346.37-.79.444-3.33.444h-2.91v-3.449h2.885c2.319 0 2.96.074 3.33.419ZM104.82 20.178v8.892l2.393-.074 2.367-.073 2.812-5.05c1.554-2.783 2.91-5.148 3.058-5.296.124-.123.222 1.774.222 5.124v5.345h4.44V11.31h-4.859l-2.614 4.754c-1.455 2.636-2.812 4.976-3.009 5.246-.321.42-.346-.147-.37-4.778V11.31h-4.44v8.867Z"/><path fill="#FAF9F6" d="M31.003 17.497c-1.529.37-3.379 1.429-4.81 2.759-1.553 1.502-2.392 2.832-3.033 4.877-.444 1.38-.469 2.438-.469 13.424v11.921h5.402l.074-12.143c.074-11.749.098-12.143.592-13.252.666-1.453 2.096-2.857 3.527-3.522 1.01-.443 1.701-.517 6.511-.591l5.352-.098v-3.646l-6.092.025c-3.379.024-6.536.123-7.054.246ZM58.95 32.717c-1.134.37-1.75.862-2.293 1.872-.469.862-.518 1.503-.617 5.37-.172 7.414.148 8.941 2.17 10.123.79.468 1.259.518 6.043.518 4.785 0 5.254-.05 6.166-.518 1.875-.985 1.974-1.379 2.047-8.227.075-5.886.05-6.059-.493-7.143-.986-1.946-1.504-2.093-7.35-2.143-2.787-.024-5.327.05-5.672.148Zm8.411 3.695c.567.468.592.591.666 4.877.074 5.911.271 5.591-3.65 5.69-2.689.049-3.108 0-3.38-.37-.443-.59-.443-9.434 0-9.975.445-.567.815-.64 3.404-.666 1.998-.024 2.492.05 2.96.444ZM96.313 32.865c-.543.197-1.234.64-1.53.985-.961 1.084-1.11 2.29-1.01 8.35.073 5.42.098 5.74.64 6.577 1.012 1.65 1.702 1.823 7.572 1.823 4.785 0 5.254-.05 6.043-.518 1.184-.69 1.899-1.847 2.096-3.399.099-.714.124-3.498.074-6.207-.074-4.409-.123-5-.591-5.887-.962-1.823-1.48-1.97-7.252-2.02-3.921-.049-5.278 0-6.042.296Zm8.829 3.547c.37.296.42.985.42 5.172 0 3.449-.074 4.927-.296 5.148-.42.42-6.142.42-6.561 0-.222-.221-.296-1.7-.296-5.148 0-6.01-.197-5.714 3.724-5.59 1.751.048 2.738.196 3.009.418ZM133.677 33.037c-2.071 1.084-2.096 1.109-2.17 8.153-.074 6.06-.049 6.232.493 7.316 1.012 1.97 1.48 2.094 7.597 2.094 4.859 0 5.377-.05 6.141-.493.469-.271 1.061-.813 1.357-1.182.493-.665.518-1.06.592-6.774.098-6.601-.025-7.439-1.11-8.473-1.135-1.035-2.023-1.182-7.079-1.182-4.415 0-4.809.024-5.821.541Zm9.274 3.498c.543.739.493 9.557-.049 10.099-.296.32-.987.394-3.305.394-3.872 0-3.7.246-3.7-5.345 0-4.384.148-5.37.913-5.567.246-.074 1.652-.123 3.107-.098 2.344.049 2.713.098 3.034.517Z"/><path fill="#FAF9F6" d="M37.488 41.611v8.867h4.686V36.192h6.166v14.286H53.027V32.744H37.488v8.867ZM75.723 41.61v8.892l6.363-.074c5.82-.074 6.413-.123 7.177-.566 1.48-.863 1.875-1.65 1.949-3.892.098-2.365-.321-3.4-1.752-4.335l-.887-.591.616-.468c.937-.764 1.332-1.75 1.332-3.449 0-1.872-.543-3.054-1.751-3.769-.765-.443-1.357-.492-6.93-.566l-6.117-.074v8.892Zm10.013-4.828c.444.616.444 1.897 0 2.513-.32.418-.666.468-2.91.468h-2.54l-.075-1.454c-.123-2.216-.172-2.167 2.689-2.069 2.121.05 2.54.148 2.836.542Zm.592 7.045c.592.591.641 1.896.074 2.512-.345.37-.79.444-3.33.444h-2.91V45.23c0-.862.074-1.65.173-1.724.074-.099 1.356-.173 2.836-.173 2.343 0 2.713.05 3.157.493ZM113.453 41.587v8.891h4.44v-5.172h3.946c4.242 0 5.105-.172 6.067-1.256.839-.96 1.085-2.094 1.085-5.124 0-2.487-.074-3.03-.542-3.965-1.036-1.995-1.357-2.094-8.633-2.168l-6.363-.074v8.868Zm10.532-4.754c.567.566.616.763.518 2.488-.124 2.463-.222 2.537-3.823 2.537h-2.787v-5.666h2.713c2.614 0 2.762.025 3.379.64ZM149.707 34.468v1.7l2.664.074 2.639.073.074 7.07.049 7.093h4.44l.049-7.093.074-7.07 2.664-.073 2.639-.074v-3.424h-15.292v1.724Z"/></svg>