<svg width="158" height="44" viewBox="0 0 158 44" fill="none" xmlns="http://www.w3.org/2000/svg">
<path d="M8.955 43.857C8.594 43.857 8.24 43.857 7.883 43.844C7.14202 43.836 6.40253 43.7759 5.67 43.664C4.99058 43.5513 4.33063 43.3426 3.71 43.044C3.10165 42.75 2.54347 42.3619 2.056 41.894C1.56898 41.4375 1.16081 40.9037 0.848 40.314C0.535951 39.727 0.319245 39.0941 0.206 38.439C0.087 37.739 0.0239999 37.029 0.0179999 36.319C0.0179999 36.079 0 35.286 0 35.286V8.557C0 8.557 0.00999989 7.776 0.0179999 7.546C0.0249999 6.836 0.088 6.129 0.206 5.429C0.319 4.774 0.536 4.139 0.849 3.548C1.1607 2.95834 1.56672 2.42362 2.051 1.965C2.54055 1.49481 3.0994 1.10257 3.708 0.802C4.32759 0.506213 4.98677 0.301756 5.665 0.195C6.39972 0.0817658 7.14164 0.02161 7.885 0.015L8.956 0H148.838L149.919 0.015C150.656 0.022 151.392 0.0820001 152.119 0.195C152.804 0.30646 153.471 0.515234 154.097 0.815C155.312 1.40766 156.311 2.3649 156.955 3.553C157.264 4.14 157.478 4.769 157.588 5.418C157.711 6.124 157.78 6.838 157.795 7.553V36.327C157.781 37.0304 157.713 37.7317 157.594 38.425C157.482 39.0841 157.266 39.7214 156.954 40.313C156.639 40.8965 156.233 41.4261 155.751 41.882C155.264 42.3523 154.705 42.7422 154.095 43.037C153.473 43.338 152.808 43.548 152.121 43.661C151.389 43.773 150.649 43.833 149.908 43.841C149.562 43.841 149.199 43.853 148.846 43.853H8.955V43.857Z" fill="#212121"/>
<path d="M58.2562 29.9861H52.7072L51.3502 33.5351H48.9062L54.3382 20.2861H56.6442L62.2022 33.5351H59.6432L58.2562 29.9861ZM53.4062 28.1891H57.5432L56.0602 24.3941C55.8572 23.8721 55.6562 23.2931 55.4582 22.6581C55.2782 23.2181 55.0852 23.7911 54.8752 24.3761L53.4062 28.1891ZM63.3082 26.0831C63.3082 25.3531 63.2832 24.5471 63.2332 23.6681H65.4512C65.5342 24.0841 65.5912 24.5041 65.6242 24.9261C66.5422 23.9671 67.5942 23.4881 68.7812 23.4881C70.2292 23.4661 71.5472 24.2851 72.1142 25.5581C72.4752 26.2771 72.6562 27.1871 72.6562 28.2881C72.6846 29.3071 72.4725 30.3184 72.0373 31.2401C71.6624 32.0188 71.0607 32.6659 70.3112 33.0961C69.5332 33.5261 68.6462 33.7461 67.7472 33.7291C67.0441 33.7275 66.3459 33.6127 65.6792 33.3891V37.4571L63.3153 37.6491L63.3082 26.0831ZM69.5223 31.1251C70.0023 30.5071 70.2443 29.6031 70.2443 28.4131C70.2443 27.3101 70.0443 26.5111 69.6463 26.0151C69.4585 25.7738 69.2163 25.5803 68.9394 25.4506C68.6625 25.321 68.3588 25.2588 68.0532 25.2691C67.6098 25.2653 67.1723 25.3718 66.7802 25.5791C66.3702 25.8031 65.9962 26.0841 65.6712 26.4121V31.6961C65.9342 31.8141 66.2113 31.9021 66.4953 31.9561C66.7993 32.0201 67.1102 32.0521 67.4212 32.0521C68.3412 32.0521 69.0423 31.7431 69.5223 31.1251ZM74.1642 26.0831C74.1642 25.3531 74.1382 24.5471 74.0872 23.6681H76.3072C76.3902 24.0841 76.4472 24.5041 76.4782 24.9261C77.3982 23.9671 78.4503 23.4881 79.6353 23.4881C81.0843 23.4651 82.4032 24.2841 82.9702 25.5581C83.3293 26.2771 83.5093 27.1871 83.5103 28.2881C83.5392 29.3069 83.3279 30.3182 82.8932 31.2401C82.5177 32.019 81.9153 32.666 81.1652 33.0961C80.3882 33.5271 79.5012 33.7461 78.6032 33.7291C77.8998 33.7276 77.2012 33.6128 76.5342 33.3891V37.4571L74.1642 37.6571V26.0831ZM80.3782 31.1251C80.8582 30.5071 81.0992 29.6031 81.0992 28.4131C81.0992 27.3101 80.9002 26.5111 80.5022 26.0151C80.3145 25.7738 80.0723 25.5803 79.7954 25.4506C79.5185 25.321 79.2148 25.2588 78.9092 25.2691C78.4657 25.2651 78.0282 25.3717 77.6362 25.5791C77.2277 25.8009 76.8541 26.0816 76.5272 26.4121V31.6961C76.7892 31.8141 77.0652 31.9021 77.3492 31.9561C77.6542 32.0201 77.9652 32.0521 78.2772 32.0521C79.2002 32.0521 79.9012 31.7431 80.3812 31.1251H80.3782ZM87.9712 32.9071C86.9714 32.3886 86.1511 31.5808 85.6172 30.5891C85.0702 29.5831 84.7962 28.3951 84.7962 27.0241C84.7962 25.5371 85.1092 24.2741 85.7362 23.2341C86.3455 22.2177 87.2427 21.4051 88.3143 20.8991C89.4589 20.3655 90.7095 20.0981 91.9722 20.1171C93.4593 20.1114 94.9294 20.433 96.2782 21.0591L95.6743 22.7961C94.5513 22.2547 93.3247 21.962 92.0783 21.9381C91.1984 21.918 90.3278 22.1206 89.5472 22.5271C88.8214 22.9206 88.2316 23.5243 87.8553 24.2591C87.4324 25.117 87.2258 26.0652 87.2532 27.0211C87.2372 27.8801 87.3932 28.7341 87.7163 29.5361C88.0063 30.2461 88.5182 30.8521 89.1802 31.2741C89.8462 31.6991 90.6862 31.9131 91.7002 31.9141C92.1618 31.9142 92.6226 31.8774 93.0783 31.8041C93.5182 31.7361 93.9503 31.6291 94.3703 31.4841V28.7981H91.1732V27.0351H96.6732V32.6051C95.8752 32.9611 95.0402 33.2341 94.1822 33.4201C93.3292 33.6061 92.4582 33.7001 91.5832 33.7021C90.3323 33.7368 89.092 33.4638 87.9712 32.9071ZM105.186 33.5351C105.097 33.1038 105.043 32.6661 105.024 32.2261C104.628 32.6651 104.145 33.0241 103.603 33.2831C102.987 33.5793 102.311 33.7276 101.627 33.7161C101.07 33.7232 100.517 33.6099 100.007 33.3841C99.5288 33.1704 99.1242 32.8201 98.8442 32.3771C98.5458 31.8835 98.3975 31.3136 98.4172 30.7371C98.402 30.2967 98.4923 29.859 98.6805 29.4605C98.8687 29.0619 99.1494 28.7142 99.4992 28.4461C100.219 27.8761 101.421 27.5921 103.105 27.5901C103.734 27.5901 104.362 27.6331 104.985 27.7201V27.5281C104.985 26.6561 104.791 26.0411 104.402 25.6841C104.013 25.3271 103.455 25.1471 102.727 25.1441C102.182 25.1498 101.639 25.2207 101.11 25.3551C100.593 25.4771 100.09 25.6451 99.6063 25.8581L99.2303 24.2121C99.7684 23.9931 100.326 23.8247 100.895 23.7091C101.612 23.5537 102.343 23.4772 103.076 23.4811C103.853 23.4606 104.626 23.5925 105.351 23.8691C105.987 24.1381 106.505 24.6091 106.816 25.2041C107.167 25.8341 107.342 26.6841 107.342 27.7501V31.6731C107.342 32.0811 107.367 32.6991 107.42 33.5291L105.186 33.5351ZM103.776 31.7071C104.229 31.5087 104.638 31.2233 104.981 30.8671V29.0341C104.458 28.9749 103.931 28.9415 103.404 28.9341C102.428 28.9341 101.754 29.0841 101.381 29.3861C101.198 29.5308 101.051 29.7166 100.953 29.9286C100.855 30.1406 100.809 30.3727 100.817 30.6061C100.817 31.0961 100.952 31.4551 101.223 31.6851C101.53 31.9351 101.925 32.0631 102.328 32.0441C102.83 32.0379 103.324 31.9235 103.776 31.7071ZM109.401 31.1681V19.5081L111.755 19.3281V30.7661C111.755 31.1861 111.83 31.4861 111.979 31.6641C112.072 31.7572 112.184 31.8287 112.307 31.8737C112.431 31.9186 112.562 31.9358 112.693 31.9241C112.903 31.9141 113.112 31.8811 113.313 31.8241L113.593 33.4411C113.328 33.5362 113.053 33.6049 112.774 33.6461C112.472 33.6961 112.167 33.7221 111.86 33.7231C110.221 33.7181 109.401 32.8671 109.401 31.1681ZM115.286 31.1681V19.5081L117.638 19.3281V30.7661C117.638 31.1861 117.713 31.4861 117.864 31.6641C117.956 31.7573 118.068 31.8289 118.191 31.8738C118.314 31.9188 118.446 31.9359 118.576 31.9241C118.787 31.9141 118.996 31.8811 119.199 31.8241L119.475 33.4411C119.21 33.5364 118.936 33.6051 118.657 33.6461C118.355 33.6961 118.05 33.7221 117.743 33.7231C116.103 33.7181 115.285 32.8671 115.286 31.1681ZM129.272 28.8901H122.517C122.627 30.9561 123.657 31.9901 125.608 31.9901C126.108 31.9871 126.608 31.9301 127.095 31.8201C127.595 31.7101 128.082 31.5581 128.555 31.3681L129.071 32.9131C127.848 33.463 126.519 33.7371 125.178 33.7161C124.081 33.7161 123.156 33.5181 122.402 33.1231C121.672 32.7455 121.08 32.1471 120.71 31.4131C120.31 30.5722 120.117 29.6479 120.146 28.7171C120.12 27.7439 120.326 26.7785 120.748 25.9011C121.119 25.1504 121.703 24.5257 122.427 24.1051C123.184 23.6803 124.041 23.4655 124.909 23.4831C125.884 23.4831 126.699 23.7011 127.353 24.1371C127.998 24.5624 128.503 25.1679 128.806 25.8781C129.129 26.6451 129.287 27.4661 129.272 28.2931V28.8901ZM126.966 27.4521C126.922 26.6651 126.714 26.0761 126.346 25.6821C126.155 25.4845 125.923 25.3297 125.668 25.228C125.412 25.1263 125.137 25.08 124.862 25.0921C124.584 25.0832 124.307 25.1315 124.048 25.234C123.79 25.3365 123.555 25.4911 123.358 25.6881C122.958 26.0831 122.698 26.6711 122.578 27.4521H126.966ZM131.176 26.1461C131.176 25.6031 131.15 24.7771 131.1 23.6681H133.31C133.349 23.9431 133.384 24.2701 133.42 24.6511C133.456 25.0311 133.478 25.3431 133.491 25.5801C133.729 25.1951 133.999 24.8301 134.3 24.4871C134.56 24.1951 134.874 23.9521 135.227 23.7691C135.599 23.5781 136.016 23.4821 136.437 23.4901C136.755 23.4841 137.071 23.5201 137.377 23.6001L137.081 25.5561C136.832 25.486 136.574 25.4523 136.315 25.4561C135.801 25.4445 135.294 25.5858 134.86 25.8621C134.347 26.2325 133.898 26.6848 133.531 27.2011V33.5381H131.175V26.1461H131.176ZM138.792 37.5701C138.505 37.5253 138.22 37.4598 137.942 37.3741L138.37 35.7291C138.53 35.7691 138.731 35.8111 138.974 35.8511C139.201 35.8901 139.431 35.9101 139.662 35.9111C140.707 35.9111 141.492 35.2691 142.016 33.9821L142.168 33.6221L138.361 23.6751H140.897L142.809 29.2351C143.059 29.9501 143.26 30.6801 143.413 31.4201C143.591 30.7001 143.802 29.9881 144.045 29.2801L145.985 23.6681H148.365L144.569 33.6621C144.283 34.4706 143.894 35.2389 143.411 35.9481C143.041 36.4871 142.536 36.9301 141.943 37.2361C141.303 37.5321 140.604 37.6758 139.899 37.6561C139.529 37.6579 139.158 37.6291 138.792 37.5701Z" fill="white"/>
<path fill-rule="evenodd" clip-rule="evenodd" d="M31.3627 7.3457H18.0137C11.7267 7.3457 9.42969 9.5427 9.42969 15.5497V28.3077C9.42969 34.3147 11.7267 36.5127 18.0137 36.5127H31.3637C37.6487 36.5127 39.9517 34.3147 39.9517 28.3077V15.5497C39.9457 9.5427 37.6487 7.3457 31.3627 7.3457Z" fill="#C8102E"/>
<path d="M15.4758 21.9278H16.2858V25.7407H15.4758V24.1908H13.6488V25.7407H12.8398V21.9278H13.6488V23.4658H15.4758V21.9278ZM20.0368 24.1108C20.0368 24.7308 19.7138 25.0607 19.1288 25.0607C18.5438 25.0607 18.2168 24.7208 18.2168 24.0838V21.9278H17.4088V24.1087C17.4088 25.1867 18.0308 25.7957 19.1188 25.7957C20.2088 25.7957 20.8458 25.1687 20.8458 24.0757V21.9208H20.0368V24.1108ZM29.3908 24.5488L28.4868 21.9278H27.8248L26.9188 24.5488L26.0328 21.9288H25.1698L26.5608 25.7407H27.2308L28.1388 23.2378L29.0448 25.7407H29.7218L31.1088 21.9297H30.2708L29.3908 24.5488ZM32.5648 24.0998H34.0368V23.4067H32.5648V22.6248H34.7018V21.9308H31.7658V25.7388H34.7738V25.0438H32.5638L32.5648 24.0998ZM35.7438 25.7347H36.5428V21.9278H35.7438V25.7347ZM22.4458 24.9448L22.0848 25.7388H21.2568L23.0148 21.9278H23.7298L25.4798 25.7378H24.6318L24.2728 24.9448H22.4458ZM22.7458 24.2578H23.9648L23.3498 22.8928L22.7458 24.2578ZM24.6908 17.0738C21.8868 17.0738 19.6138 14.9018 19.6138 12.2228H20.3318C20.2998 13.7328 21.1238 15.1407 22.4858 15.9047C23.1607 16.2805 23.9204 16.4777 24.6928 16.4777C25.4653 16.4777 26.2249 16.2805 26.8998 15.9047C28.2628 15.1407 29.0868 13.7318 29.0538 12.2228H29.7728C29.7701 12.8659 29.6365 13.5018 29.3804 14.0918C29.1243 14.6818 28.7508 15.2135 28.2828 15.6547C27.3123 16.5718 26.0261 17.0793 24.6908 17.0738ZM50.2148 15.2538C49.727 14.992 49.3281 14.591 49.0688 14.1018C48.7951 13.5684 48.6587 12.9751 48.6718 12.3758C48.6576 11.747 48.8032 11.1249 49.0948 10.5677C49.372 10.0564 49.7963 9.64008 50.3128 9.37275C50.895 9.07874 51.5409 8.93374 52.1928 8.95075C52.8111 8.93447 53.4234 9.07482 53.9728 9.35875C54.4628 9.62475 54.8568 10.0238 55.1078 10.5048C55.3778 11.0388 55.5118 11.6277 55.4978 12.2207C55.5134 12.8561 55.3668 13.4848 55.0718 14.0478C54.7953 14.5583 54.3731 14.975 53.8588 15.2448C53.2888 15.5347 52.6488 15.6807 52.0018 15.6648C51.381 15.6826 50.7658 15.5405 50.2148 15.2538ZM53.2748 14.4578C53.6068 14.2428 53.8658 13.9378 54.0168 13.5808C54.1868 13.1768 54.2698 12.7428 54.2608 12.3068C54.2708 11.8768 54.1978 11.4488 54.0468 11.0437C53.9101 10.6871 53.668 10.3805 53.3528 10.1648C52.9863 9.93412 52.5585 9.8201 52.1258 9.83775C51.6954 9.82445 51.2708 9.94043 50.9068 10.1708C50.5735 10.3898 50.3119 10.7021 50.1548 11.0688C49.9848 11.4588 49.9028 11.8788 49.9108 12.3018C49.9018 12.7318 49.9808 13.1578 50.1408 13.5598C50.2848 13.9158 50.5358 14.2228 50.8618 14.4438C51.2223 14.6694 51.6418 14.7826 52.0668 14.7688C52.4928 14.7838 52.9138 14.6758 53.2738 14.4588L53.2748 14.4578ZM57.8918 9.98375H55.7728L55.8768 9.04075H61.1918L61.0828 9.98375H59.0728V15.5757H57.8918V9.98375ZM67.5518 15.5747H66.2208L64.1868 12.7008H63.3778V15.5757H62.1988V9.04075H63.3788V11.7358H63.9968L65.4138 9.78575C65.5778 9.53775 65.7898 9.32275 66.0388 9.15175C66.2768 9.01175 66.5528 8.94175 66.8318 8.95075C67.0748 8.94675 67.3158 8.99075 67.5408 9.07575L67.2928 9.96575C67.1735 9.91657 67.0459 9.89044 66.9168 9.88875C66.7908 9.88522 66.6666 9.9201 66.5608 9.98875C66.4466 10.0754 66.3476 10.1805 66.2678 10.2998L65.0078 12.0138L67.5518 15.5747ZM68.4548 9.04075H70.2948C71.1608 9.04075 71.8238 9.20875 72.2828 9.54675C72.7408 9.88475 72.9708 10.3718 72.9728 11.0078C72.9808 11.4068 72.8728 11.7998 72.6608 12.1438C72.451 12.4698 72.1513 12.7282 71.7978 12.8878C71.4008 13.0668 70.9668 13.1557 70.5278 13.1477C70.2271 13.144 69.9272 13.1135 69.6318 13.0568V15.5717H68.4508L68.4548 9.04075ZM71.4138 11.9588C71.6738 11.7188 71.8118 11.3808 71.7898 11.0347C71.7898 10.6328 71.6618 10.3408 71.4138 10.1648C71.0727 9.96567 70.68 9.87272 70.2858 9.89775H69.6448V12.2178C69.8688 12.2558 70.0948 12.2778 70.3238 12.2858C70.7168 12.3098 71.1058 12.1928 71.4138 11.9588ZM75.2438 15.2538C74.7553 14.9926 74.3559 14.5915 74.0968 14.1018C73.8231 13.5684 73.6867 12.9751 73.6998 12.3758C73.6859 11.7473 73.8307 11.1254 74.1208 10.5677C74.3982 10.0563 74.8229 9.63991 75.3398 9.37275C75.922 9.0789 76.5679 8.93391 77.2198 8.95075C77.8374 8.93459 78.4491 9.07495 78.9978 9.35875C79.4878 9.62375 79.8839 10.0228 80.1339 10.5048C80.4049 11.0388 80.5398 11.6267 80.5268 12.2207C80.5421 12.8561 80.3951 13.4849 80.0998 14.0478C79.8216 14.5583 79.3976 14.9743 78.8818 15.2428C78.3108 15.5328 77.6719 15.6788 77.0238 15.6628C76.4054 15.6797 75.7928 15.539 75.2438 15.2538ZM78.3008 14.4578C78.6378 14.2428 78.9008 13.9368 79.0528 13.5778C79.2208 13.1718 79.3008 12.7378 79.2898 12.3018C79.2974 11.8724 79.2234 11.4455 79.0718 11.0437C78.9351 10.6871 78.693 10.3805 78.3778 10.1648C78.0114 9.93322 77.5829 9.81913 77.1498 9.83775C76.7204 9.82493 76.2969 9.9409 75.9338 10.1708C75.6011 10.3905 75.3397 10.7026 75.1818 11.0688C75.0118 11.4588 74.9258 11.8788 74.9318 12.3018C74.9258 12.7318 75.0058 13.1588 75.1688 13.5598C75.3118 13.9158 75.5628 14.2238 75.8908 14.4438C76.2468 14.6688 76.6669 14.7828 77.0938 14.7688C77.5199 14.7838 77.9398 14.6748 78.3008 14.4588V14.4578ZM86.5378 15.5757V11.9818C86.5378 11.5298 86.5548 11.0118 86.5878 10.4298L83.1588 15.5747H81.8419V9.03975H82.9378V12.7718C82.9378 13.1778 82.9248 13.6217 82.8948 14.1027L86.2788 9.03975H87.6348V15.5747H86.5388L86.5378 15.5757ZM83.8738 8.47275C83.6463 8.36279 83.4518 8.19482 83.3098 7.98575C83.1805 7.79277 83.0954 7.57351 83.0608 7.34375H83.9109C84.0008 7.82575 84.2988 8.06275 84.7988 8.06275C85.2988 8.06275 85.5958 7.82275 85.6918 7.34375H86.5448C86.5108 7.57375 86.4249 7.79375 86.2928 7.98875C86.1528 8.19575 85.9588 8.36375 85.7288 8.47575C85.4368 8.60052 85.1225 8.66485 84.8048 8.66485C84.4872 8.66485 84.1729 8.60052 83.8808 8.47575L83.8738 8.47275ZM90.7528 9.98375H88.6418L88.7449 9.04075H94.0658L93.9568 9.98375H91.9338V15.5757H90.7528V9.98375ZM95.0588 9.04075H99.0858L98.9828 9.96575H96.2388V11.7628H98.8168V12.6318H96.2388V14.6378H99.1199L99.0198 15.5778H95.0588V9.04075ZM107.351 12.3468C107.595 12.4841 107.797 12.6853 107.936 12.9287C108.074 13.1722 108.144 13.4487 108.137 13.7288C108.144 14.0698 108.044 14.4058 107.851 14.6938C107.645 14.9838 107.355 15.2088 107.016 15.3418C106.597 15.5063 106.15 15.5859 105.7 15.5757H103.469V9.04075H105.602C106.326 9.04075 106.868 9.17475 107.231 9.44275C107.59 9.70275 107.793 10.1138 107.774 10.5448C107.786 10.8978 107.662 11.2438 107.426 11.5168C107.187 11.7808 106.871 11.9718 106.518 12.0648C106.813 12.1038 107.096 12.1998 107.351 12.3468ZM104.623 11.7118H105.36C105.585 11.7168 105.808 11.6688 106.009 11.5718C106.187 11.4878 106.337 11.3568 106.441 11.1947C106.541 11.0397 106.593 10.8584 106.591 10.6737C106.598 10.556 106.573 10.4385 106.52 10.3332C106.467 10.2278 106.388 10.1383 106.289 10.0738C106.019 9.92617 105.714 9.85755 105.407 9.87575H104.623V11.7118ZM106.601 14.4578C106.835 14.2458 106.964 13.9498 106.957 13.6418C106.952 13.4878 106.915 13.3366 106.847 13.1984C106.779 13.0602 106.682 12.9382 106.563 12.8408C106.218 12.6302 105.816 12.531 105.413 12.5568H104.623V14.7488H105.51C105.997 14.7428 106.36 14.6458 106.6 14.4588L106.601 14.4578Z" fill="white"/>
</svg>
