<svg width="158" height="42" viewBox="0 0 158 42" fill="none" xmlns="http://www.w3.org/2000/svg">
<g id="app-store">
<path id="Vector" d="M157.123 37.1568C157.123 39.3951 155.112 41.2081 152.624 41.2081H5.38404C2.89736 41.2081 0.878906 39.3951 0.878906 37.1568V4.8495C0.878906 2.61232 2.89736 0.792969 5.38404 0.792969H152.623C155.112 0.792969 157.122 2.61232 157.122 4.8495L157.123 37.1568Z" fill="#212121"/>
<g id="Group">
<g id="Group_2">
<g id="Vector_2">
<path d="M30.2623 20.7727C30.2301 17.3885 33.1946 15.7421 33.3301 15.6655C31.6512 13.3523 29.049 13.0363 28.1346 13.0111C25.949 12.7937 23.829 14.2469 22.7157 14.2469C21.5801 14.2469 19.8657 13.0321 18.0179 13.0678C15.6401 13.1024 13.4157 14.4034 12.1957 16.4236C9.67788 20.5427 11.5557 26.596 13.9679 29.9255C15.1746 31.5562 16.5846 33.3769 18.4301 33.3128C20.2357 33.2425 20.9101 32.225 23.089 32.225C25.2479 32.225 25.8812 33.3128 27.7634 33.2719C29.7012 33.2425 30.9212 31.6339 32.0857 29.9885C33.4801 28.1195 34.0401 26.2789 34.0623 26.1844C34.0168 26.1697 30.299 24.8288 30.2623 20.7727Z" fill="#FAF9F6"/>
<path d="M26.7068 10.8208C27.6779 9.67314 28.3423 8.11179 28.1579 6.52734C26.7523 6.58614 24.9946 7.44609 23.9823 8.56854C23.0868 9.55764 22.2868 11.1788 22.4934 12.7034C24.0723 12.8147 25.6934 11.9506 26.7068 10.8208Z" fill="#FAF9F6"/>
</g>
</g>
</g>
<g id="Group_3">
<path id="Vector_3" d="M56.3896 33.0789H53.8662L52.484 28.9744H47.6796L46.3629 33.0789H43.9062L48.6662 19.1055H51.6062L56.3896 33.0789ZM52.0674 27.2524L50.8174 23.6037C50.6851 23.2309 50.4374 22.3531 50.0718 20.9713H50.0274C49.8818 21.5656 49.6474 22.4434 49.3251 23.6037L48.0974 27.2524H52.0674Z" fill="#FAF9F6"/>
<path id="Vector_4" d="M68.6311 27.9177C68.6311 29.6313 68.1411 30.9858 67.1611 31.9802C66.2833 32.8653 65.1933 33.3074 63.8922 33.3074C62.4877 33.3074 61.4788 32.8307 60.8644 31.8773H60.8199V37.185H58.4511V26.3207C58.4511 25.2434 58.4211 24.1377 58.3633 23.0037H60.4466L60.5788 24.6008H60.6233C61.4133 23.3975 62.6122 22.7969 64.2211 22.7969C65.4788 22.7969 66.5288 23.2662 67.3688 24.206C68.2111 25.1468 68.6311 26.3837 68.6311 27.9177ZM66.2177 27.9996C66.2177 27.0189 65.9844 26.2104 65.5155 25.5741C65.0033 24.9105 64.3155 24.5787 63.4533 24.5787C62.8688 24.5787 62.3377 24.7635 61.8633 25.1279C61.3877 25.4954 61.0766 25.9752 60.9311 26.5695C60.8577 26.8467 60.8211 27.0735 60.8211 27.252V28.932C60.8211 29.6649 61.0588 30.2834 61.5344 30.7884C62.0099 31.2935 62.6277 31.5455 63.3877 31.5455C64.2799 31.5455 64.9744 31.22 65.4711 30.5711C65.9688 29.9211 66.2177 29.0643 66.2177 27.9996Z" fill="#FAF9F6"/>
<path id="Vector_5" d="M80.8917 27.9177C80.8917 29.6313 80.4017 30.9858 79.4206 31.9802C78.5439 32.8653 77.4539 33.3074 76.1528 33.3074C74.7483 33.3074 73.7394 32.8307 73.1261 31.8773H73.0817V37.185H70.7128V26.3207C70.7128 25.2434 70.6828 24.1377 70.625 23.0037H72.7083L72.8406 24.6008H72.885C73.6739 23.3975 74.8728 22.7969 76.4828 22.7969C77.7394 22.7969 78.7894 23.2662 79.6317 24.206C80.4706 25.1468 80.8917 26.3837 80.8917 27.9177ZM78.4783 27.9996C78.4783 27.0189 78.2439 26.2104 77.775 25.5741C77.2628 24.9105 76.5772 24.5787 75.7139 24.5787C75.1283 24.5787 74.5983 24.7635 74.1228 25.1279C73.6472 25.4954 73.3372 25.9752 73.1917 26.5695C73.1194 26.8467 73.0817 27.0735 73.0817 27.252V28.932C73.0817 29.6649 73.3194 30.2834 73.7928 30.7884C74.2683 31.2924 74.8861 31.5455 75.6483 31.5455C76.5406 31.5455 77.235 31.22 77.7317 30.5711C78.2295 29.9211 78.4783 29.0643 78.4783 27.9996Z" fill="#FAF9F6"/>
<path id="Vector_6" d="M94.6069 29.1599C94.6069 30.3485 94.1703 31.3156 93.2936 32.0621C92.3303 32.878 90.9892 33.2854 89.2658 33.2854C87.6747 33.2854 86.3991 32.9956 85.4336 32.4149L85.9825 30.5491C87.0225 31.1434 88.1636 31.4416 89.4069 31.4416C90.2992 31.4416 90.9936 31.2505 91.4925 30.8704C91.9892 30.4903 92.2369 29.98 92.2369 29.3437C92.2369 28.7767 92.0325 28.2989 91.6225 27.9115C91.2147 27.524 90.5336 27.1639 89.5825 26.831C86.9936 25.9186 85.7003 24.5819 85.7003 22.8242C85.7003 21.6755 86.1536 20.7337 87.0614 20.0008C87.9658 19.2668 89.1725 18.9004 90.6814 18.9004C92.0269 18.9004 93.1447 19.1219 94.0369 19.564L93.4447 21.3889C92.6114 20.9605 91.6691 20.7463 90.6147 20.7463C89.7814 20.7463 89.1303 20.9405 88.6636 21.3269C88.2692 21.6724 88.0714 22.0934 88.0714 22.5922C88.0714 23.1445 88.2969 23.6012 88.7503 23.9603C89.1447 24.2921 89.8614 24.6512 90.9014 25.0387C92.1736 25.5227 93.108 26.0887 93.7092 26.7376C94.308 27.3844 94.6069 28.1939 94.6069 29.1599Z" fill="#FAF9F6"/>
<path id="Vector_7" d="M102.435 24.6827H99.8236V29.5747C99.8236 30.8189 100.284 31.4405 101.206 31.4405C101.629 31.4405 101.98 31.4059 102.258 31.3366L102.324 33.0365C101.857 33.2014 101.243 33.2843 100.481 33.2843C99.5458 33.2843 98.8147 33.0145 98.287 32.4758C97.7614 31.9361 97.497 31.031 97.497 29.7595V24.6806H95.9414V23.0006H97.497V21.1558L99.8236 20.4922V23.0006H102.435V24.6827Z" fill="#FAF9F6"/>
<path id="Vector_8" d="M114.221 27.9576C114.221 29.5064 113.752 30.7779 112.816 31.7723C111.835 32.796 110.533 33.3063 108.91 33.3063C107.345 33.3063 106.1 32.816 105.171 31.8353C104.242 30.8546 103.777 29.6166 103.777 28.1246C103.777 26.5632 104.255 25.2843 105.214 24.29C106.171 23.2946 107.462 22.7969 109.085 22.7969C110.65 22.7969 111.908 23.2872 112.858 24.269C113.767 25.2213 114.221 26.4509 114.221 27.9576ZM111.763 28.0301C111.763 27.1008 111.553 26.3039 111.127 25.6392C110.631 24.8349 109.921 24.4338 109.001 24.4338C108.048 24.4338 107.325 24.836 106.828 25.6392C106.403 26.3049 106.193 27.1145 106.193 28.0721C106.193 29.0013 106.403 29.7983 106.828 30.4619C107.341 31.2662 108.056 31.6673 108.98 31.6673C109.884 31.6673 110.594 31.2578 111.106 30.4409C111.543 29.7636 111.763 28.9583 111.763 28.0301Z" fill="#FAF9F6"/>
<path id="Vector_9" d="M121.915 24.9725C121.681 24.9315 121.431 24.9105 121.169 24.9105C120.335 24.9105 119.691 25.2077 119.238 25.803C118.843 26.328 118.645 26.9916 118.645 27.7928V33.0795H116.278L116.3 26.1768C116.3 25.0155 116.27 23.9582 116.211 23.0048H118.274L118.361 24.9326H118.427C118.677 24.27 119.071 23.7366 119.611 23.3366C120.139 22.9764 120.709 22.7969 121.323 22.7969C121.542 22.7969 121.74 22.8116 121.915 22.8378V24.9725Z" fill="#FAF9F6"/>
<path id="Vector_10" d="M132.515 27.5643C132.515 27.9654 132.487 28.3035 132.428 28.5796H125.321C125.349 29.575 125.692 30.3363 126.352 30.8613C126.951 31.3306 127.726 31.5658 128.677 31.5658C129.729 31.5658 130.689 31.4073 131.552 31.0891L131.923 32.6431C130.915 33.0589 129.723 33.2658 128.349 33.2658C126.696 33.2658 125.398 32.8059 124.454 31.8871C123.511 30.9684 123.039 29.7346 123.039 28.1869C123.039 26.6676 123.478 25.4023 124.357 24.3933C125.277 23.316 126.52 22.7773 128.085 22.7773C129.621 22.7773 130.785 23.316 131.575 24.3933C132.2 25.249 132.515 26.3074 132.515 27.5643ZM130.256 26.9836C130.271 26.32 130.117 25.7467 129.796 25.2627C129.386 24.64 128.756 24.3292 127.908 24.3292C127.134 24.3292 126.504 24.6327 126.022 25.2417C125.628 25.7257 125.394 26.3064 125.321 26.9826H130.256V26.9836Z" fill="#FAF9F6"/>
</g>
<g id="Group_4">
<g id="Group_5">
<path id="Vector_11" d="M51.2836 10.5106C51.2836 11.7465 50.8914 12.6768 50.1081 13.3015C49.3825 13.878 48.3514 14.1667 47.0158 14.1667C46.3536 14.1667 45.7869 14.1394 45.3125 14.0848V7.33225C45.9314 7.23775 46.5981 7.18945 47.3181 7.18945C48.5903 7.18945 49.5492 7.4509 50.1958 7.9738C50.9203 8.56495 51.2836 9.4102 51.2836 10.5106ZM50.0558 10.5411C50.0558 9.7399 49.8314 9.12565 49.3825 8.69725C48.9336 8.2699 48.2781 8.0557 47.4147 8.0557C47.0481 8.0557 46.7358 8.0788 46.4769 8.1271V13.2606C46.6203 13.2816 46.8825 13.291 47.2636 13.291C48.1547 13.291 48.8425 13.0569 49.327 12.5886C49.8114 12.1203 50.0558 11.4378 50.0558 10.5411Z" fill="#FAF9F6"/>
<path id="Vector_12" d="M57.7941 11.5894C57.7941 12.3506 57.5641 12.9743 57.1041 13.4636C56.6218 13.9666 55.983 14.2175 55.1852 14.2175C54.4163 14.2175 53.8041 13.9771 53.3474 13.4941C52.8918 13.0121 52.6641 12.4042 52.6641 11.6713C52.6641 10.9048 52.8985 10.2758 53.3696 9.78759C53.8407 9.29934 54.4741 9.05469 55.2718 9.05469C56.0407 9.05469 56.6585 9.29514 57.1263 9.77709C57.5707 10.2454 57.7941 10.8502 57.7941 11.5894ZM56.5863 11.6251C56.5863 11.1683 56.4818 10.7767 56.2741 10.4501C56.0296 10.0553 55.6818 9.85794 55.2296 9.85794C54.7618 9.85794 54.4063 10.0553 54.1618 10.4501C53.953 10.7767 53.8496 11.1746 53.8496 11.645C53.8496 12.1018 53.9541 12.4934 54.1618 12.82C54.4141 13.2148 54.7652 13.4122 55.2185 13.4122C55.663 13.4122 56.0118 13.2116 56.263 12.8095C56.4785 12.4766 56.5863 12.0818 56.5863 11.6251Z" fill="#FAF9F6"/>
<path id="Vector_13" d="M66.5225 9.15625L64.8836 14.106H63.8169L63.138 11.9566C62.9658 11.4201 62.8258 10.8867 62.7169 10.3575H62.6958C62.5947 10.9014 62.4547 11.4337 62.2747 11.9566L61.5536 14.106H60.4747L58.9336 9.15625H60.1303L60.7225 11.5093C60.8658 12.0658 60.9836 12.5961 61.078 13.098H61.0991C61.1858 12.6843 61.3291 12.1572 61.5314 11.5198L62.2747 9.1573H63.2236L63.9358 11.4694C64.108 12.0333 64.248 12.5761 64.3558 13.099H64.388C64.4669 12.5898 64.5858 12.0469 64.7436 11.4694L65.3791 9.1573H66.5225V9.15625Z" fill="#FAF9F6"/>
<path id="Vector_14" d="M72.5598 14.1064H71.3954V11.2714C71.3954 10.3978 71.0443 9.96098 70.3399 9.96098C69.9943 9.96098 69.7154 10.0807 69.4987 10.3211C69.2843 10.5616 69.1754 10.8451 69.1754 11.1695V14.1053H68.011V10.571C68.011 10.1363 67.9965 9.66488 67.9688 9.15458H68.9921L69.0465 9.92844H69.0787C69.2143 9.68799 69.4165 9.48953 69.6821 9.33098C69.9976 9.14618 70.351 9.05273 70.7376 9.05273C71.2265 9.05273 71.6332 9.20183 71.9565 9.50108C72.3587 9.86753 72.5598 10.4146 72.5598 11.1412V14.1064Z" fill="#FAF9F6"/>
<path id="Vector_15" d="M75.768 14.1056H74.6055V6.88477H75.768V14.1056Z" fill="#FAF9F6"/>
<path id="Vector_16" d="M82.6261 11.5894C82.6261 12.3506 82.3961 12.9743 81.9361 13.4636C81.4539 13.9666 80.8139 14.2175 80.0172 14.2175C79.2472 14.2175 78.635 13.9771 78.1794 13.4941C77.7239 13.0121 77.4961 12.4042 77.4961 11.6713C77.4961 10.9048 77.7305 10.2758 78.2017 9.78759C78.6728 9.29934 79.3061 9.05469 80.1028 9.05469C80.8728 9.05469 81.4894 9.29514 81.9583 9.77709C82.4028 10.2454 82.6261 10.8502 82.6261 11.5894ZM81.4172 11.6251C81.4172 11.1683 81.3128 10.7767 81.105 10.4501C80.8617 10.0553 80.5128 9.85794 80.0616 9.85794C79.5928 9.85794 79.2372 10.0553 78.9939 10.4501C78.785 10.7767 78.6817 11.1746 78.6817 11.645C78.6817 12.1018 78.7861 12.4934 78.9939 12.82C79.2461 13.2148 79.5972 13.4122 80.0505 13.4122C80.495 13.4122 80.8428 13.2116 81.0939 12.8095C81.3105 12.4766 81.4172 12.0818 81.4172 11.6251Z" fill="#FAF9F6"/>
<path id="Vector_17" d="M88.2599 14.1052H87.2146L87.128 13.535H87.0958C86.7381 13.9897 86.2282 14.2175 85.5661 14.2175C85.0718 14.2175 84.6719 14.0674 84.3708 13.7692C84.0976 13.4983 83.9609 13.1612 83.9609 12.7612C83.9609 12.1564 84.2275 11.6954 84.7641 11.3762C85.2995 11.057 86.0527 10.9006 87.0225 10.9079V10.8155C87.0225 10.1635 86.6603 9.83799 85.9349 9.83799C85.4184 9.83799 84.9629 9.96084 84.5697 10.2044L84.3331 9.48204C84.8196 9.19749 85.4206 9.05469 86.1293 9.05469C87.4979 9.05469 88.1844 9.73719 88.1844 11.1022V12.925C88.1844 13.4195 88.2099 13.8133 88.2599 14.1052ZM87.0513 12.4042V11.6408C85.7672 11.6198 85.1251 11.9527 85.1251 12.6383C85.1251 12.8966 85.1984 13.0898 85.3484 13.219C85.4984 13.3481 85.6894 13.4122 85.9171 13.4122C86.1726 13.4122 86.4115 13.3355 86.6292 13.1833C86.848 13.03 86.9825 12.8357 87.0324 12.5974C87.0447 12.5438 87.0513 12.4787 87.0513 12.4042Z" fill="#FAF9F6"/>
<path id="Vector_18" d="M94.875 14.1056H93.8417L93.7872 13.3108H93.755C93.425 13.9156 92.8628 14.218 92.0728 14.218C91.4417 14.218 90.9161 13.9838 90.4994 13.5155C90.0828 13.0472 89.875 12.4393 89.875 11.6927C89.875 10.8916 90.1006 10.2427 90.5539 9.74706C90.9928 9.28506 91.5305 9.05406 92.1705 9.05406C92.8739 9.05406 93.3661 9.27772 93.6461 9.72607H93.6683V6.88477H94.8339V12.7721C94.8339 13.2541 94.8472 13.6982 94.875 14.1056ZM93.6683 12.0182V11.1929C93.6683 11.0501 93.6572 10.9346 93.6361 10.8464C93.5705 10.5818 93.4294 10.3592 93.215 10.1797C92.9983 10.0001 92.7372 9.90982 92.4361 9.90982C92.0017 9.90982 91.6617 10.0726 91.4117 10.3991C91.1639 10.7257 91.0383 11.1425 91.0383 11.6518C91.0383 12.1411 91.1572 12.538 91.3961 12.8435C91.6483 13.169 91.9883 13.3318 92.4139 13.3318C92.7961 13.3318 93.1017 13.1963 93.3339 12.9244C93.5583 12.6734 93.6683 12.371 93.6683 12.0182Z" fill="#FAF9F6"/>
<path id="Vector_19" d="M104.833 11.5894C104.833 12.3506 104.603 12.9743 104.143 13.4636C103.661 13.9666 103.023 14.2175 102.224 14.2175C101.456 14.2175 100.844 13.9771 100.386 13.4941C99.9309 13.0121 99.7031 12.4042 99.7031 11.6713C99.7031 10.9048 99.9376 10.2758 100.409 9.78759C100.88 9.29934 101.513 9.05469 102.312 9.05469C103.08 9.05469 103.699 9.29514 104.165 9.77709C104.61 10.2454 104.833 10.8502 104.833 11.5894ZM103.626 11.6251C103.626 11.1683 103.522 10.7767 103.314 10.4501C103.069 10.0553 102.722 9.85794 102.269 9.85794C101.802 9.85794 101.446 10.0553 101.201 10.4501C100.992 10.7767 100.889 11.1746 100.889 11.645C100.889 12.1018 100.993 12.4934 101.201 12.82C101.453 13.2148 101.804 13.4122 102.258 13.4122C102.702 13.4122 103.052 13.2116 103.303 12.8095C103.518 12.4766 103.626 12.0818 103.626 11.6251Z" fill="#FAF9F6"/>
<path id="Vector_20" d="M111.098 14.1064H109.934V11.2714C109.934 10.3978 109.583 9.96098 108.878 9.96098C108.532 9.96098 108.253 10.0807 108.038 10.3211C107.822 10.5616 107.714 10.8451 107.714 11.1695V14.1053H106.549V10.571C106.549 10.1363 106.536 9.66488 106.508 9.15458H107.53L107.584 9.92844H107.617C107.753 9.68799 107.956 9.48953 108.22 9.33098C108.537 9.14618 108.889 9.05273 109.277 9.05273C109.764 9.05273 110.171 9.20183 110.494 9.50108C110.898 9.86753 111.098 10.4146 111.098 11.1412V14.1064Z" fill="#FAF9F6"/>
<path id="Vector_21" d="M118.931 9.98078H117.65V12.3853C117.65 12.9964 117.877 13.3019 118.328 13.3019C118.537 13.3019 118.71 13.2851 118.847 13.2505L118.877 14.0852C118.647 14.1671 118.345 14.2081 117.973 14.2081C117.513 14.2081 117.155 14.0758 116.896 13.8112C116.636 13.5466 116.508 13.1014 116.508 12.4766V9.98078H115.742V9.15653H116.508V8.24933L117.648 7.92383V9.15548H118.93V9.98078H118.931Z" fill="#FAF9F6"/>
<path id="Vector_22" d="M125.1 14.1056H123.934V11.2916C123.934 10.4044 123.583 9.96022 122.88 9.96022C122.34 9.96022 121.971 10.2175 121.769 10.732C121.734 10.8401 121.714 10.9724 121.714 11.1278V14.1046H120.551V6.88477H121.714V9.86782H121.736C122.103 9.32497 122.629 9.05407 123.31 9.05407C123.792 9.05407 124.191 9.20317 124.507 9.50242C124.902 9.87517 125.1 10.4296 125.1 11.1625V14.1056Z" fill="#FAF9F6"/>
<path id="Vector_23" d="M131.461 11.3959C131.461 11.5933 131.446 11.7592 131.418 11.8946H127.926C127.941 12.3839 128.108 12.7567 128.431 13.015C128.727 13.246 129.108 13.3615 129.575 13.3615C130.091 13.3615 130.562 13.2838 130.987 13.1273L131.169 13.8917C130.672 14.0954 130.088 14.1973 129.411 14.1973C128.6 14.1973 127.961 13.9715 127.499 13.52C127.035 13.0685 126.805 12.4627 126.805 11.7025C126.805 10.9559 127.019 10.3343 127.451 9.83872C127.902 9.30952 128.512 9.04492 129.282 9.04492C130.036 9.04492 130.608 9.30952 130.995 9.83872C131.307 10.2587 131.461 10.7785 131.461 11.3959ZM130.35 11.1113C130.359 10.7848 130.282 10.5034 130.125 10.2661C129.922 9.96052 129.615 9.80722 129.198 9.80722C128.818 9.80722 128.508 9.95632 128.271 10.2556C128.078 10.4939 127.964 10.7785 127.926 11.1113H130.35Z" fill="#FAF9F6"/>
</g>
</g>
</g>
</svg>
