<svg width="158" height="42" viewBox="0 0 158 42" fill="none" xmlns="http://www.w3.org/2000/svg">
<path d="M152.148 42H5.85186C2.63337 42 0 39.6375 0 36.75V5.25002C0 2.3625 2.63332 0 5.85186 0H152.148C155.367 0 158 2.3625 158 5.25002V36.75C158 39.6375 155.367 42 152.148 42Z" fill="#212121"/>
<path d="M112.101 31.4987H114.057V18.3725H112.101L112.101 31.4987ZM129.72 23.1009L127.477 28.7918H127.41L125.083 23.1008H122.976L126.466 31.0549L124.476 35.4793H126.517L131.895 23.1008L129.72 23.1009ZM118.626 30.0079C117.985 30.0079 117.092 29.6871 117.092 28.8931C117.092 27.8799 118.205 27.4915 119.165 27.4915C120.026 27.4915 120.429 27.6773 120.953 27.9309C120.801 29.1465 119.755 30.0079 118.626 30.0079ZM118.862 22.8137C117.446 22.8137 115.979 23.4387 115.372 24.8235L117.108 25.5495C117.479 24.8235 118.17 24.5868 118.896 24.5868C119.907 24.5868 120.936 25.1951 120.953 26.2759V26.4108C120.598 26.2081 119.84 25.9042 118.913 25.9042C117.041 25.9042 115.136 26.9341 115.136 28.8594C115.136 30.6157 116.67 31.7473 118.389 31.7473C119.705 31.7473 120.429 31.1562 120.885 30.464H120.953V31.477H122.841V26.4444C122.841 24.1143 121.105 22.8137 118.862 22.8137ZM106.773 24.6987H103.991V20.1994H106.773C108.236 20.1994 109.066 21.4122 109.066 22.449C109.066 23.4662 108.236 24.6987 106.773 24.6987ZM106.723 18.3725H102.036V31.4987H103.991V26.5256H106.723C108.891 26.5256 111.022 24.9535 111.022 22.449C111.022 19.9447 108.891 18.3725 106.723 18.3725ZM81.1641 30.0103C79.8128 30.0103 78.6814 28.877 78.6814 27.3205C78.6814 25.7476 79.8128 24.5971 81.1641 24.5971C82.4983 24.5971 83.5454 25.7476 83.5454 27.3205C83.5454 28.877 82.4983 30.0103 81.1641 30.0103ZM83.4102 23.8359H83.3426C82.9037 23.3116 82.0588 22.838 80.9951 22.838C78.7657 22.838 76.7224 24.8001 76.7224 27.3205C76.7224 29.8241 78.7657 31.7695 80.9951 31.7695C82.0588 31.7695 82.9037 31.2957 83.3426 30.7547H83.4102V31.3974C83.4102 33.1062 82.4983 34.0196 81.029 34.0196C79.8299 34.0196 79.0868 33.1566 78.7825 32.4294L77.0771 33.1398C77.5668 34.3239 78.8673 35.7788 81.029 35.7788C83.3258 35.7788 85.2681 34.4252 85.2681 31.1267V23.1086H83.4102V23.8359ZM86.619 31.4987H88.5781V18.372H86.619V31.4987ZM91.4661 27.1683C91.4154 25.4428 92.8003 24.5634 93.7966 24.5634C94.574 24.5634 95.2324 24.9522 95.4515 25.511L91.4661 27.1683ZM97.546 25.6798C97.1749 24.6815 96.0427 22.838 93.729 22.838C91.4322 22.838 89.524 24.6479 89.524 27.3037C89.524 29.8073 91.4154 31.7695 93.9485 31.7695C95.9924 31.7695 97.1749 30.5176 97.6645 29.7904L96.1444 28.7752C95.6381 29.5197 94.9452 30.0103 93.9485 30.0103C92.9522 30.0103 92.2431 29.5534 91.7868 28.6571L97.7483 26.1872L97.546 25.6798ZM50.0492 24.2082V26.1027H54.5752C54.4401 27.1683 54.0855 27.9464 53.545 28.4878C52.8865 29.1477 51.8563 29.875 50.0492 29.875C47.2625 29.875 45.084 27.6252 45.084 24.8341C45.084 22.043 47.2625 19.793 50.0492 19.793C51.5524 19.793 52.6498 20.3851 53.4606 21.1464L54.7948 19.8101C53.6634 18.7273 52.1601 17.8984 50.0492 17.8984C46.2322 17.8984 43.0234 21.0111 43.0234 24.8341C43.0234 28.6571 46.2322 31.7695 50.0492 31.7695C52.1097 31.7695 53.6634 31.0931 54.8791 29.8241C56.129 28.5723 56.5176 26.8132 56.5176 25.3924C56.5176 24.9522 56.4839 24.5466 56.416 24.2082H50.0492ZM61.6633 30.0103C60.3119 30.0103 59.1465 28.8938 59.1465 27.3037C59.1465 25.6966 60.3119 24.5971 61.6633 24.5971C63.0141 24.5971 64.1795 25.6966 64.1795 27.3037C64.1795 28.8938 63.0141 30.0103 61.6633 30.0103ZM61.6633 22.838C59.1972 22.838 57.1874 24.7155 57.1874 27.3037C57.1874 29.875 59.1972 31.7695 61.6633 31.7695C64.1288 31.7695 66.1386 29.875 66.1386 27.3037C66.1386 24.7155 64.1288 22.838 61.6633 22.838ZM71.4263 30.0103C70.0755 30.0103 68.91 28.8938 68.91 27.3037C68.91 25.6966 70.0755 24.5971 71.4263 24.5971C72.7773 24.5971 73.9427 25.6966 73.9427 27.3037C73.9427 28.8938 72.7772 30.0103 71.4263 30.0103ZM71.4263 22.838C68.9604 22.838 66.951 24.7155 66.951 27.3037C66.951 29.875 68.9604 31.7695 71.4263 31.7695C73.8919 31.7695 75.9018 29.875 75.9018 27.3037C75.9018 24.7155 73.8919 22.838 71.4263 22.838Z" fill="white"/>
<path fill-rule="evenodd" clip-rule="evenodd" d="M49.7111 10.7557C49.7111 11.6354 49.4509 12.3359 48.9301 12.8585C48.3384 13.4799 47.5672 13.7908 46.6192 13.7908C45.7114 13.7908 44.9395 13.4758 44.3048 12.845C43.6689 12.2146 43.3516 11.4328 43.3516 10.5001C43.3516 9.567 43.6689 8.78573 44.3048 8.1548C44.9395 7.52445 45.7114 7.20898 46.6192 7.20898C47.0697 7.20898 47.501 7.29723 47.9104 7.4732C48.3199 7.64959 48.6484 7.88375 48.8941 8.17698L48.3412 8.73108C47.9248 8.23276 47.3515 7.98379 46.6192 7.98379C45.9572 7.98379 45.3847 8.21681 44.9015 8.68314C44.4182 9.14994 44.1767 9.75528 44.1767 10.5001C44.1767 11.245 44.4182 11.8503 44.9015 12.3172C45.3847 12.7835 45.9571 13.0165 46.6192 13.0165C47.3216 13.0165 47.9072 12.7822 48.376 12.313C48.6803 12.0074 48.8563 11.5826 48.9034 11.037H46.6192V10.2803H49.6672C49.6966 10.4448 49.711 10.6027 49.711 10.7557H49.7111ZM54.543 8.12356H51.6786V10.1211H54.2618V10.8781H51.6786V12.8756H54.543V13.6496H50.8711V7.34961H54.543V8.12356ZM57.1396 13.6497H57.9483V8.12356H59.7051V7.34961H55.3828V8.12356H57.1396V13.6497ZM62.832 13.6497V7.34961H63.64V13.6496L62.832 13.6497ZM66.4168 13.6497H67.2256V8.12356H68.9823V7.34961H64.6602V8.12356H66.4168V13.6497ZM73.1483 12.3086C73.6138 12.7806 74.1835 13.0164 74.8572 13.0164C75.5308 13.0164 76.1007 12.7806 76.5656 12.3086C77.0316 11.8365 77.265 11.233 77.265 10.5001C77.265 9.76727 77.0316 9.16381 76.5656 8.69173C76.1007 8.21964 75.5308 7.98379 74.8572 7.98379C74.1835 7.98379 73.6138 8.21964 73.1483 8.69173C72.6835 9.16381 72.4502 9.76722 72.4502 10.5001C72.4502 11.233 72.6835 11.8365 73.1483 12.3086ZM77.1634 12.836C76.545 13.4729 75.776 13.7908 74.8572 13.7908C73.9374 13.7908 73.1687 13.4729 72.5517 12.836C71.9329 12.1997 71.625 11.421 71.625 10.5001C71.625 9.57927 71.9329 8.80036 72.5517 8.16429C73.1688 7.52723 73.9374 7.20898 74.8572 7.20898C75.7712 7.20898 76.5381 7.52893 77.1593 8.16839C77.7797 8.80781 78.0901 9.58502 78.0901 10.5001C78.0901 11.421 77.7804 12.1997 77.1634 12.836ZM79.2266 7.34961V13.6497L80.0341 13.6496V9.72565L79.9993 8.51113H80.0341L83.2322 13.6496H84.0759V7.34961H83.2671V11.0365L83.3019 12.2506H83.2671L80.2102 7.34961H79.2266Z" fill="white"/>
<path d="M11.0149 7.99124C10.6631 8.30916 10.4531 8.83942 10.4531 9.5433V9.38418V32.6113V32.4583C10.4531 33.1084 10.6332 33.6104 10.9383 33.9337L11.0161 34.0083V34.0087C11.263 34.2318 11.5796 34.3503 11.9425 34.3499C12.297 34.3499 12.6959 34.2367 13.1169 33.9977L28.3332 25.338L33.5599 22.3631C34.2238 21.9854 34.5964 21.4982 34.6587 21.0018V20.9998C34.5964 20.5023 34.2238 20.0154 33.56 19.6377L28.3328 16.6632L13.1169 8.00351C12.6951 7.76402 12.2959 7.65039 11.9404 7.65039C11.578 7.65039 11.2618 7.76851 11.015 7.99124H11.0149Z" fill="#00C1FF"/>
<path d="M11.0162 34.0098L10.9383 33.9351C10.6332 33.6119 10.4531 33.1098 10.4531 32.4598V32.6128V9.39137V9.54473C10.4531 8.84085 10.6631 8.31059 11.0149 7.99267L24.0032 21.0016L11.0162 34.0098Z" fill="url(#paint0_linear_2050_1611)"/>
<path d="M28.3339 25.3379L24.0039 21.0001L28.3335 16.6631L33.5607 19.6375C34.2244 20.0153 34.5971 20.5022 34.6594 20.9997V21.0017C34.5971 21.498 34.2244 21.9854 33.5607 22.363L28.334 25.3378" fill="url(#paint1_linear_2050_1611)"/>
<path d="M11.9458 34.3496C11.583 34.3499 11.2664 34.2314 11.0195 34.0083V34.008L24.0066 20.9998L28.3366 25.3376L13.1202 33.9973C12.6992 34.2364 12.3003 34.3496 11.9458 34.3496Z" fill="url(#paint2_linear_2050_1611)"/>
<path d="M24.004 21L11.0156 7.99103C11.2625 7.76829 11.5787 7.65018 11.9411 7.65018C12.2965 7.65018 12.6958 7.76376 13.1176 8.0033L28.3336 16.663L24.0039 21" fill="url(#paint3_linear_2050_1611)"/>
<defs>
<linearGradient id="paint0_linear_2050_1611" x1="18.7534" y1="9.14594" x2="7.56043" y2="20.357" gradientUnits="userSpaceOnUse">
<stop stop-color="#00A0FF"/>
<stop offset="0.00657" stop-color="#00A1FF"/>
<stop offset="0.2601" stop-color="#00BEFF"/>
<stop offset="0.5122" stop-color="#00D2FF"/>
<stop offset="0.7604" stop-color="#00DFFF"/>
<stop offset="1" stop-color="#00E3FF"/>
</linearGradient>
<linearGradient id="paint1_linear_2050_1611" x1="35.4682" y1="20.9252" x2="10.1023" y2="20.9252" gradientUnits="userSpaceOnUse">
<stop stop-color="#FFE000"/>
<stop offset="0.4087" stop-color="#FFBD00"/>
<stop offset="0.7754" stop-color="#FFA500"/>
<stop offset="1" stop-color="#FF9C00"/>
</linearGradient>
<linearGradient id="paint2_linear_2050_1611" x1="26.0377" y1="25.124" x2="7.07033" y2="43.9832" gradientUnits="userSpaceOnUse">
<stop stop-color="#FF3A44"/>
<stop offset="1" stop-color="#C31162"/>
</linearGradient>
<linearGradient id="paint3_linear_2050_1611" x1="7.66816" y1="6.06239" x2="16.1215" y2="14.4804" gradientUnits="userSpaceOnUse">
<stop stop-color="#32A071"/>
<stop offset="0.0685" stop-color="#2DA771"/>
<stop offset="0.4762" stop-color="#15CF74"/>
<stop offset="0.8009" stop-color="#06E775"/>
<stop offset="1" stop-color="#00F076"/>
</linearGradient>
</defs>
</svg>
