<svg width="165" height="55" viewBox="0 0 165 55" fill="none" xmlns="http://www.w3.org/2000/svg">
<path d="M107.781 6.92626C107.781 8.45341 108.497 9.48793 109.804 9.8574C111.16 10.2022 114.884 10.0298 115.624 9.56182C116.34 9.11846 116.907 7.88688 116.907 6.77847V5.89173H115.353C113.873 5.89173 113.799 5.91637 113.528 6.63068C113.306 7.24646 113.109 7.36962 112.418 7.36962C111.481 7.36962 110.988 7.00015 110.988 6.3351C110.988 5.96563 110.766 5.89173 109.384 5.89173H107.781V6.92626Z" fill="#FAF9F6"/>
<path d="M87.3123 11.6057C85.3885 12.591 85.2405 13.1083 85.1419 18.9213C85.0925 21.7046 85.1172 24.5373 85.2158 25.2516C85.4132 26.8033 86.1284 27.961 87.3123 28.6507C88.1015 29.1187 88.5701 29.168 93.355 29.168C99.003 29.168 99.4963 29.0694 100.606 27.6654C101.519 26.5078 101.667 25.3255 101.568 19.4632C101.469 13.059 101.371 12.6156 99.3976 11.6057C98.3864 11.0885 97.9918 11.0638 93.355 11.0638C88.7181 11.0638 88.3235 11.0885 87.3123 11.6057ZM96.3886 14.9063C96.9066 15.2758 96.9312 15.399 96.9312 20.1775C96.9312 24.7836 96.9066 25.1038 96.4626 25.3501C96.1913 25.4732 94.7608 25.5964 93.2563 25.5964C91.1352 25.5964 90.4693 25.5225 90.1733 25.2023C89.8527 24.8821 89.7787 24.0693 89.7787 20.0543C89.7787 14.2413 89.606 14.5122 93.355 14.5122C95.2047 14.5122 95.9693 14.6108 96.3886 14.9063Z" fill="#FAF9F6"/>
<path d="M0 16.1163V20.9194L5.87002 20.9687L11.7154 21.0426L11.8387 25.5994L11.962 30.1562L12.2827 28.0872C13.5898 19.9096 17.0181 14.5892 22.7155 11.929L24.0474 11.3132H12.036H0V16.1163Z" fill="#FAF9F6"/>
<path d="M28.9772 11.684C22.4166 13.1126 17.2865 18.0142 15.4613 24.5908C14.9927 26.3643 14.9434 27.1525 14.8447 38.4584L14.7461 50.4785H17.6071H20.4681V38.5815C20.4681 28.7043 20.5421 26.4382 20.8381 25.2313C22.0466 20.5759 25.3516 17.0536 29.8651 15.625C31.7642 15.0338 32.1095 15.0092 38.0042 15.0092H44.1455V13.1618V11.3145L37.3136 11.3391C32.6028 11.3391 29.9884 11.4623 28.9772 11.684Z" fill="#FAF9F6"/>
<path d="M49.5781 13.0364V14.7606H52.1678H54.7576V21.9037V29.0469H57.1006H59.4437V21.9037V14.7606H62.0334H64.6231V13.0364V11.3122H57.1006H49.5781V13.0364Z" fill="#FAF9F6"/>
<path d="M67.082 20.2037V29.0957L73.4453 28.9972C79.3154 28.9233 79.858 28.874 80.6472 28.406C82.1517 27.5193 82.6203 26.5587 82.6203 24.2433C82.6203 21.9772 82.1764 21.0166 80.7212 20.0313C80.006 19.5633 79.9813 19.5141 80.4252 19.2185C81.4118 18.6273 81.8804 17.445 81.8804 15.5977C81.8804 14.1937 81.7818 13.6764 81.3131 13.0114C80.2526 11.4103 79.7593 11.3118 73.0754 11.3118H67.082V20.2037ZM76.9476 15.2528C77.4902 15.7947 77.5889 16.977 77.1943 17.7406C76.9476 18.1593 76.6517 18.2086 74.2346 18.2086H71.5215V16.6568C71.5215 15.7947 71.5955 15.0065 71.6942 14.9326C71.7682 14.8341 72.8781 14.7602 74.1606 14.7602C76.1337 14.7602 76.5283 14.8341 76.9476 15.2528ZM77.7369 22.322C78.3041 22.8147 78.3288 24.2926 77.7615 24.9084C77.4162 25.2778 76.9723 25.3517 74.4319 25.3517H71.5215V23.6275V21.9033H74.4072C76.7256 21.9033 77.3669 21.9772 77.7369 22.322Z" fill="#FAF9F6"/>
<path d="M104.82 20.1784V29.0703L107.213 28.9964L109.58 28.9225L112.392 23.8731C113.946 21.0897 115.302 18.7251 115.45 18.5773C115.574 18.4541 115.672 20.3508 115.672 23.7007V29.0457H117.892H120.112V20.1784V11.311H117.695H115.253L112.639 16.0649C111.184 18.7005 109.827 21.0405 109.63 21.3114C109.309 21.7301 109.284 21.1636 109.26 16.5329V11.311H107.04H104.82V20.1784Z" fill="#FAF9F6"/>
<path d="M31.0032 17.497C29.474 17.8665 27.6242 18.9256 26.1937 20.2557C24.6399 21.7582 23.8013 23.0883 23.16 25.1327C22.7161 26.5121 22.6914 27.5712 22.6914 38.5569V50.4785H25.4044H28.0928L28.1668 38.3352C28.2408 26.586 28.2655 26.1919 28.7587 25.0835C29.4247 23.6302 30.8552 22.2262 32.2857 21.5612C33.2969 21.1178 33.9875 21.0439 38.797 20.97L44.1491 20.8715V19.0488V17.226L38.0571 17.2507C34.6781 17.2753 31.5211 17.3738 31.0032 17.497Z" fill="#FAF9F6"/>
<path d="M58.9507 32.7172C57.8161 33.0866 57.1995 33.5793 56.6569 34.5892C56.1883 35.4513 56.139 36.0917 56.0403 39.9588C55.8677 47.3729 56.1883 48.9 58.2108 50.0823C59 50.5503 59.4686 50.5996 64.2534 50.5996C69.0382 50.5996 69.5068 50.5503 70.4194 50.0823C72.2939 49.0971 72.3925 48.703 72.4665 41.8554C72.5405 35.9685 72.5159 35.7961 71.9732 34.7123C70.9867 32.7664 70.4687 32.6186 64.6234 32.5694C61.8364 32.5447 59.296 32.6186 58.9507 32.7172ZM67.3611 36.4119C67.9284 36.8799 67.953 37.003 68.027 41.2889C68.101 47.2005 68.2983 46.8803 64.3767 46.9788C61.6884 47.028 61.2691 46.9788 60.9978 46.6093C60.5538 46.0182 60.5538 37.1755 60.9978 36.6336C61.4417 36.067 61.8117 35.9931 64.4014 35.9685C66.3992 35.9439 66.8925 36.0178 67.3611 36.4119Z" fill="#FAF9F6"/>
<path d="M96.3126 32.865C95.77 33.062 95.0794 33.5054 94.7835 33.8502C93.8216 34.934 93.6736 36.1409 93.7722 42.2003C93.8462 47.6192 93.8709 47.9394 94.4135 48.7769C95.4247 50.4272 96.1153 50.5996 101.985 50.5996C106.77 50.5996 107.239 50.5503 108.028 50.0823C109.212 49.3927 109.927 48.235 110.124 46.6832C110.223 45.9689 110.248 43.1855 110.198 40.4761C110.124 36.067 110.075 35.4759 109.607 34.5892C108.645 32.7664 108.127 32.6186 102.355 32.5694C98.4337 32.5201 97.0772 32.5694 96.3126 32.865ZM105.142 36.4119C105.512 36.7075 105.562 37.3971 105.562 41.5845C105.562 45.0329 105.488 46.5108 105.266 46.7325C104.846 47.1512 99.1243 47.1512 98.705 46.7325C98.4831 46.5108 98.4091 45.0329 98.4091 41.5845C98.4091 35.5744 98.2118 35.87 102.133 35.9932C103.884 36.0424 104.871 36.1902 105.142 36.4119Z" fill="#FAF9F6"/>
<path d="M133.677 33.0374C131.606 34.1212 131.581 34.1458 131.507 41.1904C131.433 47.2497 131.458 47.4221 132 48.5059C133.012 50.4765 133.48 50.5996 139.597 50.5996C144.456 50.5996 144.974 50.5503 145.738 50.107C146.207 49.836 146.799 49.2941 147.095 48.9247C147.588 48.2596 147.613 47.8655 147.687 42.151C147.785 35.5498 147.662 34.7123 146.577 33.6778C145.442 32.6433 144.554 32.4955 139.498 32.4955C135.083 32.4955 134.689 32.5201 133.677 33.0374ZM142.951 36.535C143.494 37.274 143.444 46.0921 142.902 46.6339C142.606 46.9542 141.915 47.028 139.597 47.028C135.725 47.028 135.897 47.2744 135.897 41.683C135.897 37.2986 136.045 36.3134 136.81 36.1163C137.056 36.0424 138.462 35.9931 139.917 36.0178C142.261 36.067 142.63 36.1163 142.951 36.535Z" fill="#FAF9F6"/>
<path d="M37.4883 41.6112V50.4785H39.8314H42.1744V43.3354V36.1923H45.2574H48.3404V43.3354V50.4785H50.6835H53.0266V41.6112V32.7439H45.2574H37.4883V41.6112Z" fill="#FAF9F6"/>
<path d="M75.7227 41.61V50.502L82.086 50.4281C87.9067 50.3542 88.4986 50.3049 89.2632 49.8615C90.743 48.9994 91.1376 48.2112 91.2116 45.9698C91.3103 43.6051 90.891 42.5706 89.4605 41.6346L88.5726 41.0435L89.1892 40.5755C90.1264 39.8119 90.521 38.8266 90.521 37.1271C90.521 35.2551 89.9784 34.0728 88.7699 33.3585C88.0053 32.9151 87.4134 32.8658 81.8393 32.7919L75.7227 32.718V41.61ZM85.7362 36.7822C86.1802 37.398 86.1802 38.6788 85.7362 39.2946C85.4156 39.7134 85.0703 39.7626 82.8259 39.7626H80.2855L80.2115 38.3094C80.0882 36.0925 80.0388 36.1418 82.8999 36.2403C85.021 36.2896 85.4403 36.3881 85.7362 36.7822ZM86.3282 43.8268C86.9201 44.418 86.9694 45.7234 86.4022 46.3392C86.0569 46.7087 85.6129 46.7826 83.0725 46.7826H80.1622V45.2308C80.1622 44.3687 80.2362 43.5805 80.3348 43.5066C80.4088 43.4081 81.6913 43.3342 83.1712 43.3342C85.5142 43.3342 85.8842 43.3835 86.3282 43.8268Z" fill="#FAF9F6"/>
<path d="M113.453 41.5866V50.4785H115.673H117.893V47.8922V45.3059H121.839C126.081 45.3059 126.944 45.1335 127.906 44.0497C128.745 43.0891 128.991 41.956 128.991 38.9264C128.991 36.4386 128.917 35.8967 128.449 34.9607C127.413 32.9655 127.092 32.867 119.816 32.7931L113.453 32.7192V41.5866ZM123.985 36.8327C124.552 37.3992 124.601 37.5963 124.503 39.3205C124.379 41.7836 124.281 41.8575 120.68 41.8575H117.893V39.0249V36.1923H120.606C123.22 36.1923 123.368 36.2169 123.985 36.8327Z" fill="#FAF9F6"/>
<path d="M149.707 34.4681V36.1676L152.371 36.2415L155.01 36.3154L155.084 43.3847L155.133 50.4785H157.353H159.573L159.622 43.3847L159.696 36.3154L162.36 36.2415L164.999 36.1676V34.4681V32.7439H157.353H149.707V34.4681Z" fill="#FAF9F6"/>
</svg>
