<svg width="196" height="67" viewBox="0 0 196 67" fill="none" xmlns="http://www.w3.org/2000/svg">
<path d="M128.031 8.5576C128.031 10.3902 128.881 11.6316 130.434 12.075C132.045 12.4888 136.469 12.2819 137.348 11.7203C138.198 11.1882 138.871 9.71035 138.871 8.38025V7.31617H137.026C135.268 7.31617 135.18 7.34573 134.858 8.20291C134.594 8.94185 134.36 9.08964 133.539 9.08964C132.426 9.08964 131.84 8.64627 131.84 7.84821C131.84 7.40485 131.576 7.31617 129.936 7.31617H128.031V8.5576Z" fill="#86BB40"/>
<path d="M103.717 14.1714C101.432 15.3537 101.256 15.9744 101.139 22.9501C101.08 26.2901 101.109 29.6892 101.227 30.5464C101.461 32.4085 102.311 33.7978 103.717 34.6254C104.654 35.187 105.211 35.2461 110.895 35.2461C117.604 35.2461 118.19 35.1279 119.508 33.4431C120.592 32.0539 120.768 30.6351 120.651 23.6003C120.534 15.9153 120.417 15.3833 118.073 14.1714C116.872 13.5507 116.403 13.5211 110.895 13.5211C105.387 13.5211 104.918 13.5507 103.717 14.1714ZM114.498 18.1321C115.114 18.5755 115.143 18.7233 115.143 24.4575C115.143 29.9848 115.114 30.3691 114.586 30.6646C114.264 30.8124 112.565 30.9602 110.778 30.9602C108.258 30.9602 107.467 30.8715 107.115 30.4873C106.735 30.103 106.647 29.1276 106.647 24.3097C106.647 17.3341 106.442 17.6592 110.895 17.6592C113.092 17.6592 114 17.7775 114.498 18.1321Z" fill="#86BB40"/>
<path d="M0 19.5857V25.3494L6.97288 25.4085L13.9165 25.4972L14.0629 30.9654L14.2094 36.4336L14.5903 33.9507C16.1431 24.1376 20.2155 17.7531 26.9833 14.5609L28.5654 13.8219H14.2973H0V19.5857Z" fill="#86BB40"/>
<path d="M34.4205 14.2668C26.6272 15.9812 20.5333 21.8632 18.3653 29.7551C17.8086 31.8833 17.75 32.8291 17.6328 46.3961L17.5156 60.8203H20.9142H24.3127V46.5439C24.3127 34.6913 24.4006 31.9719 24.7522 30.5236C26.1878 24.9372 30.1137 20.7104 35.4752 18.9961C37.7311 18.2867 38.1413 18.2571 45.1434 18.2571H52.4386V16.0403V13.8235L44.3231 13.853C38.7272 13.853 35.6217 14.0008 34.4205 14.2668Z" fill="#3A6638"/>
<path d="M58.8906 15.889V17.9581H61.9669H65.0432V26.5298V35.1016H67.8265H70.6097V26.5298V17.9581H73.686H76.7623V15.889V13.82H67.8265H58.8906V15.889Z" fill="#86BB40"/>
<path d="M79.6875 24.4898V35.1602L87.2463 35.0419C94.2192 34.9533 94.8638 34.8941 95.8013 34.3325C97.5885 33.2685 98.1451 32.1157 98.1451 29.3373C98.1451 26.618 97.6178 25.4652 95.8892 24.2829C95.0395 23.7213 95.0102 23.6622 95.5376 23.3075C96.7095 22.5981 97.2662 21.1793 97.2662 18.9625C97.2662 17.2777 97.149 16.657 96.5923 15.8589C95.3325 13.9377 94.7466 13.8195 86.8069 13.8195H79.6875V24.4898ZM91.4066 18.5487C92.0512 19.199 92.1684 20.6177 91.6996 21.534C91.4066 22.0365 91.055 22.0956 88.1839 22.0956H84.9611V20.2335C84.9611 19.199 85.049 18.2531 85.1662 18.1644C85.2541 18.0462 86.5725 17.9575 88.096 17.9575C90.4398 17.9575 90.9086 18.0462 91.4066 18.5487ZM92.3441 27.0318C93.018 27.6229 93.0473 29.3964 92.3734 30.1353C91.9633 30.5787 91.4359 30.6674 88.4182 30.6674H84.9611V28.5983V26.5293H88.3889C91.1429 26.5293 91.9047 26.618 92.3441 27.0318Z" fill="#86BB40"/>
<path d="M124.512 24.4586V35.1289L127.354 35.0402L130.166 34.9516L133.506 28.8922C135.352 25.5522 136.963 22.7146 137.139 22.5373C137.286 22.3895 137.403 24.6655 137.403 28.6853V35.0993H140.04H142.676V24.4586V13.8178H139.805H136.905L133.799 19.5224C132.071 22.6851 130.459 25.4931 130.225 25.8182C129.844 26.3207 129.815 25.6409 129.785 20.084V13.8178H127.149H124.512V24.4586Z" fill="#86BB40"/>
<path d="M36.8304 21.2425C35.0139 21.6858 32.8166 22.9568 31.1173 24.5529C29.2716 26.356 28.2754 27.9521 27.5137 30.4054C26.9863 32.0606 26.957 33.3316 26.957 46.5144V60.8203H30.1798H33.3732L33.4611 46.2483C33.549 32.1493 33.5783 31.6764 34.1643 30.3463C34.9553 28.6024 36.6546 26.9176 38.3539 26.1195C39.5551 25.5875 40.3754 25.4988 46.0885 25.4101L52.4461 25.2919V23.1046V20.9173L45.2096 20.9469C41.1958 20.9764 37.4456 21.0947 36.8304 21.2425Z" fill="#3A6638"/>
<path d="M70.0246 39.5059C68.6769 39.9493 67.9444 40.5404 67.2999 41.7523C66.7432 42.7868 66.6846 43.5553 66.5674 48.1959C66.3623 57.0928 66.7432 58.9254 69.1456 60.3441C70.0832 60.9057 70.6398 60.9648 76.3236 60.9648C82.0074 60.9648 82.564 60.9057 83.6481 60.3441C85.8747 59.1618 85.9919 58.6889 86.0798 50.4718C86.1677 43.4075 86.1384 43.2006 85.4938 41.9001C84.3219 39.565 83.7066 39.3877 76.7631 39.3286C73.4524 39.299 70.4347 39.3877 70.0246 39.5059ZM80.0151 43.9396C80.689 44.5012 80.7183 44.649 80.8062 49.792C80.8941 56.8859 81.1284 56.5016 76.4701 56.6199C73.2766 56.679 72.7786 56.6199 72.4563 56.1765C71.9289 55.4671 71.9289 44.8559 72.4563 44.2056C72.9837 43.5258 73.4231 43.4371 76.4994 43.4075C78.8725 43.378 79.4585 43.4666 80.0151 43.9396Z" fill="#3A6638"/>
<path d="M114.404 39.6833C113.76 39.9197 112.939 40.4518 112.588 40.8656C111.445 42.1661 111.269 43.6144 111.387 50.8856C111.474 57.3884 111.504 57.7726 112.148 58.7776C113.349 60.7579 114.17 60.9648 121.143 60.9648C126.826 60.9648 127.383 60.9057 128.321 60.3441C129.727 59.5165 130.577 58.1273 130.811 56.2652C130.928 55.408 130.957 52.068 130.899 48.8166C130.811 43.5258 130.752 42.8164 130.196 41.7523C129.053 39.565 128.438 39.3877 121.582 39.3286C116.924 39.2694 115.312 39.3286 114.404 39.6833ZM124.893 43.9396C125.332 44.2943 125.391 45.1219 125.391 50.1467C125.391 54.2848 125.303 56.0583 125.039 56.3243C124.541 56.8268 117.744 56.8268 117.246 56.3243C116.982 56.0583 116.895 54.2848 116.895 50.1467C116.895 42.9346 116.66 43.2893 121.318 43.4371C123.399 43.4962 124.571 43.6736 124.893 43.9396Z" fill="#3A6638"/>
<path d="M158.79 39.8902C156.329 41.1907 156.3 41.2203 156.212 49.6738C156.124 56.945 156.153 57.1519 156.798 58.4524C157.999 60.8171 158.556 60.9648 165.822 60.9648C171.593 60.9648 172.209 60.9057 173.117 60.3737C173.673 60.0486 174.377 59.3983 174.728 58.9549C175.314 58.1569 175.343 57.6839 175.431 50.8265C175.549 42.905 175.402 41.9001 174.113 40.6587C172.765 39.4172 171.71 39.2399 165.704 39.2399C160.46 39.2399 159.991 39.2694 158.79 39.8902ZM169.806 44.0874C170.451 44.9741 170.392 55.5558 169.748 56.206C169.396 56.5903 168.576 56.679 165.822 56.679C161.222 56.679 161.427 56.9745 161.427 50.2649C161.427 45.0037 161.603 43.8213 162.511 43.5849C162.804 43.4962 164.474 43.4371 166.203 43.4666C168.986 43.5258 169.425 43.5849 169.806 44.0874Z" fill="#3A6638"/>
<path d="M44.5312 50.1795V60.8203H47.3145H50.0978V52.2486V43.6768H53.7601H57.4223V52.2486V60.8203H60.2056H62.9889V50.1795V39.5387H53.7601H44.5312V50.1795Z" fill="#3A6638"/>
<path d="M89.9453 50.1773V60.8477L97.5041 60.759C104.418 60.6703 105.122 60.6112 106.03 60.0792C107.788 59.0446 108.256 58.0988 108.344 55.409C108.462 52.5715 107.963 51.3301 106.264 50.2069L105.209 49.4975L105.942 48.9359C107.055 48.0196 107.524 46.8373 107.524 44.7978C107.524 42.5514 106.879 41.1326 105.444 40.2755C104.536 39.7434 103.832 39.6843 97.2112 39.5956L89.9453 39.507V50.1773ZM101.84 44.384C102.368 45.1229 102.368 46.6599 101.84 47.3989C101.459 47.9014 101.049 47.9605 98.3831 47.9605H95.3654L95.2775 46.2166C95.131 43.5564 95.0724 43.6155 98.471 43.7337C100.991 43.7928 101.489 43.9111 101.84 44.384ZM102.543 52.8375C103.247 53.5469 103.305 55.1135 102.631 55.8524C102.221 56.2958 101.694 56.3844 98.6761 56.3844H95.2189V54.5223C95.2189 53.4878 95.3068 52.5419 95.424 52.4533C95.5119 52.335 97.0354 52.2463 98.7932 52.2463C101.577 52.2463 102.016 52.3055 102.543 52.8375Z" fill="#3A6638"/>
<path d="M134.766 50.15V60.8203H137.402H140.039V57.7167V54.6132H144.727C149.766 54.6132 150.792 54.4063 151.934 53.1057C152.93 51.953 153.223 50.5933 153.223 46.9577C153.223 43.9724 153.135 43.3221 152.579 42.1989C151.348 39.8047 150.967 39.6865 142.324 39.5978L134.766 39.5092V50.15ZM147.276 44.4453C147.95 45.1251 148.008 45.3616 147.891 47.4306C147.745 50.3864 147.627 50.4751 143.35 50.4751H140.039V47.076V43.6768H143.262C146.368 43.6768 146.543 43.7064 147.276 44.4453Z" fill="#3A6638"/>
<path d="M177.836 41.6078V43.6473L181 43.7359L184.135 43.8246L184.223 52.3077L184.281 60.8203H186.918H189.555L189.614 52.3077L189.702 43.8246L192.866 43.7359L196.001 43.6473V41.6078V39.5387H186.918H177.836V41.6078Z" fill="#3A6638"/>
</svg>
