<svg width="49" height="43" viewBox="0 0 49 43" fill="none" xmlns="http://www.w3.org/2000/svg">
<path d="M35.4531 23.3844H31.2531C28.1653 23.3844 25.6531 20.8722 25.6531 17.7844V0.984375H20.0531C16.9653 0.984375 14.4531 3.49654 14.4531 6.58438H0.453125V14.9844H3.25312V42.9844H48.0531V35.9844C48.0531 29.0367 42.4008 23.3844 35.4531 23.3844ZM20.0531 3.78438H22.8531V17.7844C22.8531 22.4161 26.6214 26.1844 31.2531 26.1844H35.4531C40.3816 26.1844 44.4713 29.8415 45.1527 34.5844H6.05312V20.5844H11.6531V14.9844H17.2531V6.58438C17.2531 5.04046 18.5092 3.78438 20.0531 3.78438ZM3.25312 9.38438H14.4531V12.1844H3.25312V9.38438ZM8.85312 14.9844V17.7844H6.05312V14.9844H8.85312ZM6.05312 40.1844V37.3844H45.2531V40.1844H6.05312Z" fill="#86BB40"/>
<path d="M13.8758 26.1813L10.6658 29.3914L12.6456 31.3713L20.6355 23.3813H16.4355L19.6456 20.1713L17.6658 18.1914L9.67578 26.1813H13.8758Z" fill="#86BB40"/>
</svg>
