<svg width="37" height="43" viewBox="0 0 37 43" fill="none" xmlns="http://www.w3.org/2000/svg">
<path d="M12.4688 2.56836C12.4688 1.47734 11.591 0.599609 10.5 0.599609C9.40898 0.599609 8.53125 1.47734 8.53125 2.56836V5.84961H5.25C2.3543 5.84961 0 8.20391 0 11.0996V12.4121V16.3496V37.3496C0 40.2453 2.3543 42.5996 5.25 42.5996H31.5C34.3957 42.5996 36.75 40.2453 36.75 37.3496V16.3496V12.4121V11.0996C36.75 8.20391 34.3957 5.84961 31.5 5.84961H28.2188V2.56836C28.2188 1.47734 27.341 0.599609 26.25 0.599609C25.159 0.599609 24.2812 1.47734 24.2812 2.56836V5.84961H12.4688V2.56836ZM3 12.4121H33.5V36.0996C33.5 37.8496 31.75 38.9746 30.4375 38.9746H6.0625C4.3125 38.9746 3 37.4121 3 36.0996V12.4121Z" fill="#86BB40"/>
</svg>
