<svg width="49" height="43" viewBox="0 0 49 43" fill="none" xmlns="http://www.w3.org/2000/svg">
<g clip-path="url(#clip0_2051_1040)">
<path d="M39.4562 7.58083V4.99624C39.4576 4.90423 39.4379 4.81291 39.3983 4.72778C39.3587 4.64266 39.3 4.56549 39.2257 4.50093C39.1514 4.43636 39.063 4.38574 38.9659 4.35211C38.8689 4.31847 38.7651 4.30252 38.6608 4.30522H31.5198C31.4147 4.30215 31.31 4.31776 31.2119 4.35113C31.1138 4.38449 31.0243 4.43492 30.9488 4.49942C30.8731 4.5638 30.8129 4.64096 30.7718 4.7263C30.7306 4.81164 30.7094 4.90341 30.7092 4.99615V7.53587H29.219L28.1042 3.30091C27.7466 1.93054 26.3541 0.9658 24.7609 0.984646H14.0334C12.1414 0.984646 10.571 2.31194 10.571 3.98134V7.62176C8.74021 7.91163 7.418 9.32265 7.418 11.0145V39.5678C7.41601 40.0174 7.51506 40.4629 7.70941 40.8786C7.90377 41.2943 8.18958 41.6718 8.55032 41.9894C8.91107 42.307 9.33954 42.5585 9.81102 42.7293C10.2825 42.9 10.7876 42.9867 11.2973 42.9843H39.1363C39.6459 42.9867 40.1511 42.9 40.6226 42.7293C41.094 42.5585 41.5225 42.307 41.8833 41.9894C42.244 41.6718 42.5298 41.2942 42.7242 40.8786C42.9186 40.4629 43.0178 40.0174 43.016 39.5678V11.0146C43.031 9.2242 41.4784 7.72631 39.4562 7.58083ZM32.3366 5.74111H37.8288V7.53596H32.3366V5.74111ZM41.3886 39.5679C41.3907 39.829 41.3338 40.088 41.2212 40.3295C41.1086 40.5711 40.9427 40.7904 40.733 40.9748C40.5234 41.1592 40.2742 41.3048 40.0001 41.4033C39.7259 41.5018 39.4323 41.5512 39.1363 41.5485H11.2973C11.0013 41.5511 10.7077 41.5018 10.4336 41.4032C10.1595 41.3047 9.91042 41.159 9.70081 40.9747C9.49119 40.7903 9.32528 40.571 9.21274 40.3294C9.1002 40.0879 9.04329 39.829 9.04533 39.5679V11.0146C9.04533 9.90499 10.0401 8.97185 11.2972 8.97185H11.416C11.5192 8.97489 11.6221 8.95922 11.7183 8.92582C11.8144 8.89242 11.9018 8.84199 11.975 8.77764C12.0483 8.71331 12.1059 8.63643 12.1443 8.55174C12.1827 8.46705 12.2011 8.37632 12.1983 8.28514V3.98134C12.1983 3.10347 13.039 2.42062 14.0334 2.42062H24.7609C25.1676 2.41591 25.5638 2.53427 25.8836 2.75599C26.2034 2.9777 26.4274 3.28939 26.5185 3.63915L27.7787 8.4386C27.8215 8.59432 27.9238 8.73231 28.0682 8.82941C28.2127 8.9265 28.3906 8.9768 28.5721 8.97185H39.1364C40.3935 8.97185 41.3887 9.90499 41.3887 11.0146L41.3886 39.5679Z" fill="#86BB40" stroke="#86BB40"/>
<path d="M25.1144 9.06065C25.2357 9.06004 25.3554 9.03559 25.4648 8.98909C25.5741 8.94258 25.6703 8.87518 25.7465 8.79178C25.8227 8.70853 25.877 8.61138 25.9054 8.50734C25.9339 8.40331 25.9358 8.29499 25.911 8.19024L25.1544 5.01594C25.0812 4.71373 24.8929 4.44274 24.6209 4.24798C24.349 4.05322 24.0097 3.94642 23.6594 3.94531H15.4007C14.5581 3.94531 13.8242 4.54928 13.8242 5.29253V8.33679C13.8242 8.73318 14.2372 9.06065 14.6864 9.06065H25.1144ZM15.4517 5.3812H23.578L24.1115 7.62477H15.4517V5.3812ZM35.4124 16.6303C35.5134 16.5401 35.5856 16.4279 35.6215 16.3051C35.6573 16.1823 35.6557 16.0532 35.6166 15.9312C35.5774 15.8092 35.5021 15.6986 35.3986 15.6107C35.295 15.5228 35.1669 15.4607 35.0273 15.4308C34.8876 15.4009 34.7415 15.4042 34.6038 15.4405C34.4661 15.4767 34.3418 15.5446 34.2435 15.6371L32.1557 17.4965H17.9975L15.9161 15.6371C15.766 15.5017 15.5611 15.4244 15.3465 15.4223C15.1318 15.4201 14.925 15.4932 14.7714 15.6255C14.4521 15.9014 14.4461 16.3537 14.7583 16.6355L16.7739 18.4142V33.321L14.7583 35.1054C14.6071 35.2409 14.5229 35.4238 14.5242 35.614C14.5255 35.8042 14.6122 35.9862 14.7652 36.1202C14.9182 36.2541 15.1252 36.3291 15.3408 36.3288C15.5563 36.3284 15.7629 36.2526 15.9153 36.1181L17.9975 34.2784H32.1557L34.2371 36.1181C34.3904 36.2511 34.5967 36.3258 34.8117 36.326C35.0267 36.3263 35.2332 36.2522 35.3869 36.1196C35.5407 35.9869 35.6294 35.8064 35.6341 35.6168C35.6388 35.4271 35.559 35.2434 35.412 35.105L33.4541 33.3561V18.3792L35.4124 16.6303ZM18.4012 18.9324H31.8267V32.8425H18.4012V18.9324Z" fill="#86BB40" stroke="#86BB40"/>
</g>
<defs>
<clipPath id="clip0_2051_1040">
<rect width="47.6" height="42" fill="white" transform="translate(0.617188 0.984375)"/>
</clipPath>
</defs>
</svg>
