<svg width="63" height="45" viewBox="0 0 63 45" fill="none" xmlns="http://www.w3.org/2000/svg">
<path fill-rule="evenodd" clip-rule="evenodd" d="M11.332 26.1172C7.05182 26.1172 3.58203 29.587 3.58203 33.8672C3.58203 38.1474 7.05182 41.6172 11.332 41.6172C15.6122 41.6172 19.082 38.1474 19.082 33.8672C19.082 29.587 15.6122 26.1172 11.332 26.1172ZM1.08203 33.8672C1.08203 28.2063 5.67111 23.6172 11.332 23.6172C16.993 23.6172 21.582 28.2063 21.582 33.8672C21.582 39.5281 16.993 44.1172 11.332 44.1172C5.67111 44.1172 1.08203 39.5281 1.08203 33.8672Z" fill="#86BB40"/>
<path fill-rule="evenodd" clip-rule="evenodd" d="M52.582 29.1172C49.2683 29.1172 46.582 31.8035 46.582 35.1172C46.582 38.4309 49.2683 41.1172 52.582 41.1172C55.8957 41.1172 58.582 38.4309 58.582 35.1172C58.582 31.8035 55.8957 29.1172 52.582 29.1172ZM44.082 35.1172C44.082 30.4228 47.8876 26.6172 52.582 26.6172C57.2764 26.6172 61.082 30.4228 61.082 35.1172C61.082 39.8116 57.2764 43.6172 52.582 43.6172C47.8876 43.6172 44.082 39.8116 44.082 35.1172Z" fill="#86BB40"/>
<path d="M45.202 3.83594C45.202 3.83594 45.332 8.86594 45.202 10.3659C39.572 9.36594 34.832 18.3659 34.832 18.3659C24.832 17.3659 16.912 10.3659 16.912 10.3659H2.83203C2.83203 10.3659 3.85203 18.8259 13.342 17.5959C22.832 17.3659 27.962 28.0959 27.902 35.2259H37.552C37.552 35.2259 39.232 20.9959 52.032 20.9959C58.842 19.3659 53.842 7.36594 45.202 3.83594Z" stroke="#86BB40" stroke-width="2.5" stroke-linecap="round" stroke-linejoin="round"/>
<path d="M52.0811 35.6163L41.8711 25.4062" stroke="#86BB40" stroke-width="2.5" stroke-linecap="round" stroke-linejoin="round"/>
<path d="M9.61968 30.8672C9.61968 30.8672 9.25968 35.2372 13.9397 35.2372H35.8297" stroke="#86BB40" stroke-width="2.5" stroke-linecap="round" stroke-linejoin="round"/>
<path d="M34.8313 18.3672C34.8313 18.3672 27.2313 19.9372 25.2812 25.4072" stroke="#86BB40" stroke-width="2.5" stroke-linecap="round" stroke-linejoin="round"/>
<path d="M22.2812 14.085C24.332 10.484 32.832 6.98438 39.8512 12.115" stroke="#86BB40" stroke-width="2.5" stroke-linecap="round" stroke-linejoin="round"/>
<path d="M39.8516 1.98438C39.8516 1.98438 51.9616 3.06437 55.1416 15.9644" stroke="#86BB40" stroke-width="2.5" stroke-linecap="round" stroke-linejoin="round"/>
</svg>
