<svg width="27" height="43" viewBox="0 0 27 43" fill="none" xmlns="http://www.w3.org/2000/svg">
<path d="M0 5.84961C0 2.95391 2.18486 0.599609 4.87216 0.599609H21.9247C24.612 0.599609 26.7969 2.95391 26.7969 5.84961V37.3496C26.7969 40.2453 24.612 42.5996 21.9247 42.5996H4.87216C2.18486 42.5996 0 40.2453 0 37.3496V5.84961ZM15.8345 37.3496C15.8345 36.6534 15.5779 35.9857 15.121 35.4935C14.6642 35.0012 14.0445 34.7246 13.3984 34.7246C12.7523 34.7246 12.1327 35.0012 11.6759 35.4935C11.219 35.9857 10.9624 36.6534 10.9624 37.3496C10.9624 38.0458 11.219 38.7135 11.6759 39.2058C12.1327 39.698 12.7523 39.9746 13.3984 39.9746C14.0445 39.9746 14.6642 39.698 15.121 39.2058C15.5779 38.7135 15.8345 38.0458 15.8345 37.3496ZM24.2812 6.22461C24.2812 4.56775 22.9381 3.22461 21.2812 3.22461H5.40625C3.7494 3.22461 2.40625 4.56776 2.40625 6.22461V29.0996C2.40625 30.7565 3.7494 32.0996 5.40625 32.0996H21.2812C22.9381 32.0996 24.2812 30.7565 24.2812 29.0996V6.22461Z" fill="#86BB40"/>
</svg>
