<svg width="65" height="67" viewBox="0 0 65 67" fill="none" xmlns="http://www.w3.org/2000/svg">
<path fill-rule="evenodd" clip-rule="evenodd" d="M30.7391 18.535C30.226 18.9068 29.8355 19.4232 29.6175 20.0182C29.2305 19.7503 28.7891 19.571 28.3249 19.4932C27.8607 19.4154 27.385 19.441 26.9317 19.5682C26.4785 19.6953 26.0589 19.9208 25.7029 20.2287C25.3468 20.5366 25.0631 20.9193 24.8719 21.3494L20.8591 15.8246C20.6136 15.4808 20.3025 15.189 19.9437 14.966C19.5849 14.743 19.1854 14.5933 18.7685 14.5254C18.3515 14.4576 17.9252 14.473 17.5142 14.5708C17.1032 14.6685 16.7156 14.8467 16.3738 15.095C16.032 15.3433 15.7428 15.6569 15.5228 16.0175C15.3028 16.3782 15.1564 16.7789 15.092 17.1964C15.0277 17.6139 15.0466 18.0401 15.1478 18.4503C15.249 18.8604 15.4304 19.2465 15.6815 19.5862L24.8591 32.2182L21.9071 30.9062C21.1359 30.5838 20.269 30.5759 19.4921 30.8843C18.7151 31.1928 18.0897 31.793 17.7496 32.5566C17.4094 33.3202 17.3817 34.1867 17.6721 34.9705C17.9626 35.7544 18.5483 36.3934 19.3039 36.751L21.4063 37.6854C23.6863 38.7094 26.1951 41.4278 28.4831 42.4486C31.6751 43.8726 36.3855 45.383 36.6527 45.4726C36.7529 45.5069 36.8589 45.521 36.9646 45.514C37.0702 45.507 37.1735 45.4791 37.2683 45.4319C37.3631 45.3847 37.4476 45.3192 37.5168 45.2391C37.5861 45.159 37.6388 45.066 37.6719 44.9654C37.7049 44.8647 37.7176 44.7586 37.7093 44.653C37.701 44.5474 37.6718 44.4446 37.6235 44.3504C37.5751 44.2561 37.5085 44.1725 37.4276 44.1042C37.3466 44.0359 37.2529 43.9844 37.1519 43.9526C36.8911 43.8662 31.7663 42.1702 29.1295 40.9846C27.3375 40.1798 24.5407 37.3206 22.0559 36.2246C21.7567 36.095 20.3279 35.4566 19.9535 35.2902C19.5659 35.1175 19.2627 34.7979 19.1107 34.4017C18.9587 34.0054 18.9704 33.5651 19.1431 33.1774C19.3158 32.7898 19.6354 32.4866 20.0317 32.3346C20.4279 32.1827 20.8683 32.1943 21.2559 32.367L26.7247 34.8006C27.2975 35.1126 28.3551 34.3094 27.7903 33.5318L16.9743 18.647C16.7248 18.3035 16.622 17.875 16.6884 17.4556C16.7549 17.0363 16.9852 16.6605 17.3287 16.411C17.6722 16.1615 18.1008 16.0587 18.5201 16.1251C18.9394 16.1916 19.3152 16.4219 19.5647 16.7654L27.5583 27.7686C27.6201 27.8536 27.698 27.9256 27.7876 27.9805C27.8772 28.0354 27.9767 28.0721 28.0805 28.0885C28.1843 28.1049 28.2903 28.1007 28.3924 28.0762C28.4946 28.0516 28.5909 28.0072 28.6759 27.9454C28.7609 27.8836 28.8329 27.8057 28.8878 27.7161C28.9427 27.6265 28.9793 27.527 28.9958 27.4232C29.0122 27.3195 29.008 27.2135 28.9835 27.1113C28.9589 27.0091 28.9145 26.9128 28.8527 26.8278L26.5007 23.591C26.261 23.2473 26.1656 22.8232 26.2352 22.41C26.3048 21.9967 26.5338 21.6273 26.8728 21.381C27.2119 21.1348 27.6341 21.0314 28.0486 21.0931C28.4631 21.1548 28.8368 21.3767 29.0895 21.711L31.4415 24.9462C31.5033 25.0312 31.5812 25.1032 31.6708 25.1581C31.7604 25.213 31.8599 25.2497 31.9637 25.2661C32.0675 25.2825 32.1735 25.2783 32.2756 25.2538C32.3778 25.2292 32.4741 25.1848 32.5591 25.123C32.6441 25.0612 32.7161 24.9833 32.771 24.8937C32.8259 24.8041 32.8625 24.7046 32.879 24.6008C32.8954 24.4971 32.8912 24.3911 32.8667 24.2889C32.8421 24.1867 32.7977 24.0904 32.7359 24.0054L31.3247 22.0646C31.0752 21.7213 30.9723 21.293 31.0386 20.8738C31.1049 20.4546 31.335 20.0789 31.6783 19.8294C32.0216 19.5799 32.45 19.477 32.8691 19.5433C33.2883 19.6096 33.664 19.8397 33.9135 20.183L36.2655 23.4198C36.3273 23.5048 36.4052 23.5768 36.4948 23.6317C36.5844 23.6866 36.6839 23.7233 36.7877 23.7397C36.8915 23.7561 36.9975 23.7519 37.0996 23.7274C37.2018 23.7028 37.2981 23.6584 37.3831 23.5966C37.4681 23.5348 37.5401 23.4569 37.595 23.3673C37.6499 23.2777 37.6866 23.1782 37.703 23.0744C37.7194 22.9707 37.7152 22.8647 37.6907 22.7625C37.6661 22.6603 37.6217 22.564 37.5599 22.479L36.1487 20.5382C35.8992 20.1949 35.7963 19.7666 35.8626 19.3474C35.9289 18.9282 36.159 18.5525 36.5023 18.303C36.8456 18.0535 37.274 17.9506 37.6931 18.0169C38.1123 18.0832 38.488 18.3133 38.7375 18.6566L42.0287 23.1878C45.1087 27.4278 45.4543 33.3462 47.9039 36.7174C47.9656 36.8025 48.0434 36.8746 48.1329 36.9297C48.2225 36.9847 48.322 37.0215 48.4258 37.0381C48.5295 37.0546 48.6356 37.0506 48.7378 37.0262C48.84 37.0018 48.9364 36.9575 49.0215 36.8958C49.1066 36.8342 49.1787 36.7563 49.2337 36.6668C49.2888 36.5772 49.3256 36.4777 49.3422 36.374C49.3587 36.2702 49.3547 36.1642 49.3303 36.0619C49.3059 35.9597 49.2616 35.8633 49.1999 35.7782C47.0879 32.8726 46.4159 26.5014 43.3231 22.247L40.0319 17.7158C39.6911 17.2472 39.2294 16.88 38.6961 16.6533C38.1629 16.4266 37.5781 16.349 37.0042 16.4286C36.4302 16.5083 35.8887 16.7423 35.4374 17.1057C34.986 17.469 34.6418 17.9481 34.4415 18.4918C33.896 18.1144 33.2467 17.9158 32.5834 17.9236C31.9201 17.9313 31.2756 18.145 30.7391 18.535ZM26.3199 8.23422C26.4701 8.38444 26.5545 8.58818 26.5545 8.80062C26.5545 9.01306 26.4701 9.2168 26.3199 9.36702C26.1697 9.51724 25.9659 9.60163 25.7535 9.60163C25.5411 9.60163 25.3373 9.51724 25.1871 9.36702L21.9871 6.16702C21.9126 6.09271 21.8535 6.00443 21.8132 5.90723C21.7728 5.81004 21.7521 5.70585 21.7521 5.60062C21.7521 5.49539 21.7728 5.3912 21.8132 5.29401C21.8535 5.19681 21.9126 5.10853 21.9871 5.03422L25.1871 1.83422C25.3373 1.684 25.5411 1.59961 25.7535 1.59961C25.9659 1.59961 26.1697 1.684 26.3199 1.83422C26.4701 1.98444 26.5545 2.18818 26.5545 2.40062C26.5545 2.61306 26.4701 2.8168 26.3199 2.96702L24.4847 4.80062H40.1535C40.3657 4.80062 40.5692 4.88491 40.7192 5.03493C40.8692 5.18496 40.9535 5.38845 40.9535 5.60062C40.9535 5.81279 40.8692 6.01628 40.7192 6.16631C40.5692 6.31633 40.3657 6.40062 40.1535 6.40062H24.4799L26.3199 8.23422Z" fill="#7D838B"/>
<path d="M13.8125 61.5156L11.2205 58.3956L11.9285 57.9756L14.8205 61.5156H13.8125ZM9.19247 61.5156V55.2156H10.0445V61.5156H9.19247ZM9.78047 58.7076V57.9756H11.8085V58.7076H9.78047ZM12.0005 58.4556L11.2085 58.3356L13.7165 55.2156H14.6405L12.0005 58.4556ZM19.4171 61.5756C18.8731 61.5756 18.3811 61.4516 17.9411 61.2036C17.5011 60.9476 17.1491 60.5836 16.8851 60.1116C16.6291 59.6316 16.5011 59.0476 16.5011 58.3596C16.5011 57.6716 16.6291 57.0916 16.8851 56.6196C17.1411 56.1396 17.4891 55.7756 17.9291 55.5276C18.3691 55.2796 18.8651 55.1556 19.4171 55.1556C20.0171 55.1556 20.5531 55.2916 21.0251 55.5636C21.5051 55.8276 21.8811 56.2036 22.1531 56.6916C22.4251 57.1716 22.5611 57.7276 22.5611 58.3596C22.5611 58.9996 22.4251 59.5596 22.1531 60.0396C21.8811 60.5196 21.5051 60.8956 21.0251 61.1676C20.5531 61.4396 20.0171 61.5756 19.4171 61.5756ZM16.1651 63.8436V55.2156H16.9811V57.1116L16.8971 58.3716L17.0171 59.6436V63.8436H16.1651ZM19.3571 60.8196C19.8051 60.8196 20.2051 60.7196 20.5571 60.5196C20.9091 60.3116 21.1891 60.0236 21.3971 59.6556C21.6051 59.2796 21.7091 58.8476 21.7091 58.3596C21.7091 57.8716 21.6051 57.4436 21.3971 57.0756C21.1891 56.7076 20.9091 56.4196 20.5571 56.2116C20.2051 56.0036 19.8051 55.8996 19.3571 55.8996C18.9091 55.8996 18.5051 56.0036 18.1451 56.2116C17.7931 56.4196 17.5131 56.7076 17.3051 57.0756C17.1051 57.4436 17.0051 57.8716 17.0051 58.3596C17.0051 58.8476 17.1051 59.2796 17.3051 59.6556C17.5131 60.0236 17.7931 60.3116 18.1451 60.5196C18.5051 60.7196 18.9091 60.8196 19.3571 60.8196ZM24.3239 63.9036C24.0279 63.9036 23.7439 63.8556 23.4719 63.7596C23.2079 63.6636 22.9799 63.5196 22.7879 63.3276L23.1839 62.6916C23.3439 62.8436 23.5159 62.9596 23.6999 63.0396C23.8919 63.1276 24.1039 63.1716 24.3359 63.1716C24.6159 63.1716 24.8559 63.0916 25.0559 62.9316C25.2639 62.7796 25.4599 62.5076 25.6439 62.1156L26.0519 61.1916L26.1479 61.0596L28.7399 55.2156H29.5799L26.4239 62.2716C26.2479 62.6796 26.0519 63.0036 25.8359 63.2436C25.6279 63.4836 25.3999 63.6516 25.1519 63.7476C24.9039 63.8516 24.6279 63.9036 24.3239 63.9036ZM26.0039 61.6956L23.0999 55.2156H23.9879L26.5559 60.9996L26.0039 61.6956ZM32.1073 61.5156V55.7316L32.3233 55.9596H29.7193V55.2156H35.3473V55.9596H32.7433L32.9593 55.7316V61.5156H32.1073ZM36.5792 61.5156V55.2156H37.4312V60.2196L41.6432 55.2156H42.3992V61.5156H41.5472V56.4996L37.3472 61.5156H36.5792ZM46.0409 61.5156V55.7316L46.2569 55.9596H43.6529V55.2156H49.2809V55.9596H46.6769L46.8929 55.7316V61.5156H46.0409ZM52.9198 61.5756C52.2638 61.5756 51.6878 61.4396 51.1918 61.1676C50.6958 60.8876 50.3078 60.5076 50.0278 60.0276C49.7478 59.5396 49.6078 58.9836 49.6078 58.3596C49.6078 57.7356 49.7398 57.1836 50.0038 56.7036C50.2758 56.2236 50.6438 55.8476 51.1078 55.5756C51.5798 55.2956 52.1078 55.1556 52.6918 55.1556C53.2838 55.1556 53.8078 55.2916 54.2638 55.5636C54.7278 55.8276 55.0918 56.2036 55.3558 56.6916C55.6198 57.1716 55.7518 57.7276 55.7518 58.3596C55.7518 58.3996 55.7478 58.4436 55.7398 58.4916C55.7398 58.5316 55.7398 58.5756 55.7398 58.6236H50.2558V57.9876H55.2838L54.9478 58.2396C54.9478 57.7836 54.8478 57.3796 54.6478 57.0276C54.4558 56.6676 54.1918 56.3876 53.8558 56.1876C53.5198 55.9876 53.1318 55.8876 52.6918 55.8876C52.2598 55.8876 51.8718 55.9876 51.5278 56.1876C51.1838 56.3876 50.9158 56.6676 50.7238 57.0276C50.5318 57.3876 50.4358 57.7996 50.4358 58.2636V58.3956C50.4358 58.8756 50.5398 59.2996 50.7478 59.6676C50.9638 60.0276 51.2598 60.3116 51.6358 60.5196C52.0198 60.7196 52.4558 60.8196 52.9438 60.8196C53.3278 60.8196 53.6838 60.7516 54.0118 60.6156C54.3478 60.4796 54.6358 60.2716 54.8758 59.9916L55.3558 60.5436C55.0758 60.8796 54.7238 61.1356 54.2998 61.3116C53.8838 61.4876 53.4238 61.5756 52.9198 61.5756Z" fill="#7D838B"/>
</svg>
