<svg width="36" height="24" viewBox="0 0 36 24" fill="none" xmlns="http://www.w3.org/2000/svg">
<path d="M34.5968 2.06023C33.2973 0.596903 30.8981 0 26.3161 0H9.68354C4.99668 0 2.55681 0.635406 1.26221 2.19334C0 3.71233 0 5.95044 0 9.04805V14.9521C0 20.9531 1.4976 24 9.68354 24H26.3162C30.2897 24 32.4915 23.4733 33.9159 22.1819C35.3767 20.8576 36 18.6954 36 14.9521V9.04805C36 5.78136 35.9023 3.53005 34.5968 2.06023ZM23.1121 12.8152L15.5593 16.5544C15.3905 16.638 15.2058 16.6795 15.0214 16.6795C14.8126 16.6795 14.6043 16.6263 14.4197 16.5204C14.0723 16.321 13.8601 15.9642 13.8601 15.5794V8.12486C13.8601 7.74071 14.0717 7.38428 14.4185 7.18473C14.7653 6.98518 15.1968 6.97154 15.5566 7.14865L23.1094 10.8638C23.4937 11.0528 23.735 11.4286 23.7356 11.8386C23.7361 12.2489 23.4958 12.6253 23.1121 12.8152Z" fill="#FF0000"/>
<path d="M23.1121 12.8152L15.5593 16.5544C15.3905 16.638 15.2058 16.6795 15.0214 16.6795C14.8126 16.6795 14.6043 16.6263 14.4197 16.5204C14.0723 16.321 13.8601 15.9642 13.8601 15.5794V8.12486C13.8601 7.74071 14.0717 7.38428 14.4185 7.18473C14.7653 6.98518 15.1968 6.97154 15.5566 7.14865L23.1094 10.8638C23.4937 11.0528 23.735 11.4286 23.7356 11.8386C23.7361 12.2489 23.4958 12.6253 23.1121 12.8152Z" fill="white"/>
</svg>
