<svg width="150" height="43" viewBox="0 0 150 43" fill="none" xmlns="http://www.w3.org/2000/svg">
<g id="button-app-store">
<path id="Vector" d="M149.169 37.2564C149.169 39.4947 147.26 41.3077 144.898 41.3077H5.11296C2.75219 41.3077 0.835938 39.4947 0.835938 37.2564V4.94911C0.835938 2.71193 2.75219 0.892578 5.11296 0.892578H144.897C147.26 0.892578 149.168 2.71193 149.168 4.94911L149.169 37.2564Z" fill="#212121"/>
<path id="path16" d="M144.444 0.940927C147.017 0.940927 149.11 2.91887 149.11 5.34962V36.8496C149.11 39.2804 147.017 41.2583 144.444 41.2583H5.55556C2.98333 41.2583 0.890277 39.2804 0.890277 36.8496V5.34962C0.890277 2.91887 2.98333 0.940927 5.55556 0.940927H144.444ZM144.444 0.0996163H5.55556C2.50139 0.0996163 0 2.46343 0 5.34962V36.8496C0 39.7358 2.50139 42.0996 5.55556 42.0996H144.444C147.499 42.0996 150 39.7358 150 36.8496V5.34962C150 2.46343 147.499 0.0996163 144.444 0.0996163Z" fill="#212121"/>
<g id="Group">
<g id="Group_2">
<g id="Vector_2">
<path d="M33.4811 20.8723C33.4489 17.4882 36.4133 15.8418 36.5489 15.7651C34.87 13.452 32.2677 13.1359 31.3533 13.1107C29.1677 12.8934 27.0477 14.3466 25.9344 14.3466C24.7989 14.3466 23.0844 13.1317 21.2366 13.1674C18.8589 13.2021 16.6344 14.503 15.4144 16.5232C12.8966 20.6423 14.7744 26.6956 17.1866 30.0251C18.3933 31.6558 19.8033 33.4765 21.6489 33.4124C23.4544 33.3421 24.1289 32.3246 26.3077 32.3246C28.4666 32.3246 29.1 33.4124 30.9822 33.3715C32.92 33.3421 34.14 31.7335 35.3044 30.0881C36.6989 28.2191 37.2589 26.3785 37.2811 26.284C37.2355 26.2693 33.5177 24.9285 33.4811 20.8723Z" fill="#FAF9F6"/>
<path d="M29.9255 10.9204C30.8966 9.77275 31.5611 8.2114 31.3766 6.62695C29.9711 6.68575 28.2133 7.5457 27.2011 8.66815C26.3055 9.65725 25.5055 11.2785 25.7122 12.8031C27.2911 12.9144 28.9122 12.0502 29.9255 10.9204Z" fill="#FAF9F6"/>
</g>
</g>
</g>
<g id="Group_3">
<path id="Vector_3" d="M59.6083 33.1785H57.085L55.7028 29.074H50.8983L49.5817 33.1785H47.125L51.885 19.2051H54.825L59.6083 33.1785ZM55.2861 27.352L54.0361 23.7033C53.9039 23.3305 53.6561 22.4527 53.2906 21.0709H53.2461C53.1006 21.6652 52.8661 22.543 52.5439 23.7033L51.3161 27.352H55.2861V27.352Z" fill="#FAF9F6"/>
<path id="Vector_4" d="M71.8498 28.0173C71.8498 29.7309 71.3598 31.0854 70.3798 32.0798C69.502 32.9649 68.412 33.407 67.1109 33.407C65.7065 33.407 64.6976 32.9303 64.0831 31.9769H64.0387V37.2846H61.6698V26.4203C61.6698 25.343 61.6398 24.2373 61.582 23.1033H63.6654L63.7976 24.7004H63.842C64.632 23.4971 65.8309 22.8965 67.4398 22.8965C68.6976 22.8965 69.7476 23.3658 70.5876 24.3056C71.4298 25.2464 71.8498 26.4833 71.8498 28.0173ZM69.4365 28.0992C69.4365 27.1185 69.2031 26.31 68.7343 25.6737C68.222 25.0101 67.5343 24.6783 66.672 24.6783C66.0876 24.6783 65.5565 24.8631 65.082 25.2275C64.6065 25.595 64.2954 26.0748 64.1498 26.6691C64.0765 26.9463 64.0398 27.1731 64.0398 27.3516V29.0316C64.0398 29.7645 64.2776 30.383 64.7531 30.888C65.2287 31.3931 65.8465 31.6451 66.6065 31.6451C67.4987 31.6451 68.1931 31.3196 68.6898 30.6707C69.1876 30.0207 69.4365 29.1639 69.4365 28.0992Z" fill="#FAF9F6"/>
<path id="Vector_5" d="M84.1104 28.0173C84.1104 29.7309 83.6204 31.0854 82.6393 32.0798C81.7626 32.9649 80.6726 33.407 79.3715 33.407C77.9671 33.407 76.9582 32.9303 76.3449 31.9769H76.3004V37.2846H73.9315V26.4203C73.9315 25.343 73.9015 24.2373 73.8438 23.1033H75.9271L76.0593 24.7004H76.1037C76.8926 23.4971 78.0915 22.8965 79.7015 22.8965C80.9582 22.8965 82.0082 23.3658 82.8504 24.3056C83.6893 25.2464 84.1104 26.4833 84.1104 28.0173ZM81.6971 28.0992C81.6971 27.1185 81.4626 26.31 80.9937 25.6737C80.4815 25.0101 79.796 24.6783 78.9326 24.6783C78.3471 24.6783 77.8171 24.8631 77.3415 25.2275C76.866 25.595 76.556 26.0748 76.4104 26.6691C76.3382 26.9463 76.3004 27.1731 76.3004 27.3516V29.0316C76.3004 29.7645 76.5382 30.383 77.0115 30.888C77.4871 31.392 78.1049 31.6451 78.8671 31.6451C79.7593 31.6451 80.4538 31.3196 80.9504 30.6707C81.4482 30.0207 81.6971 29.1639 81.6971 28.0992Z" fill="#FAF9F6"/>
<path id="Vector_6" d="M97.8257 29.2596C97.8257 30.4482 97.389 31.4152 96.5123 32.1618C95.549 32.9776 94.2079 33.385 92.4846 33.385C90.8935 33.385 89.6179 33.0952 88.6523 32.5146L89.2012 30.6487C90.2412 31.243 91.3823 31.5412 92.6257 31.5412C93.5179 31.5412 94.2123 31.3501 94.7112 30.97C95.2079 30.5899 95.4557 30.0796 95.4557 29.4433C95.4557 28.8763 95.2512 28.3986 94.8412 28.0111C94.4335 27.6237 93.7523 27.2635 92.8012 26.9307C90.2123 26.0182 88.919 24.6816 88.919 22.9239C88.919 21.7752 89.3723 20.8333 90.2801 20.1004C91.1846 19.3665 92.3912 19 93.9001 19C95.2457 19 96.3635 19.2216 97.2557 19.6636L96.6635 21.4885C95.8301 21.0601 94.8879 20.8459 93.8335 20.8459C93.0001 20.8459 92.349 21.0402 91.8823 21.4266C91.4879 21.772 91.2901 22.1931 91.2901 22.6918C91.2901 23.2441 91.5157 23.7009 91.969 24.06C92.3635 24.3918 93.0801 24.7509 94.1201 25.1383C95.3923 25.6224 96.3268 26.1883 96.9279 26.8372C97.5268 27.484 97.8257 28.2936 97.8257 29.2596Z" fill="#FAF9F6"/>
<path id="Vector_7" d="M105.653 24.7823H103.042V29.6743C103.042 30.9185 103.502 31.5401 104.425 31.5401C104.848 31.5401 105.199 31.5055 105.477 31.4362L105.542 33.1361C105.076 33.301 104.461 33.3839 103.7 33.3839C102.765 33.3839 102.033 33.1141 101.506 32.5754C100.98 32.0357 100.716 31.1306 100.716 29.8591V24.7802H99.1602V23.1002H100.716V21.2554L103.042 20.5918V23.1002H105.653V24.7823Z" fill="#FAF9F6"/>
<path id="Vector_8" d="M117.439 28.0572C117.439 29.606 116.971 30.8775 116.035 31.8719C115.054 32.8956 113.752 33.4059 112.128 33.4059C110.564 33.4059 109.318 32.9156 108.389 31.9349C107.461 30.9542 106.996 29.7162 106.996 28.2242C106.996 26.6628 107.474 25.3839 108.433 24.3896C109.389 23.3942 110.681 22.8965 112.304 22.8965C113.868 22.8965 115.127 23.3868 116.077 24.3686C116.986 25.3209 117.439 26.5505 117.439 28.0572ZM114.982 28.1297C114.982 27.2004 114.772 26.4035 114.346 25.7388C113.849 24.9345 113.139 24.5334 112.219 24.5334C111.267 24.5334 110.544 24.9356 110.047 25.7388C109.622 26.4045 109.412 27.2141 109.412 28.1717C109.412 29.1009 109.622 29.8979 110.047 30.5615C110.559 31.3658 111.275 31.7669 112.198 31.7669C113.103 31.7669 113.813 31.3574 114.325 30.5405C114.762 29.8632 114.982 29.0579 114.982 28.1297Z" fill="#FAF9F6"/>
<path id="Vector_9" d="M125.134 25.0721C124.9 25.0311 124.65 25.0101 124.387 25.0101C123.554 25.0101 122.91 25.3073 122.456 25.9026C122.062 26.4276 121.864 27.0912 121.864 27.8924V33.1791H119.496L119.519 26.2764C119.519 25.1151 119.489 24.0578 119.43 23.1044H121.493L121.58 25.0322H121.645C121.895 24.3696 122.29 23.8362 122.83 23.4362C123.357 23.076 123.927 22.8965 124.542 22.8965C124.761 22.8965 124.959 22.9112 125.134 22.9374V25.0721Z" fill="#FAF9F6"/>
<path id="Vector_10" d="M135.733 27.6639C135.733 28.065 135.706 28.4031 135.647 28.6793H128.54C128.568 29.6747 128.911 30.4359 129.571 30.9609C130.17 31.4303 130.944 31.6655 131.896 31.6655C132.948 31.6655 133.908 31.5069 134.771 31.1888L135.142 32.7428C134.133 33.1586 132.942 33.3654 131.568 33.3654C129.914 33.3654 128.617 32.9055 127.672 31.9868C126.73 31.068 126.258 29.8343 126.258 28.2866C126.258 26.7672 126.697 25.502 127.576 24.4929C128.496 23.4156 129.739 22.877 131.303 22.877C132.84 22.877 134.003 23.4156 134.793 24.4929C135.419 25.3487 135.733 26.4071 135.733 27.6639ZM133.474 27.0833C133.49 26.4197 133.336 25.8464 133.014 25.3623C132.604 24.7397 131.974 24.4289 131.127 24.4289C130.352 24.4289 129.722 24.7323 129.241 25.3413C128.847 25.8254 128.612 26.406 128.54 27.0822H133.474V27.0833Z" fill="#FAF9F6"/>
</g>
<g id="Group_4">
<g id="Group_5">
<path id="Vector_11" d="M54.5024 10.6102C54.5024 11.8461 54.1101 12.7764 53.3268 13.4011C52.6013 13.9776 51.5701 14.2663 50.2346 14.2663C49.5724 14.2663 49.0057 14.239 48.5312 14.1844V7.43186C49.1501 7.33736 49.8168 7.28906 50.5368 7.28906C51.809 7.28906 52.7679 7.55051 53.4146 8.07341C54.139 8.66456 54.5024 9.50981 54.5024 10.6102ZM53.2746 10.6407C53.2746 9.83951 53.0501 9.22526 52.6013 8.79686C52.1524 8.36951 51.4968 8.15531 50.6335 8.15531C50.2668 8.15531 49.9546 8.17841 49.6957 8.22671V13.3602C49.839 13.3812 50.1013 13.3906 50.4824 13.3906C51.3735 13.3906 52.0613 13.1565 52.5457 12.6882C53.0301 12.2199 53.2746 11.5374 53.2746 10.6407Z" fill="#FAF9F6"/>
<path id="Vector_12" d="M61.0128 11.689C61.0128 12.4502 60.7828 13.0739 60.3228 13.5632C59.8406 14.0662 59.2017 14.3171 58.4039 14.3171C57.635 14.3171 57.0228 14.0767 56.5661 13.5937C56.1106 13.1117 55.8828 12.5038 55.8828 11.7709C55.8828 11.0044 56.1173 10.3754 56.5884 9.8872C57.0595 9.39895 57.6928 9.1543 58.4906 9.1543C59.2595 9.1543 59.8773 9.39475 60.345 9.8767C60.7895 10.345 61.0128 10.9498 61.0128 11.689ZM59.805 11.7247C59.805 11.2679 59.7006 10.8763 59.4928 10.5497C59.2484 10.1549 58.9006 9.95755 58.4484 9.95755C57.9806 9.95755 57.625 10.1549 57.3806 10.5497C57.1717 10.8763 57.0684 11.2742 57.0684 11.7446C57.0684 12.2014 57.1728 12.593 57.3806 12.9196C57.6328 13.3144 57.9839 13.5118 58.4373 13.5118C58.8817 13.5118 59.2306 13.3112 59.4817 12.9091C59.6973 12.5762 59.805 12.1814 59.805 11.7247Z" fill="#FAF9F6"/>
<path id="Vector_13" d="M69.7412 9.25586L68.1023 14.2056H67.0357L66.3568 12.0562C66.1846 11.5197 66.0446 10.9863 65.9357 10.4571H65.9146C65.8135 11.001 65.6735 11.5333 65.4935 12.0562L64.7723 14.2056H63.6935L62.1523 9.25586H63.349L63.9412 11.6089C64.0846 12.1654 64.2023 12.6957 64.2968 13.1976H64.3179C64.4046 12.7839 64.5479 12.2568 64.7501 11.6194L65.4935 9.25691H66.4423L67.1546 11.569C67.3268 12.1329 67.4668 12.6757 67.5746 13.1986H67.6068C67.6857 12.6894 67.8046 12.1465 67.9623 11.569L68.5979 9.25691H69.7412V9.25586Z" fill="#FAF9F6"/>
<path id="Vector_14" d="M75.7786 14.206H74.6142V11.371C74.6142 10.4974 74.263 10.0606 73.5586 10.0606C73.213 10.0606 72.9342 10.1803 72.7175 10.4207C72.5031 10.6612 72.3942 10.9447 72.3942 11.2691V14.2049H71.2297V10.6706C71.2297 10.2359 71.2153 9.76449 71.1875 9.25419H72.2108L72.2653 10.028H72.2975C72.4331 9.78759 72.6353 9.58914 72.9008 9.43059C73.2164 9.24579 73.5697 9.15234 73.9564 9.15234C74.4453 9.15234 74.8519 9.30144 75.1753 9.60069C75.5775 9.96714 75.7786 10.5142 75.7786 11.2408V14.206V14.206Z" fill="#FAF9F6"/>
<path id="Vector_15" d="M78.9868 14.2052H77.8242V6.98438H78.9868V14.2052Z" fill="#FAF9F6"/>
<path id="Vector_16" d="M85.8448 11.689C85.8448 12.4502 85.6148 13.0739 85.1548 13.5632C84.6726 14.0662 84.0326 14.3171 83.236 14.3171C82.466 14.3171 81.8537 14.0767 81.3982 13.5937C80.9426 13.1117 80.7148 12.5038 80.7148 11.7709C80.7148 11.0044 80.9493 10.3754 81.4204 9.8872C81.8915 9.39895 82.5248 9.1543 83.3215 9.1543C84.0915 9.1543 84.7082 9.39475 85.1771 9.8767C85.6215 10.345 85.8448 10.9498 85.8448 11.689ZM84.636 11.7247C84.636 11.2679 84.5315 10.8763 84.3237 10.5497C84.0804 10.1549 83.7315 9.95755 83.2804 9.95755C82.8115 9.95755 82.456 10.1549 82.2126 10.5497C82.0037 10.8763 81.9004 11.2742 81.9004 11.7446C81.9004 12.2014 82.0048 12.593 82.2126 12.9196C82.4648 13.3144 82.816 13.5118 83.2693 13.5118C83.7137 13.5118 84.0615 13.3112 84.3126 12.9091C84.5293 12.5762 84.636 12.1814 84.636 11.7247Z" fill="#FAF9F6"/>
<path id="Vector_17" d="M91.4787 14.2048H90.4334L90.3467 13.6346H90.3145C89.9568 14.0893 89.4469 14.3171 88.7849 14.3171C88.2905 14.3171 87.8906 14.167 87.5896 13.8688C87.3163 13.5979 87.1797 13.2608 87.1797 12.8608C87.1797 12.256 87.4463 11.795 87.9828 11.4758C88.5183 11.1566 89.2714 11.0002 90.2412 11.0075V10.9151C90.2412 10.2631 89.8791 9.9376 89.1537 9.9376C88.6371 9.9376 88.1817 10.0604 87.7884 10.304L87.5518 9.58165C88.0384 9.2971 88.6394 9.1543 89.3481 9.1543C90.7166 9.1543 91.4031 9.8368 91.4031 11.2018V13.0246C91.4031 13.5191 91.4287 13.9129 91.4787 14.2048ZM90.2701 12.5038V11.7404C88.9859 11.7194 88.3439 12.0523 88.3439 12.7379C88.3439 12.9962 88.4172 13.1894 88.5671 13.3186C88.7171 13.4477 88.9082 13.5118 89.1359 13.5118C89.3914 13.5118 89.6302 13.4351 89.848 13.2829C90.0668 13.1296 90.2012 12.9353 90.2512 12.697C90.2634 12.6434 90.2701 12.5783 90.2701 12.5038Z" fill="#FAF9F6"/>
<path id="Vector_18" d="M98.0937 14.2052H97.0604L97.006 13.4104H96.9737C96.6437 14.0152 96.0815 14.3176 95.2915 14.3176C94.6604 14.3176 94.1349 14.0834 93.7182 13.6151C93.3015 13.1468 93.0938 12.5389 93.0938 11.7923C93.0938 10.9912 93.3193 10.3423 93.7726 9.84667C94.2115 9.38467 94.7493 9.15367 95.3893 9.15367C96.0926 9.15367 96.5849 9.37732 96.8649 9.82567H96.8871V6.98438H98.0526V12.8717C98.0526 13.3537 98.066 13.7978 98.0937 14.2052ZM96.8871 12.1178V11.2925C96.8871 11.1497 96.876 11.0342 96.8549 10.946C96.7893 10.6814 96.6482 10.4588 96.4337 10.2793C96.2171 10.0997 95.956 10.0094 95.6549 10.0094C95.2204 10.0094 94.8804 10.1722 94.6304 10.4987C94.3826 10.8253 94.2571 11.2421 94.2571 11.7514C94.2571 12.2407 94.376 12.6376 94.6149 12.9431C94.8671 13.2686 95.2071 13.4314 95.6326 13.4314C96.0149 13.4314 96.3204 13.2959 96.5526 13.024C96.7771 12.773 96.8871 12.4706 96.8871 12.1178Z" fill="#FAF9F6"/>
<path id="Vector_19" d="M108.052 11.689C108.052 12.4502 107.822 13.0739 107.362 13.5632C106.88 14.0662 106.242 14.3171 105.443 14.3171C104.675 14.3171 104.063 14.0767 103.605 13.5937C103.15 13.1117 102.922 12.5038 102.922 11.7709C102.922 11.0044 103.156 10.3754 103.627 9.8872C104.099 9.39895 104.732 9.1543 105.531 9.1543C106.299 9.1543 106.917 9.39475 107.384 9.8767C107.829 10.345 108.052 10.9498 108.052 11.689ZM106.845 11.7247C106.845 11.2679 106.741 10.8763 106.533 10.5497C106.287 10.1549 105.941 9.95755 105.487 9.95755C105.021 9.95755 104.665 10.1549 104.42 10.5497C104.211 10.8763 104.107 11.2742 104.107 11.7446C104.107 12.2014 104.212 12.593 104.42 12.9196C104.672 13.3144 105.023 13.5118 105.476 13.5118C105.921 13.5118 106.271 13.3112 106.522 12.9091C106.736 12.5762 106.845 12.1814 106.845 11.7247Z" fill="#FAF9F6"/>
<path id="Vector_20" d="M114.317 14.206H113.153V11.371C113.153 10.4974 112.802 10.0606 112.097 10.0606C111.751 10.0606 111.472 10.1803 111.257 10.4207C111.041 10.6612 110.933 10.9447 110.933 11.2691V14.2049H109.768V10.6706C109.768 10.2359 109.754 9.76449 109.727 9.25419H110.749L110.803 10.028H110.835C110.972 9.78759 111.174 9.58914 111.439 9.43059C111.755 9.24579 112.108 9.15234 112.495 9.15234C112.983 9.15234 113.39 9.30144 113.713 9.60069C114.117 9.96714 114.317 10.5142 114.317 11.2408V14.206V14.206Z" fill="#FAF9F6"/>
<path id="Vector_21" d="M122.15 10.0804H120.868V12.4849C120.868 13.096 121.096 13.4015 121.547 13.4015C121.756 13.4015 121.929 13.3847 122.066 13.3501L122.096 14.1848C121.866 14.2667 121.564 14.3077 121.192 14.3077C120.732 14.3077 120.374 14.1754 120.115 13.9108C119.855 13.6462 119.726 13.201 119.726 12.5762V10.0804H118.961V9.25614H119.726V8.34894L120.867 8.02344V9.25509H122.149V10.0804H122.15Z" fill="#FAF9F6"/>
<path id="Vector_22" d="M128.318 14.2052H127.153V11.3912C127.153 10.504 126.802 10.0598 126.098 10.0598C125.558 10.0598 125.19 10.3171 124.987 10.8316C124.953 10.9397 124.933 11.072 124.933 11.2274V14.2042H123.77V6.98438H124.933V9.96743H124.955C125.322 9.42458 125.847 9.15367 126.528 9.15367C127.011 9.15367 127.41 9.30277 127.726 9.60202C128.121 9.97477 128.318 10.5292 128.318 11.2621V14.2052V14.2052Z" fill="#FAF9F6"/>
<path id="Vector_23" d="M134.68 11.4955C134.68 11.6929 134.665 11.8588 134.637 11.9942H131.145C131.16 12.4835 131.327 12.8563 131.65 13.1146C131.946 13.3456 132.327 13.4611 132.793 13.4611C133.31 13.4611 133.781 13.3834 134.206 13.2269L134.388 13.9913C133.891 14.195 133.307 14.2969 132.63 14.2969C131.819 14.2969 131.18 14.0711 130.718 13.6196C130.253 13.1681 130.023 12.5623 130.023 11.8021C130.023 11.0555 130.238 10.4339 130.67 9.93833C131.121 9.40913 131.731 9.14453 132.501 9.14453C133.255 9.14453 133.827 9.40913 134.213 9.93833C134.526 10.3583 134.68 10.8781 134.68 11.4955ZM133.569 11.2109C133.578 10.8844 133.501 10.603 133.343 10.3657C133.141 10.0601 132.833 9.90683 132.417 9.90683C132.037 9.90683 131.727 10.0559 131.49 10.3552C131.297 10.5935 131.182 10.8781 131.145 11.2109H133.569Z" fill="#FAF9F6"/>
</g>
</g>
</g>
</svg>
