<svg width="56" height="30" viewBox="0 0 56 30" fill="none" xmlns="http://www.w3.org/2000/svg">
<path d="M0 9.84609C0 6.48578 0 4.80562 0.653961 3.52215C1.2292 2.39318 2.14708 1.47529 3.27606 0.900055C4.55953 0.246094 6.23968 0.246094 9.6 0.246094H17.4417C20.802 0.246094 22.4821 0.246094 23.7656 0.900055C24.8946 1.47529 25.8125 2.39318 26.3877 3.52215C27.0417 4.80562 27.0417 6.48578 27.0417 9.84609V17.6878C27.0417 21.0481 27.0417 22.7282 26.3877 24.0117C25.8125 25.1407 24.8946 26.0586 23.7656 26.6338C22.4821 27.2878 20.802 27.2878 17.4417 27.2878H9.59999C6.23968 27.2878 4.55953 27.2878 3.27606 26.6338C2.14708 26.0586 1.2292 25.1407 0.653961 24.0117C0 22.7282 0 21.0481 0 17.6878V9.84609Z" fill="url(#paint0_linear_1086_1040)"/>
<path d="M13.4427 23.5131C12.5826 23.5131 11.9428 23.2876 11.5232 22.8366C11.1141 22.3856 10.9096 21.772 10.9096 20.9958V17.5345H9.85547V15.8982H10.9096V14.2934L13.0336 13.6641V15.8982H14.9216L14.7957 17.5345H13.0336V20.8542C13.0336 21.2633 13.128 21.5465 13.3168 21.7038C13.5056 21.8506 13.7993 21.9241 14.1979 21.9241C14.4916 21.9241 14.7957 21.8716 15.1104 21.7667V23.2299C14.8796 23.3243 14.6279 23.3925 14.3552 23.4345C14.0825 23.4869 13.7783 23.5131 13.4427 23.5131Z" fill="#FAF9F6"/>
<path d="M19.9292 23.5131C18.5342 23.5131 17.5115 23.1775 16.8612 22.5062C16.2109 21.8244 15.8858 20.8647 15.8858 19.627C15.8858 18.3893 16.2109 17.4348 16.8612 16.7635C17.522 16.0818 18.5447 15.7409 19.9292 15.7409C21.3242 15.7409 22.3469 16.0818 22.9972 16.7635C23.658 17.4348 23.9884 18.3893 23.9884 19.627C23.9884 20.8647 23.6633 21.8244 23.013 22.5062C22.3626 23.1775 21.3347 23.5131 19.9292 23.5131ZM19.9292 21.7038C20.611 21.7038 21.0987 21.5517 21.3924 21.2475C21.6861 20.9329 21.833 20.3927 21.833 19.627C21.833 18.8613 21.6861 18.3264 21.3924 18.0222C21.0987 17.7075 20.611 17.5502 19.9292 17.5502C19.2579 17.5502 18.7754 17.7075 18.4818 18.0222C18.1881 18.3264 18.0412 18.8613 18.0412 19.627C18.0412 20.3927 18.1881 20.9329 18.4818 21.2475C18.7754 21.5517 19.2579 21.7038 19.9292 21.7038Z" fill="#FAF9F6"/>
<path d="M32.268 23.3711L30.518 16.7351H32.408L33.416 21.0471L34.522 17.5891V16.7351H35.964L37.224 21.0471L38.204 16.7351H40.08L38.344 23.3711H36.608L35.334 19.4931L34.032 23.3711H32.268ZM44.2228 23.5111C43.0748 23.5111 42.1648 23.2264 41.4928 22.6571C40.8208 22.0784 40.4848 21.2058 40.4848 20.0391C40.4848 18.9844 40.7648 18.1491 41.3248 17.5331C41.8941 16.9078 42.7388 16.5951 43.8588 16.5951C44.8855 16.5951 45.6695 16.8658 46.2108 17.4071C46.7615 17.9391 47.0368 18.6391 47.0368 19.5071V20.7111H42.2348C42.3375 21.2431 42.5801 21.6071 42.9628 21.8031C43.3548 21.9991 43.9055 22.0971 44.6148 22.0971C44.9695 22.0971 45.3288 22.0644 45.6928 21.9991C46.0661 21.9338 46.3835 21.8498 46.6448 21.7471V23.0911C46.3368 23.2311 45.9775 23.3338 45.5668 23.3991C45.1561 23.4738 44.7081 23.5111 44.2228 23.5111ZM42.2348 19.5491H45.3848V19.1851C45.3848 18.8024 45.2728 18.5038 45.0488 18.2891C44.8248 18.0651 44.4468 17.9531 43.9148 17.9531C43.2895 17.9531 42.8508 18.0791 42.5988 18.3311C42.3561 18.5831 42.2348 18.9891 42.2348 19.5491ZM52.2587 23.5111C51.792 23.5111 51.386 23.4504 51.0407 23.3291C50.6954 23.1984 50.378 23.0071 50.0887 22.7551L49.9907 23.3711H48.3527V13.9351H50.2427V17.0991C50.5134 16.9311 50.8167 16.8051 51.1527 16.7211C51.4887 16.6371 51.8387 16.5951 52.2027 16.5951C53.1547 16.5951 53.906 16.8658 54.4567 17.4071C55.0167 17.9391 55.2967 18.8024 55.2967 19.9971C55.2967 21.1918 55.0214 22.0784 54.4707 22.6571C53.9294 23.2264 53.192 23.5111 52.2587 23.5111ZM51.7267 22.1251C52.3334 22.1251 52.758 21.9478 53.0007 21.5931C53.2527 21.2384 53.3787 20.7064 53.3787 19.9971C53.3787 19.2598 53.2434 18.7418 52.9727 18.4431C52.7114 18.1351 52.2914 17.9811 51.7127 17.9811C51.4234 17.9811 51.148 18.0231 50.8867 18.1071C50.6347 18.1911 50.42 18.3124 50.2427 18.4711V21.5231C50.4294 21.7191 50.6487 21.8684 50.9007 21.9711C51.162 22.0738 51.4374 22.1251 51.7267 22.1251Z" fill="#FAF9F6"/>
<defs>
<linearGradient id="paint0_linear_1086_1040" x1="24.5" y1="1.74609" x2="2" y2="25.7461" gradientUnits="userSpaceOnUse">
<stop stop-color="#8066FF"/>
<stop offset="1" stop-color="#690DFF"/>
</linearGradient>
</defs>
</svg>
