<svg width="151" height="51" viewBox="0 0 151 51" fill="none" xmlns="http://www.w3.org/2000/svg">
<path d="M95.8828 8.44387C95.8828 9.66917 96.4567 10.4992 97.5055 10.7957C98.5939 11.0723 101.582 10.934 102.176 10.5585C102.75 10.2028 103.205 9.21462 103.205 8.3253V7.61383H101.958C100.771 7.61383 100.711 7.6336 100.494 8.20672C100.316 8.70079 100.157 8.7996 99.6031 8.7996C98.8512 8.7996 98.4554 8.50316 98.4554 7.96956C98.4554 7.67312 98.2773 7.61383 97.1691 7.61383H95.8828V8.44387Z" fill="#FAF9F6"/>
<path d="M79.4604 12.1982C77.9169 12.9887 77.7982 13.4037 77.719 18.0677C77.6794 20.3009 77.6992 22.5736 77.7784 23.1468C77.9367 24.3918 78.5106 25.3207 79.4604 25.874C80.0937 26.2495 80.4697 26.2891 84.3087 26.2891C88.8404 26.2891 89.2362 26.21 90.1267 25.0835C90.8588 24.1547 90.9776 23.2061 90.8984 18.5025C90.8193 13.3642 90.7401 13.0084 89.157 12.1982C88.3457 11.7831 88.029 11.7634 84.3087 11.7634C80.5884 11.7634 80.2718 11.7831 79.4604 12.1982ZM86.7428 14.8464C87.1583 15.1428 87.1781 15.2416 87.1781 19.0756C87.1781 22.7713 87.1583 23.0282 86.8021 23.2258C86.5844 23.3246 85.4367 23.4234 84.2296 23.4234C82.5277 23.4234 81.9934 23.3642 81.7559 23.1072C81.4987 22.8503 81.4393 22.1982 81.4393 18.9768C81.4393 14.3128 81.3008 14.5302 84.3087 14.5302C85.7929 14.5302 86.4063 14.6092 86.7428 14.8464Z" fill="#FAF9F6"/>
<path d="M9.40625 15.8172V19.671L14.116 19.7105L18.806 19.7698L18.9049 23.4259L19.0039 27.082L19.2611 25.422C20.3099 18.8607 23.0606 14.5919 27.6318 12.4575L28.7004 11.9635H19.0632H9.40625V15.8172Z" fill="#FAF9F6"/>
<path d="M32.6565 12.2602C27.3926 13.4065 23.2765 17.3393 21.8122 22.616C21.4362 24.0389 21.3966 24.6713 21.3174 33.7425L21.2383 43.3867H23.5338H25.8293V33.8413C25.8293 25.9164 25.8887 24.0982 26.1261 23.1298C27.0958 19.3946 29.7475 16.5685 33.3689 15.4223C34.8926 14.948 35.1697 14.9282 39.8992 14.9282H44.8267V13.446V11.9638L39.3451 11.9836C35.5655 11.9836 33.4678 12.0824 32.6565 12.2602Z" fill="#FAF9F6"/>
<path d="M49.1836 13.3456V14.729H51.2614H53.3393V20.4602V26.1914H55.2192H57.0992V20.4602V14.729H59.177H61.2548V13.3456V11.9622H55.2192H49.1836V13.3456Z" fill="#FAF9F6"/>
<path d="M63.2305 19.0961V26.2305L68.336 26.1514C73.0458 26.0921 73.4811 26.0526 74.1144 25.6771C75.3215 24.9656 75.6975 24.1949 75.6975 22.3372C75.6975 20.519 75.3413 19.7483 74.1737 18.9577C73.5999 18.5822 73.5801 18.5427 73.9363 18.3056C74.7278 17.8313 75.1038 16.8826 75.1038 15.4004C75.1038 14.2739 75.0247 13.8589 74.6487 13.3253C73.7978 12.0407 73.402 11.9617 68.0392 11.9617H63.2305V19.0961ZM71.146 15.1237C71.5814 15.5585 71.6605 16.5071 71.3439 17.1198C71.146 17.4558 70.9086 17.4953 68.9693 17.4953H66.7925V16.2502C66.7925 15.5585 66.8518 14.9261 66.931 14.8668C66.9904 14.7878 67.8809 14.7285 68.9099 14.7285C70.493 14.7285 70.8096 14.7878 71.146 15.1237ZM71.7793 20.7957C72.2344 21.1909 72.2542 22.3767 71.7991 22.8708C71.522 23.1672 71.1658 23.2265 69.1276 23.2265H66.7925V21.8431V20.4597H69.1078C70.9679 20.4597 71.4824 20.519 71.7793 20.7957Z" fill="#FAF9F6"/>
<path d="M93.5078 19.0766V26.2109L95.4273 26.1516L97.3271 26.0924L99.583 22.041C100.83 19.8078 101.918 17.9105 102.037 17.792C102.136 17.6932 102.215 19.2149 102.215 21.9026V26.1912H103.996H105.777V19.0766V11.9619H103.838H101.879L99.7809 15.7762C98.6134 17.8908 97.525 19.7683 97.3667 19.9856C97.1094 20.3216 97.0896 19.8671 97.0698 16.1516V11.9619H95.2888H93.5078V19.0766Z" fill="#FAF9F6"/>
<path d="M34.2821 16.9243C33.0552 17.2207 31.5711 18.0705 30.4233 19.1377C29.1766 20.3432 28.5038 21.4104 27.9893 23.0508C27.6331 24.1575 27.6133 25.0073 27.6133 33.8215V43.3867H29.7901H31.9471L32.0064 33.6436C32.0658 24.2168 32.0856 23.9006 32.4814 23.0112C33.0157 21.8452 34.1634 20.7187 35.3112 20.1851C36.1225 19.8294 36.6766 19.7701 40.5354 19.7108L44.8296 19.6318V18.1693V16.7069L39.9418 16.7266C37.2307 16.7464 34.6977 16.8255 34.2821 16.9243Z" fill="#FAF9F6"/>
<path d="M56.7034 29.1366C55.7931 29.433 55.2984 29.8282 54.863 30.6385C54.487 31.3302 54.4474 31.8441 54.3683 34.9468C54.2298 40.8954 54.487 42.1207 56.1097 43.0694C56.743 43.4448 57.119 43.4844 60.958 43.4844C64.7971 43.4844 65.173 43.4448 65.9052 43.0694C67.4092 42.2788 67.4883 41.9626 67.5477 36.4686C67.6071 31.7452 67.5873 31.6069 67.1519 30.7373C66.3604 29.1761 65.9448 29.0575 61.2548 29.018C59.0187 28.9982 56.9804 29.0575 56.7034 29.1366ZM63.4514 32.101C63.9065 32.4765 63.9263 32.5753 63.9857 36.014C64.0451 40.7571 64.2034 40.5002 61.0569 40.5792C58.9 40.6188 58.5635 40.5792 58.3459 40.2828C57.9897 39.8085 57.9897 32.7136 58.3459 32.2788C58.7021 31.8243 58.9989 31.765 61.0767 31.7452C62.6796 31.7255 63.0754 31.7848 63.4514 32.101Z" fill="#FAF9F6"/>
<path d="M86.6803 29.2551C86.245 29.4132 85.6909 29.769 85.4534 30.0456C84.6817 30.9152 84.5629 31.8836 84.6421 36.7452C84.7014 41.0931 84.7212 41.35 85.1566 42.0219C85.9679 43.346 86.522 43.4844 91.2318 43.4844C95.0708 43.4844 95.4468 43.4448 96.0801 43.0694C97.0299 42.516 97.6038 41.5871 97.7621 40.3421C97.8413 39.769 97.8611 37.5358 97.8215 35.3618C97.7621 31.8243 97.7225 31.35 97.3466 30.6385C96.5748 29.1761 96.1592 29.0575 91.5286 29.018C88.3822 28.9784 87.2938 29.018 86.6803 29.2551ZM93.7648 32.101C94.0616 32.3381 94.1012 32.8915 94.1012 36.2512C94.1012 39.018 94.0418 40.2037 93.8637 40.3816C93.5273 40.7176 88.9363 40.7176 88.5999 40.3816C88.4218 40.2037 88.3624 39.018 88.3624 36.2512C88.3624 31.429 88.2041 31.6662 91.3505 31.765C92.7555 31.8045 93.5471 31.9231 93.7648 32.101Z" fill="#FAF9F6"/>
<path d="M116.66 29.3935C114.998 30.263 114.978 30.2828 114.919 35.935C114.86 40.7966 114.879 40.935 115.315 41.8045C116.126 43.3856 116.502 43.4844 121.41 43.4844C125.308 43.4844 125.724 43.4448 126.337 43.0891C126.713 42.8717 127.188 42.4369 127.426 42.1405C127.821 41.6069 127.841 41.2907 127.9 36.7057C127.98 31.4093 127.881 30.7373 127.01 29.9073C126.1 29.0773 125.387 28.9587 121.331 28.9587C117.788 28.9587 117.472 28.9784 116.66 29.3935ZM124.101 32.1998C124.536 32.7927 124.497 39.8678 124.061 40.3026C123.824 40.5595 123.27 40.6188 121.41 40.6188C118.303 40.6188 118.441 40.8164 118.441 36.3302C118.441 32.8124 118.56 32.0219 119.174 31.8638C119.371 31.8045 120.499 31.765 121.667 31.7848C123.547 31.8243 123.844 31.8638 124.101 32.1998Z" fill="#FAF9F6"/>
<path d="M39.4844 36.2721V43.3867H41.3643H43.2443V37.6555V31.9243H45.7179H48.1915V37.6555V43.3867H50.0714H51.9514V36.2721V29.1575H45.7179H39.4844V36.2721Z" fill="#FAF9F6"/>
<path d="M70.1602 36.2719V43.4062L75.2657 43.347C79.9359 43.2877 80.4108 43.2481 81.0243 42.8924C82.2116 42.2007 82.5282 41.5683 82.5876 39.7699C82.6668 37.8727 82.3303 37.0426 81.1826 36.2916L80.4702 35.8173L80.9649 35.4418C81.7169 34.8292 82.0335 34.0387 82.0335 32.675C82.0335 31.173 81.5982 30.2244 80.6285 29.6513C80.015 29.2956 79.5401 29.2561 75.0678 29.1968L70.1602 29.1375V36.2719ZM78.1945 32.3983C78.5507 32.8924 78.5507 33.9201 78.1945 34.4142C77.9372 34.7501 77.6602 34.7896 75.8594 34.7896H73.8211L73.7617 33.6236C73.6628 31.845 73.6232 31.8845 75.9187 31.9636C77.6206 32.0031 77.957 32.0821 78.1945 32.3983ZM78.6694 38.0505C79.1443 38.5248 79.1839 39.5723 78.7288 40.0663C78.4517 40.3628 78.0955 40.4221 76.0573 40.4221H73.7222V39.177C73.7222 38.4853 73.7815 37.8529 73.8607 37.7936C73.9201 37.7146 74.9491 37.6553 76.1364 37.6553C78.0164 37.6553 78.3132 37.6948 78.6694 38.0505Z" fill="#FAF9F6"/>
<path d="M100.434 36.2523V43.3867H102.215H103.996V41.3116V39.2365H107.162C110.566 39.2365 111.258 39.0982 112.03 38.2286C112.703 37.4579 112.901 36.5488 112.901 34.1179C112.901 32.1219 112.841 31.6871 112.465 30.9361C111.634 29.3353 111.377 29.2563 105.539 29.197L100.434 29.1377V36.2523ZM108.883 32.4381C109.339 32.8926 109.378 33.0508 109.299 34.4342C109.2 36.4104 109.121 36.4697 106.232 36.4697H103.996V34.197V31.9243H106.172C108.27 31.9243 108.389 31.944 108.883 32.4381Z" fill="#FAF9F6"/>
<path d="M129.523 30.5409V31.9045L131.661 31.9638L133.778 32.0231L133.837 37.695L133.877 43.3867H135.658H137.439L137.479 37.695L137.538 32.0231L139.675 31.9638L141.793 31.9045V30.5409V29.1575H135.658H129.523V30.5409Z" fill="#FAF9F6"/>
</svg>
