<svg width="42" height="43" viewBox="0 0 42 43" fill="none" xmlns="http://www.w3.org/2000/svg">
<path fill-rule="evenodd" clip-rule="evenodd" d="M18.7891 22.6629V13.3083C18.7891 12.3927 19.5313 11.6504 20.447 11.6504V11.6504C21.3626 11.6504 22.1049 12.3927 22.1049 13.3083V22.6629C22.1049 22.8424 22.1921 23.0108 22.3388 23.1144L29.4433 28.1293C30.1914 28.6574 30.3697 29.6918 29.8417 30.4399V30.4399C29.3137 31.1879 28.2792 31.3663 27.5312 30.8382L20.4266 25.8233C19.3998 25.0984 18.7891 23.9198 18.7891 22.6629Z" fill="#86BB40" stroke="#86BB40" stroke-miterlimit="3.8637" stroke-linecap="round"/>
<path d="M21 40.0996C31.2173 40.0996 39.5 31.8169 39.5 21.5996C39.5 11.3823 31.2173 3.09961 21 3.09961C10.7827 3.09961 2.5 11.3823 2.5 21.5996C2.5 31.8169 10.7827 40.0996 21 40.0996ZM41.5 21.5996C41.5 32.9214 32.3218 42.0996 21 42.0996C9.67816 42.0996 0.5 32.9214 0.5 21.5996C0.5 10.2778 9.67816 1.09961 21 1.09961C32.3218 1.09961 41.5 10.2778 41.5 21.5996Z" fill="#86BB40" stroke="#86BB40"/>
</svg>
