<svg width="34" height="49" viewBox="0 0 34 49" fill="none" xmlns="http://www.w3.org/2000/svg">
<path fill-rule="evenodd" clip-rule="evenodd" d="M2 7.08594C2 6.25751 2.67157 5.58594 3.5 5.58594H10.0044C10.8329 5.58594 11.5044 6.25751 11.5044 7.08594C11.5044 7.91436 10.8329 8.58594 10.0044 8.58594H5V43.8691H28.9469V8.58594H23.9425C23.1141 8.58594 22.4425 7.91436 22.4425 7.08594C22.4425 6.25751 23.1141 5.58594 23.9425 5.58594H30.4469C31.2753 5.58594 31.9469 6.25751 31.9469 7.08594V45.3691C31.9469 46.1975 31.2753 46.8691 30.4469 46.8691H3.5C2.67157 46.8691 2 46.1975 2 45.3691V7.08594Z" fill="#86BB40"/>
<path fill-rule="evenodd" clip-rule="evenodd" d="M8.75391 3.36719C8.75391 2.67683 9.31355 2.11719 10.0039 2.11719H23.942C24.6323 2.11719 25.192 2.67683 25.192 3.36719V6.4645C25.192 8.62609 23.4397 10.3783 21.2782 10.3783H12.6676C10.5061 10.3783 8.75391 8.62604 8.75391 6.4645V3.36719ZM11.2539 4.61719V6.4645C11.2539 7.24538 11.8868 7.87825 12.6676 7.87825H21.2782C22.059 7.87825 22.692 7.24533 22.692 6.4645V4.61719H11.2539Z" fill="#86BB40"/>
<path fill-rule="evenodd" clip-rule="evenodd" d="M14.3636 13.7734C14.3636 13.3592 14.6993 13.0234 15.1136 13.0234H18.8304C19.2446 13.0234 19.5804 13.3592 19.5804 13.7734V16.2756H22.0826C22.4968 16.2756 22.8326 16.6114 22.8326 17.0257V20.7425C22.8326 21.1567 22.4968 21.4925 22.0826 21.4925H19.5804V23.9947C19.5804 24.4089 19.2446 24.7447 18.8304 24.7447H15.1136C14.6993 24.7447 14.3636 24.4089 14.3636 23.9947V21.4925H11.8613C11.4471 21.4925 11.1113 21.1567 11.1113 20.7425V17.0257C11.1113 16.6114 11.4471 16.2756 11.8613 16.2756H14.3636V13.7734ZM15.8636 14.5234V17.0257C15.8636 17.4399 15.5278 17.7757 15.1136 17.7757H12.6113V19.9925H15.1136C15.5278 19.9925 15.8636 20.3283 15.8636 20.7425V23.2447H18.0804V20.7425C18.0804 20.3283 18.4162 19.9925 18.8304 19.9925H21.3326V17.7757H18.8304C18.4162 17.7757 18.0804 17.4399 18.0804 17.0257V14.5234H15.8636ZM7.39453 28.6407C7.39453 28.2265 7.73032 27.8907 8.14453 27.8907H13.7198C14.134 27.8907 14.4698 28.2265 14.4698 28.6407V32.3575C14.4698 32.7717 14.134 33.1075 13.7198 33.1075H8.14453C7.73032 33.1075 7.39453 32.7717 7.39453 32.3575V28.6407ZM8.89453 29.3907V31.6075H12.9698V29.3907H8.89453ZM17.6158 28.6407C17.6158 28.2265 17.9516 27.8907 18.3658 27.8907H25.7994C26.2136 27.8907 26.5494 28.2265 26.5494 28.6407C26.5494 29.0549 26.2136 29.3907 25.7994 29.3907H18.3658C17.9516 29.3907 17.6158 29.0549 17.6158 28.6407ZM17.6158 32.3575C17.6158 31.9433 17.9516 31.6075 18.3658 31.6075H25.7994C26.2136 31.6075 26.5494 31.9433 26.5494 32.3575C26.5494 32.7717 26.2136 33.1075 25.7994 33.1075H18.3658C17.9516 33.1075 17.6158 32.7717 17.6158 32.3575ZM7.39453 37.0035C7.39453 36.5893 7.73032 36.2535 8.14453 36.2535H13.7198C14.134 36.2535 14.4698 36.5893 14.4698 37.0035V40.7203C14.4698 41.1346 14.134 41.4703 13.7198 41.4703H8.14453C7.73032 41.4703 7.39453 41.1346 7.39453 40.7203V37.0035ZM8.89453 37.7535V39.9703H12.9698V37.7535H8.89453ZM17.6158 37.0035C17.6158 36.5893 17.9516 36.2535 18.3658 36.2535H25.7994C26.2136 36.2535 26.5494 36.5893 26.5494 37.0035C26.5494 37.4177 26.2136 37.7535 25.7994 37.7535H18.3658C17.9516 37.7535 17.6158 37.4177 17.6158 37.0035ZM17.6158 40.7203C17.6158 40.3061 17.9516 39.9703 18.3658 39.9703H25.7994C26.2136 39.9703 26.5494 40.3061 26.5494 40.7203C26.5494 41.1346 26.2136 41.4703 25.7994 41.4703H18.3658C17.9516 41.4703 17.6158 41.1346 17.6158 40.7203Z" fill="#86BB40"/>
</svg>
