<svg width="68" height="68" viewBox="0 0 68 68" fill="none" xmlns="http://www.w3.org/2000/svg">
<path fill-rule="evenodd" clip-rule="evenodd" d="M31.2391 18.9198C30.726 19.2916 30.3355 19.808 30.1175 20.403C29.7305 20.135 29.2891 19.9558 28.8249 19.878C28.3606 19.8002 27.885 19.8258 27.4317 19.9529C26.9785 20.0801 26.5589 20.3056 26.2029 20.6135C25.8468 20.9214 25.5631 21.3041 25.3719 21.7342L21.3591 16.2094C21.1136 15.8655 20.8025 15.5737 20.4437 15.3507C20.0849 15.1278 19.6854 14.978 19.2685 14.9102C18.8515 14.8424 18.4252 14.8578 18.0142 14.9555C17.6032 15.0533 17.2156 15.2315 16.8738 15.4798C16.532 15.7281 16.2428 16.0416 16.0228 16.4023C15.8028 16.763 15.6564 17.1636 15.592 17.5812C15.5277 17.9987 15.5466 18.4248 15.6478 18.835C15.749 19.2452 15.9304 19.6313 16.1815 19.971L25.3591 32.603L22.4071 31.291C21.6359 30.9685 20.769 30.9607 19.9921 31.2691C19.2151 31.5775 18.5897 32.1778 18.2496 32.9414C17.9094 33.705 17.8817 34.5714 18.1721 35.3553C18.4626 36.1391 19.0483 36.7782 19.8039 37.1358L21.9063 38.0702C24.1863 39.0942 26.6951 41.8126 28.9831 42.8334C32.1751 44.2574 36.8855 45.7678 37.1527 45.8574C37.2529 45.8917 37.3589 45.9057 37.4646 45.8988C37.5702 45.8918 37.6735 45.8639 37.7683 45.8167C37.8631 45.7695 37.9476 45.704 38.0168 45.6239C38.0861 45.5438 38.1388 45.4507 38.1719 45.3501C38.2049 45.2495 38.2176 45.1433 38.2093 45.0378C38.201 44.9322 38.1718 44.8293 38.1235 44.7351C38.0751 44.6409 38.0085 44.5572 37.9276 44.489C37.8466 44.4207 37.7529 44.3692 37.6519 44.3374C37.3911 44.251 32.2663 42.555 29.6295 41.3694C27.8375 40.5646 25.0407 37.7054 22.5559 36.6094C22.2567 36.4798 20.8279 35.8414 20.4535 35.675C20.0659 35.5023 19.7627 35.1827 19.6107 34.7864C19.4587 34.3902 19.4704 33.9498 19.6431 33.5622C19.8158 33.1745 20.1354 32.8714 20.5317 32.7194C20.9279 32.5674 21.3683 32.5791 21.7559 32.7518L27.2247 35.1854C27.7975 35.4974 28.8551 34.6942 28.2903 33.9166L17.4743 19.0318C17.2248 18.6883 17.122 18.2597 17.1884 17.8404C17.2549 17.4211 17.4852 17.0453 17.8287 16.7958C18.1722 16.5463 18.6008 16.4434 19.0201 16.5099C19.4394 16.5764 19.8152 16.8067 20.0647 17.1502L28.0583 28.1534C28.1201 28.2384 28.198 28.3104 28.2876 28.3653C28.3772 28.4201 28.4767 28.4568 28.5805 28.4732C28.6843 28.4897 28.7903 28.4855 28.8924 28.4609C28.9946 28.4364 29.0909 28.392 29.1759 28.3302C29.2609 28.2684 29.3329 28.1905 29.3878 28.1009C29.4427 28.0113 29.4793 27.9118 29.4958 27.808C29.5122 27.7042 29.508 27.5982 29.4835 27.4961C29.4589 27.3939 29.4145 27.2976 29.3527 27.2126L27.0007 23.9758C26.761 23.6321 26.6656 23.208 26.7352 22.7948C26.8048 22.3815 27.0338 22.0121 27.3728 21.7658C27.7119 21.5196 28.1341 21.4162 28.5486 21.4779C28.9631 21.5396 29.3368 21.7614 29.5895 22.0958L31.9415 25.331C32.0033 25.416 32.0812 25.488 32.1708 25.5429C32.2604 25.5977 32.3599 25.6344 32.4637 25.6508C32.5675 25.6673 32.6735 25.6631 32.7756 25.6385C32.8778 25.614 32.9741 25.5696 33.0591 25.5078C33.1441 25.446 33.2161 25.3681 33.271 25.2785C33.3259 25.1889 33.3625 25.0894 33.379 24.9856C33.3954 24.8818 33.3912 24.7758 33.3667 24.6737C33.3421 24.5715 33.2977 24.4752 33.2359 24.3902L31.8247 22.4494C31.5752 22.1061 31.4723 21.6777 31.5386 21.2586C31.6049 20.8394 31.835 20.4637 32.1783 20.2142C32.5216 19.9647 32.95 19.8617 33.3691 19.9281C33.7883 19.9944 34.164 20.2245 34.4135 20.5678L36.7655 23.8046C36.8273 23.8896 36.9052 23.9616 36.9948 24.0165C37.0844 24.0713 37.1839 24.108 37.2877 24.1244C37.3915 24.1409 37.4975 24.1367 37.5996 24.1121C37.7018 24.0876 37.7981 24.0432 37.8831 23.9814C37.9681 23.9196 38.0401 23.8417 38.095 23.7521C38.1499 23.6625 38.1865 23.563 38.203 23.4592C38.2194 23.3554 38.2152 23.2494 38.1907 23.1473C38.1661 23.0451 38.1217 22.9488 38.0599 22.8638L36.6487 20.923C36.3992 20.5797 36.2963 20.1513 36.3626 19.7322C36.4289 19.313 36.659 18.9373 37.0023 18.6878C37.3456 18.4383 37.774 18.3353 38.1931 18.4017C38.6123 18.468 38.988 18.6981 39.2375 19.0414L42.5287 23.5726C45.6087 27.8126 45.9543 33.731 48.4039 37.1022C48.4656 37.1873 48.5434 37.2594 48.6329 37.3144C48.7225 37.3694 48.822 37.4063 48.9258 37.4228C49.0295 37.4394 49.1356 37.4354 49.2378 37.411C49.34 37.3866 49.4364 37.3423 49.5215 37.2806C49.6066 37.2189 49.6787 37.1411 49.7337 37.0516C49.7888 36.962 49.8256 36.8625 49.8422 36.7587C49.8587 36.655 49.8547 36.5489 49.8303 36.4467C49.8059 36.3445 49.7616 36.2481 49.6999 36.163C47.5879 33.2574 46.9159 26.8862 43.8231 22.6318L40.5319 18.1006C40.1911 17.632 39.7294 17.2648 39.1961 17.0381C38.6629 16.8114 38.0781 16.7337 37.5042 16.8134C36.9302 16.8931 36.3887 17.1271 35.9374 17.4904C35.486 17.8538 35.1418 18.3329 34.9415 18.8766C34.396 18.4992 33.7467 18.3006 33.0834 18.3083C32.4201 18.3161 31.7756 18.5297 31.2391 18.9198ZM26.8199 8.61899C26.9701 8.7692 27.0545 8.97294 27.0545 9.18539C27.0545 9.39783 26.9701 9.60157 26.8199 9.75179C26.6697 9.902 26.4659 9.9864 26.2535 9.9864C26.0411 9.9864 25.8373 9.902 25.6871 9.75179L22.4871 6.55179C22.4126 6.47747 22.3535 6.38919 22.3132 6.292C22.2728 6.19481 22.2521 6.09061 22.2521 5.98539C22.2521 5.88016 22.2728 5.77596 22.3132 5.67877C22.3535 5.58158 22.4126 5.4933 22.4871 5.41899L25.6871 2.21899C25.8373 2.06877 26.0411 1.98437 26.2535 1.98438C26.4659 1.98438 26.6697 2.06877 26.8199 2.21899C26.9701 2.3692 27.0545 2.57294 27.0545 2.78539C27.0545 2.99783 26.9701 3.20157 26.8199 3.35179L24.9847 5.18539H40.6535C40.8657 5.18539 41.0692 5.26967 41.2192 5.4197C41.3692 5.56973 41.4535 5.77321 41.4535 5.98539C41.4535 6.19756 41.3692 6.40104 41.2192 6.55107C41.0692 6.7011 40.8657 6.78539 40.6535 6.78539H24.9799L26.8199 8.61899Z" fill="#7D838B"/>
<path d="M14.3125 61.9023L11.7205 58.7823L12.4285 58.3623L15.3205 61.9023H14.3125ZM9.69247 61.9023V55.6023H10.5445V61.9023H9.69247ZM10.2805 59.0943V58.3623H12.3085V59.0943H10.2805ZM12.5005 58.8423L11.7085 58.7223L14.2165 55.6023H15.1405L12.5005 58.8423ZM19.9171 61.9623C19.3731 61.9623 18.8811 61.8383 18.4411 61.5903C18.0011 61.3343 17.6491 60.9703 17.3851 60.4983C17.1291 60.0183 17.0011 59.4343 17.0011 58.7463C17.0011 58.0583 17.1291 57.4783 17.3851 57.0063C17.6411 56.5263 17.9891 56.1623 18.4291 55.9143C18.8691 55.6663 19.3651 55.5423 19.9171 55.5423C20.5171 55.5423 21.0531 55.6783 21.5251 55.9503C22.0051 56.2143 22.3811 56.5903 22.6531 57.0783C22.9251 57.5583 23.0611 58.1143 23.0611 58.7463C23.0611 59.3863 22.9251 59.9463 22.6531 60.4263C22.3811 60.9063 22.0051 61.2823 21.5251 61.5543C21.0531 61.8263 20.5171 61.9623 19.9171 61.9623ZM16.6651 64.2303V55.6023H17.4811V57.4983L17.3971 58.7583L17.5171 60.0303V64.2303H16.6651ZM19.8571 61.2063C20.3051 61.2063 20.7051 61.1063 21.0571 60.9063C21.4091 60.6983 21.6891 60.4103 21.8971 60.0423C22.1051 59.6663 22.2091 59.2343 22.2091 58.7463C22.2091 58.2583 22.1051 57.8303 21.8971 57.4623C21.6891 57.0943 21.4091 56.8063 21.0571 56.5983C20.7051 56.3903 20.3051 56.2863 19.8571 56.2863C19.4091 56.2863 19.0051 56.3903 18.6451 56.5983C18.2931 56.8063 18.0131 57.0943 17.8051 57.4623C17.6051 57.8303 17.5051 58.2583 17.5051 58.7463C17.5051 59.2343 17.6051 59.6663 17.8051 60.0423C18.0131 60.4103 18.2931 60.6983 18.6451 60.9063C19.0051 61.1063 19.4091 61.2063 19.8571 61.2063ZM24.8239 64.2903C24.5279 64.2903 24.2439 64.2423 23.9719 64.1463C23.7079 64.0503 23.4799 63.9063 23.2879 63.7143L23.6839 63.0783C23.8439 63.2303 24.0159 63.3463 24.1999 63.4263C24.3919 63.5143 24.6039 63.5583 24.8359 63.5583C25.1159 63.5583 25.3559 63.4783 25.5559 63.3183C25.7639 63.1663 25.9599 62.8943 26.1439 62.5023L26.5519 61.5783L26.6479 61.4463L29.2399 55.6023H30.0799L26.9239 62.6583C26.7479 63.0663 26.5519 63.3903 26.3359 63.6303C26.1279 63.8703 25.8999 64.0383 25.6519 64.1343C25.4039 64.2383 25.1279 64.2903 24.8239 64.2903ZM26.5039 62.0823L23.5999 55.6023H24.4879L27.0559 61.3863L26.5039 62.0823ZM32.6073 61.9023V56.1183L32.8233 56.3463H30.2193V55.6023H35.8473V56.3463H33.2433L33.4593 56.1183V61.9023H32.6073ZM37.0792 61.9023V55.6023H37.9312V60.6063L42.1432 55.6023H42.8992V61.9023H42.0472V56.8863L37.8472 61.9023H37.0792ZM46.5409 61.9023V56.1183L46.7569 56.3463H44.1529V55.6023H49.7809V56.3463H47.1769L47.3929 56.1183V61.9023H46.5409ZM53.4198 61.9623C52.7638 61.9623 52.1878 61.8263 51.6918 61.5543C51.1958 61.2743 50.8078 60.8943 50.5278 60.4143C50.2478 59.9263 50.1078 59.3703 50.1078 58.7463C50.1078 58.1223 50.2398 57.5703 50.5038 57.0903C50.7758 56.6103 51.1438 56.2343 51.6078 55.9623C52.0798 55.6823 52.6078 55.5423 53.1918 55.5423C53.7838 55.5423 54.3078 55.6783 54.7638 55.9503C55.2278 56.2143 55.5918 56.5903 55.8558 57.0783C56.1198 57.5583 56.2518 58.1143 56.2518 58.7463C56.2518 58.7863 56.2478 58.8303 56.2398 58.8783C56.2398 58.9183 56.2398 58.9623 56.2398 59.0103H50.7558V58.3743H55.7838L55.4478 58.6263C55.4478 58.1703 55.3478 57.7663 55.1478 57.4143C54.9558 57.0543 54.6918 56.7743 54.3558 56.5743C54.0198 56.3743 53.6318 56.2743 53.1918 56.2743C52.7598 56.2743 52.3718 56.3743 52.0278 56.5743C51.6838 56.7743 51.4158 57.0543 51.2238 57.4143C51.0318 57.7743 50.9358 58.1863 50.9358 58.6503V58.7823C50.9358 59.2623 51.0398 59.6863 51.2478 60.0543C51.4638 60.4143 51.7598 60.6983 52.1358 60.9063C52.5198 61.1063 52.9558 61.2063 53.4438 61.2063C53.8278 61.2063 54.1838 61.1383 54.5118 61.0023C54.8478 60.8663 55.1358 60.6583 55.3758 60.3783L55.8558 60.9303C55.5758 61.2663 55.2238 61.5223 54.7998 61.6983C54.3838 61.8743 53.9238 61.9623 53.4198 61.9623Z" fill="#7D838B"/>
</svg>
