<svg width="24" height="24" viewBox="0 0 24 24" fill="none" xmlns="http://www.w3.org/2000/svg">
<g clip-path="url(#clip0_1270_1029)">
<path d="M12 24C18.6274 24 24 18.6274 24 12C24 5.37258 18.6274 0 12 0C5.37258 0 0 5.37258 0 12C0 18.6274 5.37258 24 12 24Z" fill="url(#paint0_linear_1270_1029)"/>
<path fill-rule="evenodd" clip-rule="evenodd" d="M5.43104 11.8739C8.92928 10.3498 11.262 9.34501 12.4292 8.85954C15.7617 7.47343 16.4542 7.23264 16.9055 7.22469C17.0048 7.22295 17.2267 7.24755 17.3705 7.36421C17.4919 7.46272 17.5253 7.59579 17.5413 7.68919C17.5573 7.78258 17.5772 7.99534 17.5614 8.16159C17.3808 10.0591 16.5994 14.6638 16.2018 16.789C16.0336 17.6882 15.7024 17.9897 15.3817 18.0193C14.6849 18.0834 14.1557 17.5587 13.4808 17.1163C12.4246 16.424 11.8279 15.993 10.8028 15.3174C9.61798 14.5367 10.386 14.1075 11.0612 13.4063C11.2379 13.2227 14.3083 10.43 14.3677 10.1766C14.3752 10.1449 14.3821 10.0268 14.3119 9.96446C14.2417 9.90209 14.1382 9.92342 14.0635 9.94038C13.9575 9.96442 12.2703 11.0796 9.00179 13.286C8.52287 13.6148 8.08909 13.775 7.70043 13.7666C7.27197 13.7574 6.44778 13.5244 5.83508 13.3252C5.08358 13.0809 4.4863 12.9518 4.53831 12.5369C4.5654 12.3208 4.86298 12.0998 5.43104 11.8739Z" fill="white"/>
</g>
<defs>
<linearGradient id="paint0_linear_1270_1029" x1="1200" y1="0" x2="1200" y2="2382.2" gradientUnits="userSpaceOnUse">
<stop stop-color="#2AABEE"/>
<stop offset="1" stop-color="#229ED9"/>
</linearGradient>
<clipPath id="clip0_1270_1029">
<rect width="24" height="24" fill="white"/>
</clipPath>
</defs>
</svg>
