<svg width="38" height="48" viewBox="0 0 38 48" fill="none" xmlns="http://www.w3.org/2000/svg">
<path d="M18.6713 35.35L28.431 28.314L28.431 28.314L28.4375 28.3092C29.5017 27.5315 30.4883 26.7508 31.3963 25.9666C34.5152 23.2806 36.15 20.0091 36.15 16.2V15C36.15 10.6544 35.1632 7.21511 32.904 4.9961C30.6849 2.73684 27.2456 1.75 22.9 1.75H3.7H2.45V3V11.4V12.65H3.7H20.5C21.5073 12.65 22.0332 12.901 22.3161 13.1839C22.599 13.4668 22.85 13.9927 22.85 15V17.3609L1.76814 32.5867L1.25 32.9609V33.6V45V46.25H2.5H34.9H36.15V45V36.6V35.35H34.9H18.6713Z" stroke="#86BB40" stroke-width="2.5"/>
</svg>
