<svg viewBox="0 0 49 43" fill="none" xmlns="http://www.w3.org/2000/svg"><path d="M35.453 23.384h-4.2a5.606 5.606 0 0 1-5.6-5.6V.984h-5.6a5.606 5.606 0 0 0-5.6 5.6h-14v8.4h2.8v28h44.8v-7c0-6.947-5.652-12.6-12.6-12.6zm-15.4-19.6h2.8v14c0 4.632 3.768 8.4 8.4 8.4h4.2c4.929 0 9.018 3.657 9.7 8.4h-39.1v-14h5.6v-5.6h5.6v-8.4c0-1.544 1.256-2.8 2.8-2.8zm-16.8 5.6h11.2v2.8h-11.2v-2.8zm5.6 5.6v2.8h-2.8v-2.8h2.8zm-2.8 25.2v-2.8h39.2v2.8h-39.2z" fill="#86BB40"/><path d="m13.876 26.181-3.21 3.21 1.98 1.98 7.99-7.99h-4.2l3.21-3.21-1.98-1.98-7.99 7.99h4.2z" fill="#86BB40"/></svg>