<svg viewBox="0 0 42 43" fill="none" xmlns="http://www.w3.org/2000/svg"><path fill-rule="evenodd" clip-rule="evenodd" d="M18.79 22.663v-9.355c0-.915.741-1.658 1.657-1.658v0c.916 0 1.658.743 1.658 1.658v9.355c0 .18.087.348.234.451l7.104 5.015c.748.528.927 1.563.399 2.31v0a1.658 1.658 0 0 1-2.31.4l-7.105-5.016a3.869 3.869 0 0 1-1.638-3.16z" fill="#86BB40" stroke="#86BB40" stroke-miterlimit="3.864" stroke-linecap="round"/><path d="M21 40.1c10.217 0 18.5-8.283 18.5-18.5 0-10.218-8.283-18.5-18.5-18.5S2.5 11.382 2.5 21.6c0 10.217 8.283 18.5 18.5 18.5zm20.5-18.5c0 11.321-9.178 20.5-20.5 20.5S.5 32.92.5 21.6C.5 10.278 9.678 1.1 21 1.1s20.5 9.178 20.5 20.5z" fill="#86BB40" stroke="#86BB40"/></svg>