<svg viewBox="0 0 49 43" fill="none" xmlns="http://www.w3.org/2000/svg"><g clip-path="url(#a)" fill="#86BB40" stroke="#86BB40"><path d="M39.456 7.58V4.997a.613.613 0 0 0-.058-.268.683.683 0 0 0-.172-.227.79.79 0 0 0-.26-.149.865.865 0 0 0-.305-.047H31.52a.878.878 0 0 0-.308.046.802.802 0 0 0-.263.148.694.694 0 0 0-.177.227.622.622 0 0 0-.063.27v2.54h-1.49L28.104 3.3c-.357-1.37-1.75-2.335-3.343-2.316H14.033c-1.892 0-3.462 1.327-3.462 2.996v3.64c-1.83.29-3.153 1.702-3.153 3.393v28.554c-.002.45.097.895.291 1.31.195.416.48.794.841 1.111.361.318.79.57 1.261.74.472.171.977.258 1.486.255h27.84a4.315 4.315 0 0 0 1.486-.255c.471-.17.9-.422 1.26-.74a3.41 3.41 0 0 0 .841-1.11 3.06 3.06 0 0 0 .292-1.311V11.015c.015-1.79-1.538-3.289-3.56-3.434zm-7.12-1.839h5.493v1.795h-5.492V5.741zm9.053 33.827c.002.261-.055.52-.168.762a1.97 1.97 0 0 1-.488.645c-.21.184-.459.33-.733.428a2.492 2.492 0 0 1-.864.145H11.297a2.492 2.492 0 0 1-.863-.145 2.273 2.273 0 0 1-.733-.428 1.97 1.97 0 0 1-.488-.646c-.113-.241-.17-.5-.168-.761V11.015c0-1.11.995-2.043 2.252-2.043h.119a.848.848 0 0 0 .302-.046.773.773 0 0 0 .257-.148.67.67 0 0 0 .17-.226.6.6 0 0 0 .053-.267V3.981c0-.878.841-1.56 1.835-1.56h10.728c.407-.005.803.113 1.123.335.32.222.543.533.634.883l1.26 4.8a.698.698 0 0 0 .29.39.864.864 0 0 0 .504.143h10.564c1.258 0 2.253.933 2.253 2.043v28.553z"/><path d="M25.114 9.06a.91.91 0 0 0 .35-.07.81.81 0 0 0 .283-.198.692.692 0 0 0 .158-.285.639.639 0 0 0 .006-.317l-.757-3.174a1.34 1.34 0 0 0-.533-.768 1.665 1.665 0 0 0-.962-.303h-8.258c-.843 0-1.577.604-1.577 1.348v3.044c0 .396.413.724.862.724h10.428zm-9.662-3.679h8.126l.534 2.244h-8.66V5.38zm19.96 11.25a.702.702 0 0 0 .21-.326.636.636 0 0 0-.005-.374.706.706 0 0 0-.218-.32.848.848 0 0 0-.372-.18.916.916 0 0 0-.423.01.835.835 0 0 0-.36.196l-2.088 1.86H17.997l-2.08-1.86a.865.865 0 0 0-.57-.215.87.87 0 0 0-.576.204.657.657 0 0 0-.013 1.01l2.016 1.778v14.907l-2.016 1.784a.677.677 0 0 0-.234.509.68.68 0 0 0 .241.506c.153.134.36.21.576.209a.873.873 0 0 0 .574-.21l2.082-1.84h14.159l2.081 1.84a.88.88 0 0 0 .575.207.881.881 0 0 0 .575-.206.688.688 0 0 0 .247-.503.68.68 0 0 0-.222-.512l-1.958-1.749V18.38l1.958-1.749zm-17.01 2.301h13.425v13.91H18.4v-13.91z"/></g><defs><clipPath id="a"><path fill="#fff" transform="translate(.617 .984)" d="M0 0h47.6v42H0z"/></clipPath></defs></svg>