<svg viewBox="0 0 24 24" fill="none" xmlns="http://www.w3.org/2000/svg"><g clip-path="url(#a)"><path d="M1.5 1.632C-.386 3.592 0 5.672 0 11.994c0 5.25-.916 10.513 3.878 11.752 1.497.385 14.76.385 16.256-.002 1.996-.515 3.62-2.134 3.842-4.957.03-.394.03-13.185-.001-13.587-.236-3.007-2.087-4.74-4.526-5.09-.56-.082-.671-.106-3.54-.11C5.738.003 3.508-.45 1.5 1.631z" fill="url(#b)"/><path d="M11.998 3.137c-3.631 0-7.08-.323-8.396 3.057-.544 1.396-.465 3.21-.465 5.805 0 2.278-.073 4.42.465 5.804 1.314 3.383 4.79 3.058 8.394 3.058 3.477 0 7.062.363 8.395-3.058.545-1.41.465-3.196.465-5.804 0-3.462.19-5.697-1.488-7.375-1.7-1.7-4-1.487-7.374-1.487h.004zm-.794 1.597c7.574-.012 8.538-.854 8.006 10.844-.19 4.137-3.34 3.683-7.211 3.683-7.06 0-7.263-.203-7.263-7.265 0-7.146.56-7.258 6.468-7.264v.002zm5.524 1.471a1.063 1.063 0 1 0 0 2.126 1.063 1.063 0 0 0 0-2.126zm-4.73 1.243a4.55 4.55 0 1 0 0 9.1 4.55 4.55 0 0 0 0-9.1zm0 1.597c3.905 0 3.91 5.909 0 5.909-3.904 0-3.91-5.909 0-5.909z" fill="#fff"/></g><defs><linearGradient id="b" x1="1.546" y1="22.466" x2="23.851" y2="3.161" gradientUnits="userSpaceOnUse"><stop stop-color="#FD5"/><stop offset=".5" stop-color="#FF543E"/><stop offset="1" stop-color="#C837AB"/></linearGradient><clipPath id="a"><path fill="#fff" d="M0 0h24v24H0z"/></clipPath></defs></svg>