<svg viewBox="0 0 34 49" fill="none" xmlns="http://www.w3.org/2000/svg"><path fill-rule="evenodd" clip-rule="evenodd" d="M2 7.086a1.5 1.5 0 0 1 1.5-1.5h6.504a1.5 1.5 0 1 1 0 3H5v35.283h23.947V8.586h-5.005a1.5 1.5 0 0 1 0-3h6.505a1.5 1.5 0 0 1 1.5 1.5v38.283a1.5 1.5 0 0 1-1.5 1.5H3.5a1.5 1.5 0 0 1-1.5-1.5V7.086z" fill="#86BB40"/><path fill-rule="evenodd" clip-rule="evenodd" d="M8.754 3.367c0-.69.56-1.25 1.25-1.25h13.938c.69 0 1.25.56 1.25 1.25v3.098a3.914 3.914 0 0 1-3.914 3.913h-8.61a3.914 3.914 0 0 1-3.914-3.913V3.367zm2.5 1.25v1.848c0 .78.633 1.413 1.414 1.413h8.61c.781 0 1.414-.633 1.414-1.413V4.617H11.254zM14.364 13.773a.75.75 0 0 1 .75-.75h3.716a.75.75 0 0 1 .75.75v2.503h2.503a.75.75 0 0 1 .75.75v3.716a.75.75 0 0 1-.75.75H19.58v2.503a.75.75 0 0 1-.75.75h-3.716a.75.75 0 0 1-.75-.75v-2.503H11.86a.75.75 0 0 1-.75-.75v-3.716a.75.75 0 0 1 .75-.75h2.503v-2.503zm1.5.75v2.503a.75.75 0 0 1-.75.75H12.61v2.216h2.503a.75.75 0 0 1 .75.75v2.503h2.216v-2.503a.75.75 0 0 1 .75-.75h2.503v-2.216H18.83a.75.75 0 0 1-.75-.75v-2.503h-2.216zm-8.47 14.118a.75.75 0 0 1 .75-.75h5.576a.75.75 0 0 1 .75.75v3.717a.75.75 0 0 1-.75.75H8.145a.75.75 0 0 1-.75-.75V28.64zm1.5.75v2.217h4.076V29.39H8.895zm8.722-.75a.75.75 0 0 1 .75-.75h7.433a.75.75 0 0 1 0 1.5h-7.433a.75.75 0 0 1-.75-.75zm0 3.717a.75.75 0 0 1 .75-.75h7.433a.75.75 0 0 1 0 1.5h-7.433a.75.75 0 0 1-.75-.75zM7.395 37.004a.75.75 0 0 1 .75-.75h5.575a.75.75 0 0 1 .75.75v3.716a.75.75 0 0 1-.75.75H8.145a.75.75 0 0 1-.75-.75v-3.716zm1.5.75v2.216h4.075v-2.216H8.895zm8.72-.75a.75.75 0 0 1 .75-.75H25.8a.75.75 0 0 1 0 1.5h-7.433a.75.75 0 0 1-.75-.75zm0 3.716a.75.75 0 0 1 .75-.75H25.8a.75.75 0 0 1 0 1.5h-7.433a.75.75 0 0 1-.75-.75z" fill="#86BB40"/></svg>