<svg viewBox="0 0 63 45" fill="none" xmlns="http://www.w3.org/2000/svg"><path fill-rule="evenodd" clip-rule="evenodd" d="M11.332 26.117a7.75 7.75 0 1 0 0 15.5 7.75 7.75 0 0 0 0-15.5zm-10.25 7.75c0-5.66 4.59-10.25 10.25-10.25 5.661 0 10.25 4.59 10.25 10.25 0 5.661-4.589 10.25-10.25 10.25-5.66 0-10.25-4.589-10.25-10.25zM52.582 29.117a6 6 0 1 0 0 12 6 6 0 0 0 0-12zm-8.5 6a8.5 8.5 0 1 1 17 0 8.5 8.5 0 0 1-17 0z" fill="#86BB40"/><path d="M45.202 3.836s.13 5.03 0 6.53c-5.63-1-10.37 8-10.37 8-10-1-17.92-8-17.92-8H2.832s1.02 8.46 10.51 7.23c9.49-.23 14.62 10.5 14.56 17.63h9.65s1.68-14.23 14.48-14.23c6.81-1.63 1.81-13.63-6.83-17.16zM52.081 35.616l-10.21-10.21" stroke="#86BB40" stroke-width="2.5" stroke-linecap="round" stroke-linejoin="round"/><path d="M9.62 30.867s-.36 4.37 4.32 4.37h21.89M34.831 18.367s-7.6 1.57-9.55 7.04M22.281 14.085c2.051-3.601 10.551-7.1 17.57-1.97M39.852 1.984s12.11 1.08 15.29 13.98" stroke="#86BB40" stroke-width="2.5" stroke-linecap="round" stroke-linejoin="round"/></svg>