<svg viewBox="0 0 68 68" fill="none" xmlns="http://www.w3.org/2000/svg"><path fill-rule="evenodd" clip-rule="evenodd" d="M31.24 18.92a3.185 3.185 0 0 0-1.122 1.483 3.2 3.2 0 0 0-4.746 1.331l-4.013-5.525a3.2 3.2 0 1 0-5.178 3.762l9.178 12.632-2.952-1.312a3.2 3.2 0 0 0-2.603 5.845l2.102.934c2.28 1.024 4.79 3.743 7.077 4.763 3.192 1.424 7.902 2.935 8.17 3.024a.802.802 0 0 0 1.056-.82.801.801 0 0 0-.557-.7c-.26-.086-5.386-1.782-8.023-2.968-1.792-.804-4.588-3.664-7.073-4.76-.3-.13-1.728-.768-2.103-.934a1.6 1.6 0 0 1 1.303-2.923l5.469 2.433c.572.312 1.63-.49 1.065-1.268L17.474 19.032a1.601 1.601 0 0 1 2.59-1.882l7.994 11.003a.8.8 0 0 0 1.295-.94L27 23.976a1.6 1.6 0 0 1 2.588-1.88l2.353 3.235a.8.8 0 0 0 1.294-.94l-1.411-1.942a1.6 1.6 0 0 1 2.588-1.881l2.353 3.237a.8.8 0 0 0 1.294-.941l-1.411-1.941a1.6 1.6 0 0 1 2.588-1.882l3.292 4.532c3.08 4.24 3.425 10.158 5.875 13.53a.8.8 0 0 0 1.296-.94c-2.112-2.906-2.784-9.277-5.877-13.531L40.532 18.1a3.2 3.2 0 0 0-5.59.776 3.2 3.2 0 0 0-3.703.043zM26.82 8.619a.801.801 0 0 1-1.133 1.133l-3.2-3.2a.8.8 0 0 1 0-1.133l3.2-3.2a.801.801 0 1 1 1.133 1.133l-1.835 1.833h15.669a.8.8 0 1 1 0 1.6H24.98l1.84 1.834z" fill="#7D838B"/><path d="m14.313 61.902-2.593-3.12.708-.42 2.892 3.54h-1.008zm-4.62 0v-6.3h.851v6.3h-.852zm.588-2.808v-.732h2.027v.732h-2.027zm2.22-.252-.792-.12 2.508-3.12h.923l-2.64 3.24zm7.416 3.12a2.953 2.953 0 0 1-1.476-.372 2.831 2.831 0 0 1-1.056-1.092c-.256-.48-.384-1.064-.384-1.752s.128-1.268.384-1.74c.256-.48.604-.844 1.044-1.092.44-.248.936-.372 1.488-.372.6 0 1.136.136 1.608.408.48.264.856.64 1.128 1.128.272.48.408 1.036.408 1.668 0 .64-.136 1.2-.408 1.68-.272.48-.648.856-1.128 1.128a3.162 3.162 0 0 1-1.608.408zm-3.252 2.268v-8.628h.816v1.896l-.084 1.26.12 1.272v4.2h-.852zm3.192-3.024c.448 0 .848-.1 1.2-.3.352-.208.632-.496.84-.864.208-.376.312-.808.312-1.296s-.104-.916-.312-1.284a2.294 2.294 0 0 0-.84-.864 2.314 2.314 0 0 0-1.2-.312c-.448 0-.852.104-1.212.312a2.294 2.294 0 0 0-.84.864c-.2.368-.3.796-.3 1.284s.1.92.3 1.296c.208.368.488.656.84.864.36.2.764.3 1.212.3zm4.967 3.084c-.296 0-.58-.048-.852-.144a1.846 1.846 0 0 1-.684-.432l.396-.636c.16.152.332.268.516.348.192.088.404.132.636.132.28 0 .52-.08.72-.24.208-.152.404-.424.588-.816l.408-.924.096-.132 2.592-5.844h.84l-3.156 7.056c-.176.408-.372.732-.588.972-.208.24-.436.408-.684.504a2.121 2.121 0 0 1-.828.156zm1.68-2.208-2.904-6.48h.888l2.568 5.784-.552.696zm6.103-.18v-5.784l.216.228H30.22v-.744h5.628v.744h-2.604l.216-.228v5.784h-.852zm4.472 0v-6.3h.852v5.004l4.212-5.004h.756v6.3h-.852v-5.016l-4.2 5.016h-.768zm9.462 0v-5.784l.216.228h-2.604v-.744h5.628v.744h-2.604l.216-.228v5.784h-.852zm6.879.06c-.656 0-1.232-.136-1.728-.408a3.064 3.064 0 0 1-1.164-1.14c-.28-.488-.42-1.044-.42-1.668 0-.624.132-1.176.396-1.656a2.99 2.99 0 0 1 1.104-1.128c.472-.28 1-.42 1.584-.42.592 0 1.116.136 1.572.408a2.8 2.8 0 0 1 1.092 1.128c.264.48.396 1.036.396 1.668 0 .04-.004.084-.012.132v.132h-5.484v-.636h5.028l-.336.252c0-.456-.1-.86-.3-1.212a2.11 2.11 0 0 0-.792-.84c-.336-.2-.724-.3-1.164-.3-.432 0-.82.1-1.164.3-.344.2-.612.48-.804.84-.192.36-.288.772-.288 1.236v.132c0 .48.104.904.312 1.272.216.36.512.644.888.852.384.2.82.3 1.308.3.384 0 .74-.068 1.068-.204.336-.136.624-.344.864-.624l.48.552c-.28.336-.632.592-1.056.768a3.507 3.507 0 0 1-1.38.264z" fill="#7D838B"/></svg>