<svg viewBox="0 0 24 24" fill="none" xmlns="http://www.w3.org/2000/svg"><g clip-path="url(#a)"><path d="M12 24c6.627 0 12-5.373 12-12S18.627 0 12 0 0 5.373 0 12s5.373 12 12 12z" fill="url(#b)"/><path fill-rule="evenodd" clip-rule="evenodd" d="M5.431 11.874c3.498-1.524 5.831-2.529 6.998-3.014 3.333-1.387 4.025-1.627 4.476-1.635.1-.002.322.023.465.14a.506.506 0 0 1 .171.324c.016.094.036.306.02.473-.18 1.897-.962 6.502-1.36 8.627-.167.9-.499 1.2-.82 1.23-.696.064-1.225-.46-1.9-.903-1.056-.692-1.653-1.123-2.678-1.799-1.185-.78-.417-1.21.258-1.91.177-.184 3.247-2.977 3.307-3.23.007-.032.014-.15-.056-.213-.07-.062-.174-.04-.248-.024-.107.024-1.794 1.14-5.062 3.346-.48.329-.913.489-1.302.48-.428-.009-1.252-.242-1.865-.44-.751-.245-1.349-.374-1.297-.79.027-.215.325-.436.893-.662z" fill="#fff"/></g><defs><linearGradient id="b" x1="1200" y1="0" x2="1200" y2="2382.2" gradientUnits="userSpaceOnUse"><stop stop-color="#2AABEE"/><stop offset="1" stop-color="#229ED9"/></linearGradient><clipPath id="a"><path fill="#fff" d="M0 0h24v24H0z"/></clipPath></defs></svg>