<svg viewBox="0 0 36 24" fill="none" xmlns="http://www.w3.org/2000/svg"><path d="M34.597 2.06C33.297.597 30.898 0 26.317 0H9.683C4.997 0 2.557.635 1.262 2.193 0 3.713 0 5.95 0 9.048v5.904C0 20.953 1.498 24 9.684 24h16.632c3.974 0 6.176-.527 7.6-1.818 1.46-1.324 2.084-3.487 2.084-7.23V9.048c0-3.267-.098-5.518-1.403-6.988zM23.112 12.815l-7.553 3.74a1.212 1.212 0 0 1-1.14-.035 1.09 1.09 0 0 1-.559-.94V8.124c0-.384.212-.74.559-.94.346-.2.778-.213 1.138-.036l7.552 3.715c.385.189.626.565.627.975 0 .41-.24.786-.624.976z" fill="red"/><path d="m23.112 12.815-7.553 3.74a1.212 1.212 0 0 1-1.14-.035 1.09 1.09 0 0 1-.559-.94V8.124c0-.384.212-.74.559-.94.346-.2.778-.213 1.138-.036l7.552 3.715c.385.189.626.565.627.975 0 .41-.24.786-.624.976z" fill="#fff"/></svg>