<svg width="39" height="49" viewBox="0 0 39 49" fill="none" xmlns="http://www.w3.org/2000/svg">
<path d="M1.25 44.4V45.5329L2.37744 45.644C10.5296 46.4472 17.9713 46.85 24.7 46.85C28.7859 46.85 32.0538 45.894 34.2239 43.7239C36.394 41.5538 37.35 38.2859 37.35 34.2V33.6C37.35 31.8619 37.1384 30.2875 36.6896 28.8962L36.6871 28.8884L36.6845 28.8806C35.743 26.0887 34.1439 24.0032 31.9005 22.6974C32.791 22.0817 33.569 21.3218 34.2282 20.4189C35.5436 18.6324 36.15 16.3927 36.15 13.8C36.15 9.97043 35.182 6.88338 33.0091 4.80157C30.8384 2.68148 27.5764 1.75 23.5 1.75H3.1H1.85V3V11.4V12.65H3.1H20.5C21.5073 12.65 22.0332 12.901 22.3161 13.1839C22.599 13.4668 22.85 13.9927 22.85 15V16.2C22.85 17.2073 22.599 17.7332 22.3161 18.0161C22.0332 18.299 21.5073 18.55 20.5 18.55H9.1H7.85V19.8V28.2V29.45H9.1H21.7C22.7073 29.45 23.2332 29.701 23.5161 29.9839C23.799 30.2668 24.05 30.7927 24.05 31.8V34.2C24.05 34.8464 23.8637 35.2486 23.5761 35.5361C23.3461 35.7661 22.9764 35.95 22.3 35.95C17.9842 35.95 11.4189 35.6525 2.58465 35.0529L1.25 34.9623V36.3V44.4Z" stroke="#86BB40" stroke-width="2.5"/>
</svg>
