<svg viewBox="0 0 39 49" fill="none" xmlns="http://www.w3.org/2000/svg"><path d="M1.25 44.4v1.133l1.127.111c8.153.803 15.594 1.206 22.323 1.206 4.086 0 7.354-.956 9.524-3.126 2.17-2.17 3.126-5.438 3.126-9.524v-.6c0-1.738-.212-3.313-.66-4.704l-.003-.008-.002-.007c-.942-2.792-2.541-4.878-4.785-6.184a9.704 9.704 0 0 0 2.328-2.278c1.316-1.787 1.922-4.026 1.922-6.619 0-3.83-.968-6.917-3.14-8.998-2.172-2.12-5.434-3.052-9.51-3.052H1.85v10.9H20.5c1.007 0 1.533.251 1.816.534.283.283.534.809.534 1.816v1.2c0 1.007-.251 1.533-.534 1.816-.283.283-.809.534-1.816.534H7.85v10.9H21.7c1.007 0 1.533.251 1.816.534.283.283.534.809.534 1.816v2.4c0 .646-.186 1.049-.474 1.336-.23.23-.6.414-1.276.414-4.316 0-10.881-.297-19.715-.897l-1.335-.09V44.4z" stroke="#86BB40" stroke-width="2.5"/></svg>